<?xml version="1.0" encoding="UTF-8"?>
<svg xmlns="http://www.w3.org/2000/svg" version="1.1" viewBox="0 0 238 238">
  <defs>
    <style>
      .cls-1 {
        fill: #ffc5f3;
      }
    </style>
  </defs>
  <!-- Generator: Adobe Illustrator 28.7.4, SVG Export Plug-In . SVG Version: 1.2.0 Build 166)  -->
  <g>
    <g id="Layer_1">
      <rect class="cls-1" width="238" height="238"/>
      <g>
        <path d="M113.7,131.1c-4.1,0-7.5-3.3-7.5-7.5v-14.5h9v-6.6h-9v-3.6c0-3.6-3-6.6-6.6-6.6v31.4c0,7.7,6.2,13.9,13.9,13.9h1.9v-6.6h-1.8Z"/>
        <path d="M84.8,118.2l-5.1-2.9c-1.1-.7-2.5.2-2.5,1.5v5.9c0,1.3,1.4,2.1,2.5,1.5l5.1-2.9c1.1-.7,1.1-2.3,0-2.9"/>
        <path d="M80.5,101.9c-.2,0-.4,0-.6,0h0c-9.7,0-17.5,7.8-17.5,17.5v26.2l9.5-10.5c2.5,1.4,5.4,2.2,8.5,2.2,9.8,0,17.7-8,17.7-17.7s-7.9-17.7-17.7-17.7M80.5,130.8c-6.1,0-11.1-5-11.1-11.1s5-11.1,11.1-11.1,11.1,5,11.1,11.1c0,6.1-5,11.1-11.1,11.1"/>
        <path d="M162,102.5h-1.8c-4.1,0-7.7,1.8-10.2,4.7-2.5-2.8-6.1-4.7-10.2-4.7h-2.1c-3.9.1-7.3,1.9-9.7,4.6-2.5-2.8-6.1-4.7-10.2-4.7h-.9v6.6h1c3.8,0,6.8,3,6.8,6.8v21.9h0c3.6,0,6.6-2.9,6.6-6.6v-15.1c0-.2,0-.3,0-.4.2-3.6,3.1-6.5,6.8-6.5h1.9c3.8,0,6.8,3,6.8,6.8v15.2c0,3.6,2.9,6.6,6.6,6.6v-21.7c0-.2,0-.3,0-.4.2-3.6,3.1-6.5,6.8-6.5h2c3.8,0,6.8,3,6.8,6.8v15.2c0,3.6,2.9,6.6,6.6,6.6v-21.7c0-7.4-6.1-13.5-13.5-13.5Z"/>
      </g>
    </g>
  </g>
</svg>