<?xml version="1.0" encoding="utf-8"?>
<!-- Generator: Adobe Illustrator 28.7.4, SVG Export Plug-In . SVG Version: 9.03 Build 55973)  -->
<svg version="1.1" id="Layer_1" xmlns="http://www.w3.org/2000/svg" xmlns:xlink="http://www.w3.org/1999/xlink" x="0px" y="0px"
	 viewBox="0 0 238 102" style="enable-background:new 0 0 238 102;" xml:space="preserve">
<style type="text/css">
	.st0{fill:#4287A3;}
	.st1{fill:#B52A26;}
</style>
<g>
	<path class="st0" d="M66.51,62.72c-4.12,0-7.45-3.34-7.45-7.45V40.79h9.04v-6.59h-9.04v-3.61c0-3.64-2.95-6.59-6.59-6.59v31.4
		c0,7.69,6.23,13.92,13.92,13.92h1.94v-6.59H66.51z"/>
	<path class="st1" d="M37.55,49.92l-5.09-2.94c-1.12-0.65-2.53,0.16-2.53,1.46v5.88c0,1.3,1.41,2.11,2.53,1.46l5.09-2.94
		C38.68,52.19,38.68,50.57,37.55,49.92"/>
	<path class="st1" d="M33.31,33.61c-0.19,0-0.38,0.01-0.57,0.01l0.03-0.02c-9.67,0-17.5,7.84-17.5,17.5v26.24l9.51-10.48
		c2.53,1.4,5.44,2.2,8.53,2.2c9.77,0,17.72-7.95,17.72-17.72C51.03,41.56,43.08,33.61,33.31,33.61 M33.31,62.46
		c-6.14,0-11.13-4.99-11.13-11.13c0-6.14,4.99-11.13,11.13-11.13c6.14,0,11.13,4.99,11.13,11.13
		C44.44,57.47,39.45,62.46,33.31,62.46"/>
	<g>
		<g>
			<path class="st1" d="M139.36,62.99c-0.23,0-0.36-0.12-0.36-0.36v-5.75l-2.55,5.84c-0.09,0.18-0.21,0.27-0.42,0.27h-0.37
				c-0.21,0-0.34-0.09-0.42-0.27l-2.56-5.84v5.75c0,0.23-0.12,0.36-0.36,0.36h-0.1c-0.23,0-0.36-0.12-0.36-0.36v-7.26
				c0-0.23,0.12-0.36,0.36-0.36h0.27c0.21,0,0.33,0.09,0.42,0.27l2.93,6.81l2.93-6.81c0.09-0.18,0.21-0.27,0.42-0.27h0.27
				c0.23,0,0.36,0.12,0.36,0.36v7.26c0,0.23-0.12,0.36-0.36,0.36H139.36z"/>
			<path class="st1" d="M141.38,62.99c-0.27,0-0.37-0.17-0.26-0.41l3.27-7.29c0.09-0.18,0.21-0.27,0.41-0.27h0.3
				c0.2,0,0.32,0.09,0.41,0.27l3.27,7.29c0.11,0.25,0,0.41-0.27,0.41h-0.13c-0.2,0-0.32-0.09-0.41-0.27l-1.31-2.9h-3.43l-1.31,2.9
				c-0.09,0.18-0.21,0.27-0.41,0.27H141.38z M144.97,56l-1.37,3.04h2.74L144.97,56z"/>
			<path class="st1" d="M150.46,62.99c-0.23,0-0.36-0.12-0.36-0.36v-7.26c0-0.23,0.12-0.36,0.36-0.36h0.1
				c0.23,0,0.36,0.12,0.36,0.36v3.41l3.28-3.57c0.12-0.13,0.26-0.19,0.44-0.19h0.17c0.31,0,0.4,0.2,0.2,0.44l-2.77,3.07l3.44,4.03
				c0.2,0.23,0.11,0.44-0.2,0.44h-0.17c-0.19,0-0.32-0.06-0.45-0.2l-3.16-3.66L150.92,60v2.64c0,0.23-0.12,0.36-0.36,0.36H150.46z"
				/>
			<path class="st1" d="M157.53,62.99c-0.23,0-0.36-0.12-0.36-0.36v-7.26c0-0.23,0.12-0.36,0.36-0.36h0.1
				c0.23,0,0.36,0.12,0.36,0.36v6.83h3.32c0.23,0,0.36,0.12,0.36,0.36v0.07c0,0.23-0.12,0.36-0.36,0.36H157.53z"/>
			<path class="st1" d="M162.44,60.11v-4.74c0-0.23,0.12-0.36,0.36-0.36h0.1c0.23,0,0.36,0.12,0.36,0.36v4.74
				c0,1.41,0.84,2.24,2.26,2.24c1.41,0,2.23-0.84,2.23-2.24v-4.74c0-0.23,0.12-0.36,0.36-0.36h0.1c0.23,0,0.36,0.12,0.36,0.36v4.74
				c0,1.92-1.13,3.06-3.05,3.06C163.58,63.17,162.44,62.03,162.44,60.11z"/>
			<path class="st1" d="M177.84,62.99c-0.23,0-0.36-0.12-0.36-0.36v-5.75l-2.55,5.84c-0.09,0.18-0.21,0.27-0.42,0.27h-0.37
				c-0.21,0-0.34-0.09-0.42-0.27l-2.56-5.84v5.75c0,0.23-0.12,0.36-0.36,0.36h-0.1c-0.23,0-0.36-0.12-0.36-0.36v-7.26
				c0-0.23,0.12-0.36,0.36-0.36h0.27c0.21,0,0.33,0.09,0.42,0.27l2.93,6.81l2.93-6.81c0.09-0.18,0.21-0.27,0.42-0.27h0.27
				c0.23,0,0.36,0.12,0.36,0.36v7.26c0,0.23-0.12,0.36-0.36,0.36H177.84z"/>
			<path class="st1" d="M179.87,62.99c-0.27,0-0.37-0.17-0.26-0.41l3.27-7.29c0.09-0.18,0.21-0.27,0.41-0.27h0.3
				c0.2,0,0.32,0.09,0.41,0.27l3.27,7.29c0.11,0.25,0,0.41-0.27,0.41h-0.13c-0.2,0-0.32-0.09-0.41-0.27l-1.31-2.9h-3.43l-1.31,2.9
				c-0.09,0.18-0.21,0.27-0.41,0.27H179.87z M183.45,56l-1.37,3.04h2.74L183.45,56z"/>
			<path class="st1" d="M189.75,62.99c-0.23,0-0.36-0.12-0.36-0.36V55.8h-2.35c-0.23,0-0.36-0.12-0.36-0.36v-0.07
				c0-0.23,0.12-0.36,0.36-0.36h5.49c0.23,0,0.36,0.12,0.36,0.36v0.07c0,0.23-0.12,0.36-0.36,0.36h-2.33v6.83
				c0,0.23-0.12,0.36-0.36,0.36H189.75z"/>
			<path class="st1" d="M193.96,59.79c0-0.23,0.12-0.36,0.36-0.36h3.56c0.23,0,0.36,0.12,0.36,0.36v0.03c0,0.23-0.12,0.36-0.36,0.36
				h-3.56c-0.23,0-0.36-0.12-0.36-0.36V59.79z"/>
			<path class="st0" d="M199.85,60.11v-4.74c0-0.23,0.12-0.36,0.36-0.36h0.1c0.23,0,0.36,0.12,0.36,0.36v4.74
				c0,1.41,0.84,2.24,2.26,2.24c1.41,0,2.23-0.84,2.23-2.24v-4.74c0-0.23,0.12-0.36,0.36-0.36h0.1c0.23,0,0.36,0.12,0.36,0.36v4.74
				c0,1.92-1.13,3.06-3.05,3.06C200.99,63.17,199.85,62.03,199.85,60.11z"/>
			<path class="st0" d="M208.12,62.99c-0.23,0-0.36-0.12-0.36-0.36v-7.26c0-0.23,0.12-0.36,0.36-0.36h0.1
				c0.23,0,0.36,0.12,0.36,0.36v3.41l3.28-3.57c0.12-0.13,0.26-0.19,0.44-0.19h0.17c0.31,0,0.4,0.2,0.2,0.44l-2.77,3.07l3.44,4.03
				c0.2,0.23,0.11,0.44-0.2,0.44h-0.17c-0.19,0-0.32-0.06-0.45-0.2l-3.16-3.66L208.58,60v2.64c0,0.23-0.12,0.36-0.36,0.36H208.12z"
				/>
			<path class="st0" d="M222.32,62.99c-0.23,0-0.36-0.12-0.36-0.36v-5.75l-2.55,5.84c-0.09,0.18-0.21,0.27-0.42,0.27h-0.37
				c-0.21,0-0.34-0.09-0.42-0.27l-2.56-5.84v5.75c0,0.23-0.12,0.36-0.36,0.36h-0.1c-0.23,0-0.36-0.12-0.36-0.36v-7.26
				c0-0.23,0.12-0.36,0.36-0.36h0.27c0.21,0,0.33,0.09,0.42,0.27l2.93,6.81l2.93-6.81c0.09-0.18,0.21-0.27,0.42-0.27h0.27
				c0.23,0,0.36,0.12,0.36,0.36v7.26c0,0.23-0.12,0.36-0.36,0.36H222.32z"/>
		</g>
		<g>
			<path class="st0" d="M133.21,65.22c0.75,0,1.26,0.49,1.26,1.23c0,0.74-0.5,1.23-1.26,1.23h-0.89V69c0,0.12-0.06,0.18-0.18,0.18
				h-0.05c-0.12,0-0.18-0.06-0.18-0.18V65.4c0-0.12,0.06-0.18,0.18-0.18H133.21z M133.21,67.29c0.5,0,0.84-0.34,0.84-0.84
				c0-0.5-0.33-0.84-0.84-0.84h-0.89v1.69H133.21z"/>
			<path class="st0" d="M135.26,69.18c-0.12,0-0.18-0.06-0.18-0.18V65.4c0-0.12,0.06-0.18,0.18-0.18h1.94
				c0.12,0,0.18,0.06,0.18,0.18v0.03c0,0.12-0.06,0.18-0.18,0.18h-1.71v1.11h1.61c0.12,0,0.18,0.06,0.18,0.18v0.03
				c0,0.12-0.06,0.18-0.18,0.18h-1.61v1.69h1.71c0.12,0,0.18,0.06,0.18,0.18V69c0,0.12-0.06,0.18-0.18,0.18H135.26z"/>
			<path class="st0" d="M138.39,69.18c-0.12,0-0.18-0.06-0.18-0.18V65.4c0-0.12,0.06-0.18,0.18-0.18h0.18
				c0.09,0,0.16,0.03,0.21,0.11l2.4,3.29V65.4c0-0.12,0.06-0.18,0.18-0.18h0.05c0.12,0,0.18,0.06,0.18,0.18V69
				c0,0.12-0.06,0.18-0.18,0.18h-0.18c-0.09,0-0.16-0.03-0.21-0.11l-2.4-3.29V69c0,0.12-0.06,0.18-0.18,0.18H138.39z"/>
			<path class="st0" d="M142.65,69.18c-0.12,0-0.18-0.06-0.18-0.18V65.4c0-0.12,0.06-0.18,0.18-0.18h1.94
				c0.12,0,0.18,0.06,0.18,0.18v0.03c0,0.12-0.06,0.18-0.18,0.18h-1.71v1.11h1.61c0.12,0,0.18,0.06,0.18,0.18v0.03
				c0,0.12-0.06,0.18-0.18,0.18h-1.61v1.69h1.71c0.12,0,0.18,0.06,0.18,0.18V69c0,0.12-0.06,0.18-0.18,0.18H142.65z"/>
			<path class="st0" d="M145.66,69.18c-0.12,0-0.18-0.06-0.18-0.18V65.4c0-0.12,0.06-0.18,0.18-0.18h1.12
				c0.75,0,1.26,0.49,1.26,1.23c0,0.62-0.35,1.06-0.91,1.19l1.04,1.32c0.09,0.12,0.04,0.22-0.11,0.22h-0.13
				c-0.09,0-0.16-0.03-0.22-0.11l-1.1-1.39h-0.74V69c0,0.12-0.06,0.18-0.18,0.18H145.66z M146.78,67.29c0.5,0,0.84-0.34,0.84-0.84
				c0-0.5-0.33-0.84-0.84-0.84h-0.89v1.69H146.78z"/>
			<path class="st0" d="M148.85,69.18c-0.13,0-0.18-0.08-0.13-0.21l1.63-3.62c0.04-0.09,0.11-0.13,0.21-0.13h0.15
				c0.1,0,0.16,0.04,0.21,0.13l1.63,3.62c0.06,0.12,0,0.21-0.13,0.21h-0.07c-0.1,0-0.16-0.04-0.21-0.13l-0.65-1.44h-1.7l-0.65,1.44
				c-0.04,0.09-0.11,0.13-0.21,0.13H148.85z M150.63,65.71l-0.68,1.51h1.36L150.63,65.71z"/>
			<path class="st0" d="M152.35,70.05c0-0.11,0.06-0.17,0.17-0.18c0.59-0.06,0.94-0.47,0.94-1.1V65.4c0-0.12,0.06-0.18,0.18-0.18
				h0.05c0.12,0,0.18,0.06,0.18,0.18v3.37c0,0.89-0.49,1.44-1.33,1.51c-0.12,0.01-0.18-0.06-0.18-0.18V70.05z"/>
			<path class="st0" d="M154.64,67.75V65.4c0-0.12,0.06-0.18,0.18-0.18h0.05c0.12,0,0.18,0.06,0.18,0.18v2.35
				c0,0.7,0.42,1.11,1.12,1.11c0.7,0,1.11-0.42,1.11-1.11V65.4c0-0.12,0.06-0.18,0.18-0.18h0.05c0.12,0,0.18,0.06,0.18,0.18v2.35
				c0,0.95-0.56,1.52-1.51,1.52C155.2,69.27,154.64,68.7,154.64,67.75z"/>
			<path class="st0" d="M161.25,69.18c-0.12,0-0.18-0.06-0.18-0.18v-3.39h-1.16c-0.12,0-0.18-0.06-0.18-0.18V65.4
				c0-0.12,0.06-0.18,0.18-0.18h2.73c0.12,0,0.18,0.06,0.18,0.18v0.03c0,0.12-0.06,0.18-0.18,0.18h-1.16V69
				c0,0.12-0.06,0.18-0.18,0.18H161.25z"/>
			<path class="st0" d="M163.49,69.18c-0.12,0-0.18-0.06-0.18-0.18V65.4c0-0.12,0.06-0.18,0.18-0.18h1.12
				c0.75,0,1.26,0.49,1.26,1.23c0,0.62-0.35,1.06-0.91,1.19l1.04,1.32c0.09,0.12,0.04,0.22-0.11,0.22h-0.13
				c-0.09,0-0.16-0.03-0.22-0.11l-1.1-1.39h-0.74V69c0,0.12-0.06,0.18-0.18,0.18H163.49z M164.61,67.29c0.5,0,0.84-0.34,0.84-0.84
				c0-0.5-0.33-0.84-0.84-0.84h-0.89v1.69H164.61z"/>
			<path class="st0" d="M166.67,69.18c-0.13,0-0.18-0.08-0.13-0.21l1.63-3.62c0.04-0.09,0.11-0.13,0.21-0.13h0.15
				c0.1,0,0.16,0.04,0.21,0.13l1.63,3.62c0.06,0.12,0,0.21-0.13,0.21h-0.07c-0.1,0-0.16-0.04-0.21-0.13l-0.65-1.44h-1.7l-0.65,1.44
				c-0.04,0.09-0.11,0.13-0.21,0.13H166.67z M168.45,65.71l-0.68,1.51h1.36L168.45,65.71z"/>
			<path class="st0" d="M171.07,69.18c-0.12,0-0.18-0.06-0.18-0.18V65.4c0-0.12,0.06-0.18,0.18-0.18h0.18
				c0.09,0,0.16,0.03,0.21,0.11l2.4,3.29V65.4c0-0.12,0.06-0.18,0.18-0.18h0.05c0.12,0,0.18,0.06,0.18,0.18V69
				c0,0.12-0.06,0.18-0.18,0.18h-0.18c-0.09,0-0.16-0.03-0.21-0.11l-2.4-3.29V69c0,0.12-0.06,0.18-0.18,0.18H171.07z"/>
			<path class="st0" d="M176.96,66.03c-0.11,0-0.16-0.04-0.21-0.13c-0.12-0.19-0.34-0.33-0.59-0.33c-0.43,0-0.72,0.31-0.72,0.65
				s0.24,0.5,0.72,0.65c0.74,0.23,1.29,0.52,1.29,1.21c0,0.69-0.57,1.15-1.29,1.15c-0.59,0-1.08-0.35-1.24-0.87
				c-0.03-0.12,0.03-0.19,0.16-0.19h0.07c0.11,0,0.16,0.05,0.2,0.15c0.13,0.3,0.44,0.5,0.81,0.5c0.48,0,0.87-0.28,0.87-0.74
				c0-0.37-0.24-0.57-0.87-0.76c-0.74-0.23-1.14-0.5-1.14-1.1c0-0.6,0.45-1.06,1.14-1.06c0.48,0,0.88,0.27,1.04,0.67
				c0.04,0.12-0.02,0.2-0.15,0.2H176.96z"/>
			<path class="st0" d="M178.23,69.18c-0.12,0-0.18-0.06-0.18-0.18V65.4c0-0.12,0.06-0.18,0.18-0.18h1.78
				c0.12,0,0.18,0.06,0.18,0.18v0.03c0,0.12-0.06,0.18-0.18,0.18h-1.55v1.11h1.43c0.12,0,0.18,0.06,0.18,0.18v0.03
				c0,0.12-0.06,0.18-0.18,0.18h-1.43V69c0,0.12-0.06,0.18-0.18,0.18H178.23z"/>
			<path class="st0" d="M184.57,67.17c0,1.13-0.93,2.05-2.06,2.05c-1.14,0-2.06-0.92-2.06-2.05c0-1.09,0.93-2.01,2.06-2.01
				C183.64,65.16,184.57,66.08,184.57,67.17z M184.15,67.17c0-0.87-0.73-1.6-1.64-1.6c-0.92,0-1.64,0.73-1.64,1.6
				c0,0.92,0.73,1.65,1.64,1.65C183.42,68.82,184.15,68.09,184.15,67.17z"/>
			<path class="st0" d="M185.38,69.18c-0.12,0-0.18-0.06-0.18-0.18V65.4c0-0.12,0.06-0.18,0.18-0.18h1.12
				c0.75,0,1.26,0.49,1.26,1.23c0,0.62-0.35,1.06-0.91,1.19l1.04,1.32c0.09,0.12,0.04,0.22-0.11,0.22h-0.13
				c-0.09,0-0.16-0.03-0.22-0.11l-1.1-1.39h-0.74V69c0,0.12-0.06,0.18-0.18,0.18H185.38z M186.5,67.29c0.5,0,0.84-0.34,0.84-0.84
				c0-0.5-0.33-0.84-0.84-0.84h-0.89v1.69H186.5z"/>
			<path class="st0" d="M192.29,69.18c-0.12,0-0.18-0.06-0.18-0.18v-2.86l-1.26,2.9c-0.04,0.09-0.11,0.13-0.21,0.13h-0.18
				c-0.11,0-0.17-0.04-0.21-0.13l-1.27-2.9V69c0,0.12-0.06,0.18-0.18,0.18h-0.05c-0.12,0-0.18-0.06-0.18-0.18V65.4
				c0-0.12,0.06-0.18,0.18-0.18h0.13c0.11,0,0.17,0.04,0.21,0.13l1.45,3.38l1.45-3.38c0.04-0.09,0.11-0.13,0.21-0.13h0.13
				c0.12,0,0.18,0.06,0.18,0.18V69c0,0.12-0.06,0.18-0.18,0.18H192.29z"/>
			<path class="st0" d="M193.18,69.18c-0.13,0-0.18-0.08-0.13-0.21l1.63-3.62c0.04-0.09,0.11-0.13,0.21-0.13h0.15
				c0.1,0,0.16,0.04,0.21,0.13l1.63,3.62c0.06,0.12,0,0.21-0.13,0.21h-0.07c-0.1,0-0.16-0.04-0.21-0.13l-0.65-1.44h-1.7l-0.65,1.44
				c-0.04,0.09-0.11,0.13-0.21,0.13H193.18z M194.96,65.71l-0.68,1.51h1.36L194.96,65.71z"/>
			<path class="st0" d="M199.21,66.03c-0.11,0-0.16-0.04-0.21-0.13c-0.12-0.19-0.34-0.33-0.59-0.33c-0.43,0-0.72,0.31-0.72,0.65
				s0.24,0.5,0.72,0.65c0.74,0.23,1.29,0.52,1.29,1.21c0,0.69-0.57,1.15-1.29,1.15c-0.59,0-1.08-0.35-1.24-0.87
				c-0.03-0.12,0.03-0.19,0.16-0.19h0.07c0.11,0,0.16,0.05,0.2,0.15c0.13,0.3,0.44,0.5,0.81,0.5c0.48,0,0.87-0.28,0.87-0.74
				c0-0.37-0.24-0.57-0.87-0.76c-0.74-0.23-1.14-0.5-1.14-1.1c0-0.6,0.45-1.06,1.14-1.06c0.48,0,0.88,0.27,1.04,0.67
				c0.04,0.12-0.02,0.2-0.15,0.2H199.21z"/>
			<path class="st0" d="M200.48,69.18c-0.12,0-0.18-0.06-0.18-0.18V65.4c0-0.12,0.06-0.18,0.18-0.18h0.05
				c0.12,0,0.18,0.06,0.18,0.18V69c0,0.12-0.06,0.18-0.18,0.18H200.48z"/>
			<path class="st0" d="M203.44,69.18c-0.12,0-0.18-0.06-0.18-0.18V65.4c0-0.12,0.06-0.18,0.18-0.18h0.88
				c1.44,0,2.01,0.57,2.01,1.98c0,1.41-0.58,1.98-2.01,1.98H203.44z M204.32,68.79c1.14,0,1.59-0.45,1.59-1.59
				c0-1.14-0.45-1.59-1.59-1.59h-0.65v3.18H204.32z"/>
			<path class="st0" d="M207.17,69.18c-0.12,0-0.18-0.06-0.18-0.18V65.4c0-0.12,0.06-0.18,0.18-0.18h0.05
				c0.12,0,0.18,0.06,0.18,0.18V69c0,0.12-0.06,0.18-0.18,0.18H207.17z"/>
			<path class="st0" d="M208.01,67.18c0-1.09,0.93-2.01,2.07-2.01c0.68,0,1.25,0.33,1.63,0.82c0.09,0.12,0.03,0.22-0.12,0.22h-0.06
				c-0.09,0-0.16-0.03-0.22-0.1c-0.31-0.33-0.75-0.53-1.23-0.53c-0.91,0-1.65,0.73-1.65,1.6c0,0.91,0.73,1.65,1.65,1.65
				c0.58,0,1.09-0.3,1.39-0.75v-0.72c0-0.12,0.06-0.18,0.18-0.18h0.05c0.12,0,0.18,0.06,0.18,0.18V69c0,0.12-0.06,0.18-0.18,0.18
				h-0.05c-0.12,0-0.18-0.06-0.18-0.18V68.7c-0.37,0.33-0.85,0.53-1.39,0.53C208.94,69.23,208.01,68.31,208.01,67.18z"/>
			<path class="st0" d="M212.88,69.18c-0.12,0-0.18-0.06-0.18-0.18V65.4c0-0.12,0.06-0.18,0.18-0.18h0.05
				c0.12,0,0.18,0.06,0.18,0.18V69c0,0.12-0.06,0.18-0.18,0.18H212.88z"/>
			<path class="st0" d="M215.12,69.18c-0.12,0-0.18-0.06-0.18-0.18v-3.39h-1.16c-0.12,0-0.18-0.06-0.18-0.18V65.4
				c0-0.12,0.06-0.18,0.18-0.18h2.73c0.12,0,0.18,0.06,0.18,0.18v0.03c0,0.12-0.06,0.18-0.18,0.18h-1.16V69
				c0,0.12-0.06,0.18-0.18,0.18H215.12z"/>
			<path class="st0" d="M216.69,69.18c-0.13,0-0.18-0.08-0.13-0.21l1.63-3.62c0.04-0.09,0.11-0.13,0.21-0.13h0.15
				c0.1,0,0.16,0.04,0.21,0.13l1.63,3.62c0.06,0.12,0,0.21-0.13,0.21h-0.07c-0.1,0-0.16-0.04-0.21-0.13l-0.65-1.44h-1.7l-0.65,1.44
				c-0.04,0.09-0.11,0.13-0.21,0.13H216.69z M218.47,65.71l-0.68,1.51h1.36L218.47,65.71z"/>
			<path class="st0" d="M220.98,69.18c-0.12,0-0.18-0.06-0.18-0.18V65.4c0-0.12,0.06-0.18,0.18-0.18h0.05
				c0.12,0,0.18,0.06,0.18,0.18v3.39h1.65c0.12,0,0.18,0.06,0.18,0.18V69c0,0.12-0.06,0.18-0.18,0.18H220.98z"/>
		</g>
		<g>
			<path class="st1" d="M134.77,53.37c-0.23,0-0.36-0.12-0.36-0.36v-6.83h-2.35c-0.23,0-0.36-0.12-0.36-0.36v-0.07
				c0-0.23,0.12-0.36,0.36-0.36h5.49c0.23,0,0.36,0.12,0.36,0.36v0.07c0,0.23-0.12,0.36-0.36,0.36h-2.33v6.83
				c0,0.23-0.12,0.36-0.36,0.36H134.77z"/>
			<path class="st1" d="M139.5,53.37c-0.23,0-0.36-0.12-0.36-0.36v-7.26c0-0.23,0.12-0.36,0.36-0.36h3.91
				c0.23,0,0.36,0.12,0.36,0.36v0.07c0,0.23-0.12,0.36-0.36,0.36h-3.45v2.23h3.24c0.23,0,0.36,0.12,0.36,0.36v0.07
				c0,0.23-0.12,0.36-0.36,0.36h-3.24v3.4h3.45c0.23,0,0.36,0.12,0.36,0.36v0.07c0,0.23-0.12,0.36-0.36,0.36H139.5z"/>
			<path class="st1" d="M146.02,53.37c-0.23,0-0.36-0.12-0.36-0.36v-7.26c0-0.23,0.12-0.36,0.36-0.36h0.1
				c0.23,0,0.36,0.12,0.36,0.36v3.41l3.28-3.57c0.12-0.13,0.26-0.19,0.44-0.19h0.17c0.31,0,0.4,0.2,0.2,0.44l-2.77,3.07l3.44,4.03
				c0.2,0.23,0.11,0.44-0.2,0.44h-0.17c-0.19,0-0.32-0.06-0.45-0.2l-3.16-3.66l-0.78,0.87v2.64c0,0.23-0.12,0.36-0.36,0.36H146.02z"
				/>
			<path class="st1" d="M153.09,53.37c-0.23,0-0.36-0.12-0.36-0.36v-7.26c0-0.23,0.12-0.36,0.36-0.36h0.36
				c0.19,0,0.31,0.07,0.42,0.22l4.84,6.63v-6.5c0-0.23,0.12-0.36,0.36-0.36h0.1c0.23,0,0.36,0.12,0.36,0.36v7.26
				c0,0.23-0.12,0.36-0.36,0.36h-0.36c-0.19,0-0.31-0.07-0.42-0.22l-4.84-6.63v6.5c0,0.23-0.12,0.36-0.36,0.36H153.09z"/>
			<path class="st1" d="M169.34,49.32c0,2.28-1.87,4.13-4.15,4.13c-2.29,0-4.15-1.85-4.15-4.13c0-2.19,1.87-4.04,4.15-4.04
				C167.48,45.28,169.34,47.14,169.34,49.32z M168.49,49.32c0-1.75-1.46-3.23-3.31-3.23c-1.84,0-3.31,1.47-3.31,3.23
				c0,1.84,1.46,3.32,3.31,3.32C167.03,52.64,168.49,51.17,168.49,49.32z"/>
			<path class="st1" d="M171.21,53.37c-0.23,0-0.36-0.12-0.36-0.36v-7.26c0-0.23,0.12-0.36,0.36-0.36h0.1
				c0.23,0,0.36,0.12,0.36,0.36v6.84h3.32c0.23,0,0.36,0.12,0.36,0.36v0.07c0,0.23-0.12,0.36-0.36,0.36H171.21z"/>
			<path class="st1" d="M184.04,49.32c0,2.28-1.86,4.13-4.15,4.13c-2.29,0-4.15-1.85-4.15-4.13c0-2.19,1.87-4.04,4.15-4.04
				C182.17,45.28,184.04,47.14,184.04,49.32z M183.19,49.32c0-1.75-1.46-3.23-3.31-3.23c-1.84,0-3.31,1.47-3.31,3.23
				c0,1.84,1.46,3.32,3.31,3.32C181.73,52.64,183.19,51.17,183.19,49.32z"/>
			<path class="st1" d="M184.99,49.34c0-2.19,1.88-4.04,4.17-4.04c1.36,0,2.52,0.66,3.27,1.65c0.18,0.23,0.06,0.44-0.23,0.44h-0.12
				c-0.19,0-0.31-0.07-0.44-0.2c-0.61-0.66-1.51-1.07-2.48-1.07c-1.84,0-3.32,1.47-3.32,3.23c0,1.84,1.47,3.32,3.32,3.32
				c1.17,0,2.2-0.6,2.79-1.52v-1.44c0-0.23,0.12-0.36,0.36-0.36h0.1c0.23,0,0.36,0.12,0.36,0.36v3.32c0,0.23-0.12,0.36-0.36,0.36
				h-0.1c-0.23,0-0.36-0.12-0.36-0.36V52.4c-0.74,0.67-1.72,1.07-2.79,1.07C186.86,53.47,184.99,51.61,184.99,49.34z"/>
			<path class="st1" d="M195.01,53.37c-0.23,0-0.36-0.12-0.36-0.36v-7.26c0-0.23,0.12-0.36,0.36-0.36h0.1
				c0.23,0,0.36,0.12,0.36,0.36v7.26c0,0.23-0.12,0.36-0.36,0.36H195.01z"/>
		</g>
		<g>
			<path class="st1" d="M135.1,35.22c1.52,0,2.55,0.99,2.55,2.48c0,1.49-1.02,2.48-2.55,2.48h-1.8v2.66c0,0.23-0.12,0.36-0.36,0.36
				h-0.1c-0.23,0-0.36-0.12-0.36-0.36v-7.26c0-0.23,0.12-0.36,0.36-0.36H135.1z M135.1,39.4c1.02,0,1.7-0.68,1.7-1.7
				c0-1.02-0.67-1.7-1.7-1.7h-1.8v3.4H135.1z"/>
			<path class="st1" d="M138.88,40.31v-4.74c0-0.23,0.12-0.36,0.36-0.36h0.1c0.23,0,0.36,0.12,0.36,0.36v4.74
				c0,1.41,0.84,2.24,2.26,2.24c1.41,0,2.23-0.84,2.23-2.24v-4.74c0-0.23,0.12-0.36,0.36-0.36h0.1c0.23,0,0.36,0.12,0.36,0.36v4.74
				c0,1.92-1.13,3.06-3.05,3.06C140.02,43.37,138.88,42.23,138.88,40.31z"/>
			<path class="st1" d="M150.42,36.85c-0.21,0-0.32-0.09-0.42-0.27c-0.23-0.39-0.69-0.67-1.18-0.67c-0.87,0-1.44,0.63-1.44,1.32
				c0,0.69,0.48,1.01,1.44,1.31c1.49,0.47,2.59,1.05,2.59,2.45c0,1.4-1.15,2.31-2.59,2.31c-1.18,0-2.18-0.71-2.49-1.74
				c-0.07-0.25,0.07-0.39,0.32-0.39h0.13c0.21,0,0.32,0.1,0.4,0.3c0.26,0.6,0.88,1.02,1.63,1.02c0.97,0,1.74-0.57,1.74-1.5
				c0-0.74-0.48-1.14-1.74-1.53c-1.49-0.46-2.29-1.02-2.29-2.22c0-1.21,0.92-2.13,2.29-2.13c0.96,0,1.78,0.55,2.09,1.35
				c0.09,0.25-0.04,0.4-0.3,0.4H150.42z"/>
			<path class="st1" d="M152.41,43.19c-0.27,0-0.37-0.17-0.26-0.41l3.27-7.29c0.09-0.18,0.21-0.27,0.41-0.27h0.3
				c0.2,0,0.32,0.09,0.41,0.27l3.27,7.29c0.11,0.25,0,0.41-0.27,0.41h-0.13c-0.2,0-0.32-0.09-0.41-0.27l-1.31-2.9h-3.43l-1.31,2.9
				c-0.09,0.18-0.21,0.27-0.41,0.27H152.41z M156,36.2l-1.37,3.04h2.74L156,36.2z"/>
			<path class="st1" d="M162.29,43.19c-0.23,0-0.36-0.12-0.36-0.36V36h-2.35c-0.23,0-0.36-0.12-0.36-0.36v-0.07
				c0-0.23,0.12-0.36,0.36-0.36h5.49c0.23,0,0.36,0.12,0.36,0.36v0.07c0,0.23-0.12,0.36-0.36,0.36h-2.33v6.84
				c0,0.23-0.12,0.36-0.36,0.36H162.29z"/>
		</g>
	</g>
	<path class="st1" d="M114.8,34.19h-0.47h-0.84h-0.47c-4.07,0-7.71,1.8-10.18,4.65c-2.47-2.84-6.11-4.65-10.17-4.65h-1.19h0h-0.47
		h-0.47v0.01c-3.88,0.13-7.33,1.9-9.71,4.64c-2.47-2.84-6.11-4.65-10.17-4.65h-0.88v6.59h0.99c3.75,0,6.79,3.04,6.79,6.79v21.86l0,0
		c3.64,0,6.59-2.95,6.59-6.59V47.69c0-0.15-0.02-0.29-0.02-0.44c0.17-3.6,3.13-6.46,6.77-6.46h0.58h0h1.31
		c3.75,0,6.79,3.04,6.79,6.79v15.23c0,3.64,2.95,6.59,6.59,6.59V47.69c0-0.15-0.02-0.29-0.02-0.44c0.17-3.6,3.13-6.46,6.77-6.46
		h0.58h0.84h0.58c3.75,0,6.79,3.04,6.79,6.79v15.23c0,3.64,2.95,6.59,6.59,6.59V47.69C128.29,40.24,122.25,34.19,114.8,34.19z"/>
</g>
</svg>
