<?xml version="1.0" encoding="UTF-8" standalone="no"?>
<svg
   xml:space="preserve"
   enable-background="new 0 0 16 16"
   viewBox="0 0 16 16"
   height="16px"
   width="16px"
   y="0px"
   x="0px"
   id="Layer_1"
   version="1.1"
   sodipodi:docname="icon-publication.svg"
   inkscape:version="1.4 (1:1.4+202410161351+e7c3feb100)"
   xmlns:inkscape="http://www.inkscape.org/namespaces/inkscape"
   xmlns:sodipodi="http://sodipodi.sourceforge.net/DTD/sodipodi-0.dtd"
   xmlns="http://www.w3.org/2000/svg"
   xmlns:svg="http://www.w3.org/2000/svg"
   xmlns:rdf="http://www.w3.org/1999/02/22-rdf-syntax-ns#"
   xmlns:cc="http://creativecommons.org/ns#"
   xmlns:dc="http://purl.org/dc/elements/1.1/"><sodipodi:namedview
     id="namedview1"
     pagecolor="#ffffff"
     bordercolor="#000000"
     borderopacity="0.25"
     inkscape:showpageshadow="2"
     inkscape:pageopacity="0.0"
     inkscape:pagecheckerboard="0"
     inkscape:deskcolor="#d1d1d1"
     inkscape:zoom="49.9375"
     inkscape:cx="7.9899875"
     inkscape:cy="8"
     inkscape:window-width="1920"
     inkscape:window-height="1008"
     inkscape:window-x="0"
     inkscape:window-y="0"
     inkscape:window-maximized="1"
     inkscape:current-layer="g3" /><metadata
     id="metadata11"><rdf:RDF><cc:Work
         rdf:about=""><dc:format>image/svg+xml</dc:format><dc:type
           rdf:resource="http://purl.org/dc/dcmitype/StillImage" /><dc:title /></cc:Work></rdf:RDF></metadata><defs
     id="defs9" /><g
     id="g3"><path
       style="fill:#ff2ad4;fill-opacity:1"
       id="path5"
       d="M15.843,5.029l-2.608,9.339c-0.235,0.877-1.07,1.558-1.887,1.558h-8.76c-0.968,0-2.002-0.834-2.354-1.906   c-0.152-0.463-0.152-0.918-0.019-1.31c0.019-0.206,0.057-0.414,0.066-0.66c0.01-0.165-0.076-0.298-0.056-0.424   c0.038-0.246,0.237-0.421,0.389-0.701c0.285-0.515,0.607-1.35,0.711-1.886c0.048-0.196-0.047-0.422,0-0.598   c0.048-0.195,0.229-0.34,0.323-0.526C1.904,7.441,2.236,6.523,2.284,6.04c0.019-0.216-0.076-0.454-0.02-0.619   C2.33,5.184,2.54,5.081,2.682,4.875C2.91,4.534,3.29,3.555,3.346,3.008c0.02-0.175-0.075-0.35-0.046-0.536   c0.038-0.196,0.265-0.401,0.417-0.639c0.399-0.639,0.474-2.051,1.68-1.681l-0.01,0.032c0.161-0.041,0.322-0.093,0.484-0.093h7.221   c0.446,0,0.846,0.216,1.082,0.577c0.247,0.372,0.305,0.856,0.172,1.34l-2.601,9.342c-0.444,1.588-0.69,1.938-1.897,1.938H1.601   c-0.124,0-0.276,0.03-0.36,0.153c-0.077,0.125-0.086,0.218-0.01,0.443c0.19,0.598,0.845,0.723,1.367,0.723h8.757   c0.353,0,0.762-0.217,0.863-0.588l2.848-10.176c0.058-0.196,0.058-0.402,0.047-0.588c0.219,0.093,0.416,0.237,0.562,0.444   C15.912,4.069,15.979,4.555,15.843,5.029z M4.998,6.689h5.771c0.16,0,0.34-0.145,0.397-0.331l0.199-0.66   c0.056-0.185-0.038-0.33-0.21-0.33H5.387c-0.162,0-0.342,0.145-0.399,0.33L4.79,6.358C4.732,6.544,4.828,6.689,4.998,6.689z    M5.786,4.049h5.769c0.162,0,0.344-0.144,0.398-0.33l0.199-0.66c0.059-0.186-0.036-0.33-0.207-0.33H6.175   c-0.162,0-0.342,0.144-0.399,0.33l-0.199,0.66C5.52,3.905,5.615,4.049,5.786,4.049z"
       fill="#996699" /></g></svg>
