<?xml version="1.0" encoding="UTF-8" standalone="no"?>
<!-- Generator: Adobe Illustrator 27.7.0, SVG Export Plug-In . SVG Version: 6.00 Build 0)  -->

<svg
   version="1.1"
   id="Layer_1"
   x="0px"
   y="0px"
   width="16px"
   height="16px"
   viewBox="0 0 16 16"
   style="enable-background:new 0 0 16 16;"
   xml:space="preserve"
   sodipodi:docname="icon-kelestarian.svg"
   inkscape:version="1.4 (1:1.4+202410161351+e7c3feb100)"
   xmlns:inkscape="http://www.inkscape.org/namespaces/inkscape"
   xmlns:sodipodi="http://sodipodi.sourceforge.net/DTD/sodipodi-0.dtd"
   xmlns="http://www.w3.org/2000/svg"
   xmlns:svg="http://www.w3.org/2000/svg"><defs
   id="defs1" /><sodipodi:namedview
   id="namedview1"
   pagecolor="#ffffff"
   bordercolor="#000000"
   borderopacity="0.25"
   inkscape:showpageshadow="2"
   inkscape:pageopacity="0.0"
   inkscape:pagecheckerboard="0"
   inkscape:deskcolor="#d1d1d1"
   inkscape:zoom="49.9375"
   inkscape:cx="7.9899875"
   inkscape:cy="8"
   inkscape:window-width="1920"
   inkscape:window-height="1008"
   inkscape:window-x="0"
   inkscape:window-y="0"
   inkscape:window-maximized="1"
   inkscape:current-layer="g1" />
<style
   type="text/css"
   id="style1">
	.st0{fill:#008FFF;}
</style>
<g
   id="g1">
	<path
   class="st0"
   d="M0,8c0-2.9,1.5-5.5,4-6.9s5.5-1.4,8,0s4,4.1,4,6.9s-1.5,5.5-4,6.9s-5.5,1.4-8,0S0,10.9,0,8z M1.6,9.2l1,0.2   c0.2,0.1,0.5,0,0.7-0.2l0.5-0.5c0.4-0.4,1-0.3,1.2,0.2l0.3,0.6C5.4,9.8,5.7,10,6.1,10c0.5,0,0.8-0.5,0.7-0.9L6.5,8.5   c-0.1-0.5,0.2-1,0.7-1h0.1c0.4,0,0.8-0.2,1-0.6l0.3-0.5c0.2-0.3,0.2-0.6,0-0.9L8.2,4.9c-0.3-0.4-0.1-1,0.4-1.2l0.5-0.1   c0.2-0.1,0.4-0.2,0.5-0.5l0.5-1.3C9.5,1.6,8.8,1.5,8,1.5C4.4,1.5,1.5,4.4,1.5,8C1.5,8.4,1.5,8.8,1.6,9.2z M4.5,10.9   c-0.1,0.3,0.1,0.5,0.4,0.6l1,0.2c0.3,0.1,0.5-0.1,0.6-0.4s-0.1-0.5-0.4-0.6l-1-0.2C4.9,10.5,4.6,10.6,4.5,10.9z M7.4,10.3   c-0.1,0.3,0.1,0.5,0.4,0.6s0.5-0.1,0.6-0.4l0.2-1C8.7,9.2,8.5,9,8.2,8.9C8,8.8,7.7,9,7.6,9.3L7.4,10.3z M14.4,9.4   c-0.1,0-0.2,0-0.3,0l-0.5,0.1c-0.2,0.1-0.4,0-0.5-0.2L13,9.2c-0.2-0.3-0.5-0.5-0.9-0.5s-0.7,0.2-0.9,0.5L11,9.5   c0,0.1-0.1,0.1-0.2,0.2l-1.1,0.6c-0.6,0.3-0.8,1-0.5,1.6l0.2,0.4c0.3,0.6,1,0.9,1.6,0.7h0.1c0.3-0.1,0.7-0.1,0.9,0.1l0,0   C13.2,12.2,14,10.9,14.4,9.4L14.4,9.4z M10.7,3.6c-0.2-0.1-0.5,0-0.7,0.2l-0.5,1C9.4,5,9.5,5.3,9.8,5.5c0.2,0.1,0.5,0,0.7-0.2   l0.5-1C11.1,4,11,3.7,10.7,3.6z"
   id="path1"
   style="fill:#ff2ad4;fill-opacity:1" />
</g>
</svg>
