<?xml version="1.0" encoding="UTF-8" standalone="no"?>
<svg
   xml:space="preserve"
   enable-background="new 0 0 16 16"
   viewBox="0 0 16 16"
   height="16px"
   width="16px"
   y="0px"
   x="0px"
   id="Layer_1"
   version="1.1"
   sodipodi:docname="icon-appreciation.svg"
   inkscape:version="1.4 (1:1.4+202410161351+e7c3feb100)"
   xmlns:inkscape="http://www.inkscape.org/namespaces/inkscape"
   xmlns:sodipodi="http://sodipodi.sourceforge.net/DTD/sodipodi-0.dtd"
   xmlns="http://www.w3.org/2000/svg"
   xmlns:svg="http://www.w3.org/2000/svg"
   xmlns:rdf="http://www.w3.org/1999/02/22-rdf-syntax-ns#"
   xmlns:cc="http://creativecommons.org/ns#"
   xmlns:dc="http://purl.org/dc/elements/1.1/"><sodipodi:namedview
     id="namedview1"
     pagecolor="#ffffff"
     bordercolor="#000000"
     borderopacity="0.25"
     inkscape:showpageshadow="2"
     inkscape:pageopacity="0.0"
     inkscape:pagecheckerboard="0"
     inkscape:deskcolor="#d1d1d1"
     inkscape:zoom="49.9375"
     inkscape:cx="7.9899875"
     inkscape:cy="8"
     inkscape:window-width="1920"
     inkscape:window-height="1008"
     inkscape:window-x="0"
     inkscape:window-y="0"
     inkscape:window-maximized="1"
     inkscape:current-layer="Layer_1" /><metadata
     id="metadata11"><rdf:RDF><cc:Work
         rdf:about=""><dc:format>image/svg+xml</dc:format><dc:type
           rdf:resource="http://purl.org/dc/dcmitype/StillImage" /><dc:title /></cc:Work></rdf:RDF></metadata><defs
     id="defs9" /><g
     style="fill:#ff2ad4;fill-opacity:1"
     id="g3"><path
       style="fill:#ff2ad4;fill-opacity:1"
       id="path5"
       d="M15.665,6.662l-3.447,3.508l0.817,4.958c0.01,0.067,0.01,0.129,0.01,0.197c0,0.257-0.112,0.497-0.39,0.497   c-0.132,0-0.266-0.051-0.38-0.12l-4.264-2.34l-4.263,2.34c-0.125,0.069-0.248,0.12-0.381,0.12c-0.273,0-0.398-0.24-0.398-0.497   c0-0.068,0.009-0.13,0.02-0.197l0.816-4.958L0.349,6.662C0.235,6.533,0.111,6.364,0.111,6.186c0-0.297,0.293-0.416,0.532-0.456   l4.766-0.724l2.137-4.511c0.085-0.188,0.248-0.407,0.465-0.407c0.218,0,0.38,0.219,0.466,0.407l2.138,4.511l4.766,0.724   c0.229,0.04,0.533,0.159,0.533,0.456C15.914,6.364,15.789,6.533,15.665,6.662z"
       fill="#996699" /></g></svg>
