<?xml version="1.0" encoding="UTF-8" standalone="no"?>
<svg
   xml:space="preserve"
   enable-background="new 0 0 16 16"
   viewBox="0 0 16 16"
   height="16px"
   width="16px"
   y="0px"
   x="0px"
   id="Layer_1"
   version="1.1"
   sodipodi:docname="icon-slideshow.svg"
   inkscape:version="1.4 (1:1.4+202410161351+e7c3feb100)"
   xmlns:inkscape="http://www.inkscape.org/namespaces/inkscape"
   xmlns:sodipodi="http://sodipodi.sourceforge.net/DTD/sodipodi-0.dtd"
   xmlns="http://www.w3.org/2000/svg"
   xmlns:svg="http://www.w3.org/2000/svg"
   xmlns:rdf="http://www.w3.org/1999/02/22-rdf-syntax-ns#"
   xmlns:cc="http://creativecommons.org/ns#"
   xmlns:dc="http://purl.org/dc/elements/1.1/"><sodipodi:namedview
     id="namedview1"
     pagecolor="#ffffff"
     bordercolor="#000000"
     borderopacity="0.25"
     inkscape:showpageshadow="2"
     inkscape:pageopacity="0.0"
     inkscape:pagecheckerboard="0"
     inkscape:deskcolor="#d1d1d1"
     inkscape:zoom="49.9375"
     inkscape:cx="7.9899875"
     inkscape:cy="8"
     inkscape:window-width="1920"
     inkscape:window-height="1008"
     inkscape:window-x="0"
     inkscape:window-y="0"
     inkscape:window-maximized="1"
     inkscape:current-layer="g3" /><metadata
     id="metadata11"><rdf:RDF><cc:Work
         rdf:about=""><dc:format>image/svg+xml</dc:format><dc:type
           rdf:resource="http://purl.org/dc/dcmitype/StillImage" /><dc:title /></cc:Work></rdf:RDF></metadata><defs
     id="defs9" /><g
     id="g3"><path
       style="fill:#ff2ad4;fill-opacity:1"
       id="path5"
       d="M16,14.333C16,15.25,15.4,16,14.666,16H1.333C0.6,16,0,15.25,0,14.333V1.667C0,0.75,0.6,0,1.333,0h13.333   C15.4,0,16,0.75,16,1.667V14.333z M1.333,1.333c-0.141,0-0.267,0.156-0.267,0.333v12.666c0,0.177,0.125,0.334,0.267,0.334h13.333   c0.143,0,0.268-0.157,0.268-0.334V1.667c0-0.178-0.125-0.333-0.268-0.333L1.333,1.333L1.333,1.333z M3.733,6.667   c-0.883,0-1.6-0.896-1.6-2s0.716-2,1.6-2c0.884,0,1.601,0.896,1.601,2C5.334,5.77,4.617,6.667,3.733,6.667z M13.867,13.333H2.133   v-2.001L4.799,8l1.334,1.667L10.4,4.333l3.467,4.333V13.333z"
       fill="#996699" /></g></svg>
