<?xml version="1.0" encoding="UTF-8" standalone="no"?>
<svg
   xml:space="preserve"
   enable-background="new 0 0 16 16"
   viewBox="0 0 16 16"
   height="16px"
   width="16px"
   y="0px"
   x="0px"
   id="Layer_1"
   version="1.1"
   sodipodi:docname="icon-expertise.svg"
   inkscape:version="1.4 (1:1.4+202410161351+e7c3feb100)"
   xmlns:inkscape="http://www.inkscape.org/namespaces/inkscape"
   xmlns:sodipodi="http://sodipodi.sourceforge.net/DTD/sodipodi-0.dtd"
   xmlns="http://www.w3.org/2000/svg"
   xmlns:svg="http://www.w3.org/2000/svg"
   xmlns:rdf="http://www.w3.org/1999/02/22-rdf-syntax-ns#"
   xmlns:cc="http://creativecommons.org/ns#"
   xmlns:dc="http://purl.org/dc/elements/1.1/"><sodipodi:namedview
     id="namedview1"
     pagecolor="#ffffff"
     bordercolor="#000000"
     borderopacity="0.25"
     inkscape:showpageshadow="2"
     inkscape:pageopacity="0.0"
     inkscape:pagecheckerboard="0"
     inkscape:deskcolor="#d1d1d1"
     inkscape:zoom="49.9375"
     inkscape:cx="7.9899875"
     inkscape:cy="8"
     inkscape:window-width="1920"
     inkscape:window-height="1008"
     inkscape:window-x="0"
     inkscape:window-y="0"
     inkscape:window-maximized="1"
     inkscape:current-layer="g3" /><metadata
     id="metadata11"><rdf:RDF><cc:Work
         rdf:about=""><dc:format>image/svg+xml</dc:format><dc:type
           rdf:resource="http://purl.org/dc/dcmitype/StillImage" /><dc:title /></cc:Work></rdf:RDF></metadata><defs
     id="defs9" /><g
     id="g3"><path
       style="fill:#ff2ad4;fill-opacity:1"
       id="path5"
       d="M12.959,16H3.033C1.215,16,0,14.999,0,13.301c0-2.072,0.455-5.343,3.158-5.885   c-0.182,0.396-0.25,0.823-0.25,1.25v2.115c-0.874,0.281-1.454,1.041-1.454,1.885c0,1.104,0.977,2,2.181,2   c1.204,0,2.181-0.896,2.181-2c0-0.844-0.59-1.604-1.454-1.885V8.667c0-0.344,0.034-0.687,0.284-0.969   C5.6,8.386,6.781,8.781,7.997,8.781s2.396-0.396,3.351-1.084c0.25,0.282,0.284,0.625,0.284,0.969v0.667   c-1.601,0-2.907,1.198-2.907,2.667v0.926c-0.228,0.188-0.364,0.459-0.364,0.74c0,0.553,0.489,1.001,1.09,1.001   c0.601,0,1.09-0.448,1.09-1.001c0-0.281-0.137-0.551-0.363-0.74V12c0-0.729,0.657-1.333,1.454-1.333   c0.795,0,1.454,0.604,1.454,1.333v0.926c-0.229,0.188-0.363,0.459-0.363,0.74c0,0.553,0.488,1.001,1.09,1.001   c0.603,0,1.09-0.448,1.09-1.001c0-0.281-0.135-0.551-0.362-0.74V12c0-0.948-0.558-1.834-1.454-2.302   c0-0.761,0.079-1.573-0.25-2.281c2.702,0.541,3.158,3.812,3.158,5.885C15.993,14.999,14.777,16,12.959,16z M3.635,13.333   c-0.397,0-0.727-0.302-0.727-0.667S3.237,12,3.635,12c0.398,0,0.727,0.302,0.727,0.667S4.032,13.333,3.635,13.333z M7.997,8   C5.589,8,3.635,6.208,3.635,4s1.954-4,4.362-4c2.407,0,4.36,1.792,4.36,4S10.404,8,7.997,8z"
       fill="#996699" /></g></svg>
