<?xml version="1.0" encoding="utf-8"?>
<!-- Generator: Adobe Illustrator 26.0.2, SVG Export Plug-In . SVG Version: 6.00 Build 0)  -->
<svg version="1.1"
	 id="Layer_1" xmlns:cc="http://creativecommons.org/ns#" xmlns:dc="http://purl.org/dc/elements/1.1/" xmlns:rdf="http://www.w3.org/1999/02/22-rdf-syntax-ns#" xmlns:svg="http://www.w3.org/2000/svg"
	 xmlns="http://www.w3.org/2000/svg" xmlns:xlink="http://www.w3.org/1999/xlink" x="0px" y="0px" viewBox="0 0 600 337.6"
	 style="enable-background:new 0 0 600 337.6;" xml:space="preserve">
<style type="text/css">
	.st0{fill:#0048FF;}
	.st1{fill:#FFFFFF;}
</style>
<rect id="rect2" x="-0.5" y="-0.5" class="st0" width="600" height="337.6"/>
<g id="g8">
	<g id="g6">
		<path id="path4" class="st1" d="M255.5,177.2h-9.3c-7,0-13.5-3.3-13.5-11.1c0-5.6-0.2-24.6,8.6-24.6c1.5,0,8.7,5.9,18.1,5.9
			c3.2,0,6.3-0.6,9.3-1.6c-0.2,1.5-0.3,3.1-0.3,4.6c0,6.3,2,12.6,5.6,17.8C266.7,168.5,260.1,171.6,255.5,177.2z M259.4,141.5
			c-9.8,0-17.8-8-17.8-17.8c0-9.8,8-17.8,17.8-17.8c9.8,0,17.8,8,17.8,17.8C277.2,133.5,269.2,141.5,259.4,141.5z M330,230.7H269
			c-11.1,0-18.6-6.8-18.6-18c0-15.8,3.7-39.9,24.1-39.9c2.4,0,11,9.7,24.9,9.7c13.9,0,22.6-9.7,24.9-9.7c20.4,0,24.1,24.2,24.1,39.9
			C348.6,224,341.1,230.7,330,230.7z M299.5,177.2c-14.8,0-26.8-12-26.8-26.8c0-14.8,12-26.8,26.8-26.8c14.8,0,26.8,12,26.8,26.8
			C326.3,165.2,314.3,177.2,299.5,177.2z M339.6,141.5c-9.8,0-17.8-8-17.8-17.8c0-9.8,8-17.8,17.8-17.8c9.8,0,17.8,8,17.8,17.8
			C357.5,133.5,349.5,141.5,339.6,141.5z M352.9,177.2h-9.3c-4.7-5.6-11.2-8.7-18.5-8.9c3.6-5.2,5.6-11.5,5.6-17.8
			c0-1.5-0.1-3.1-0.3-4.6c3,1,6.1,1.6,9.3,1.6c9.4,0,16.6-5.9,18.1-5.9c8.9,0,8.6,19,8.6,24.6C366.4,173.9,359.8,177.2,352.9,177.2z
			"/>
	</g>
</g>
<g>
	<path class="st1" d="M262.2,274.8c1,0.5,1.8,1.3,2.3,2.2s0.8,2.1,0.8,3.3c0,1.2-0.3,2.3-0.8,3.3c-0.5,1-1.3,1.7-2.3,2.2
		s-2.2,0.8-3.5,0.8H254V274h4.7C260.1,274,261.2,274.2,262.2,274.8z M261.2,283c0.6-0.6,1-1.5,1-2.7c0-1.2-0.3-2.1-1-2.7
		c-0.6-0.6-1.6-1-2.7-1h-1.5v7.3h1.5C259.7,283.9,260.6,283.6,261.2,283z"/>
	<path class="st1" d="M270.2,274v12.6h-3.1V274H270.2z"/>
	<path class="st1" d="M278.8,286.6l-2.6-4.8h-0.7v4.8h-3.1V274h5.2c1,0,1.8,0.2,2.5,0.5c0.7,0.3,1.2,0.8,1.6,1.4
		c0.3,0.6,0.5,1.3,0.5,2c0,0.8-0.2,1.6-0.7,2.2c-0.5,0.7-1.2,1.1-2.1,1.4l2.9,5H278.8z M275.5,279.6h1.9c0.6,0,1-0.1,1.3-0.4
		c0.3-0.3,0.4-0.7,0.4-1.2c0-0.5-0.1-0.9-0.4-1.1c-0.3-0.3-0.7-0.4-1.3-0.4h-1.9V279.6z"/>
	<path class="st1" d="M287.2,276.4v2.6h4.1v2.4h-4.1v2.8h4.7v2.5h-7.7V274h7.7v2.5H287.2z"/>
	<path class="st1" d="M301.2,286.6l-4.2-5.6v5.6h-3.1V274h3.1v5.5l4.2-5.5h3.6l-4.9,6.2l5.1,6.4H301.2z"/>
	<path class="st1" d="M315.5,274v2.5h-3.3v10.2h-3.1v-10.2h-3.3V274H315.5z"/>
	<path class="st1" d="M319.8,285.9c-1-0.6-1.8-1.3-2.4-2.3c-0.6-1-0.9-2.1-0.9-3.3c0-1.2,0.3-2.3,0.9-3.3c0.6-1,1.4-1.8,2.4-2.3
		c1-0.6,2.1-0.8,3.3-0.8c1.2,0,2.3,0.3,3.3,0.8c1,0.6,1.8,1.3,2.3,2.3c0.6,1,0.9,2.1,0.9,3.3c0,1.2-0.3,2.3-0.9,3.3
		c-0.6,1-1.4,1.8-2.3,2.3c-1,0.6-2.1,0.8-3.3,0.8C321.8,286.7,320.7,286.4,319.8,285.9z M325.4,282.9c0.6-0.7,0.9-1.6,0.9-2.7
		c0-1.1-0.3-2-0.9-2.7c-0.6-0.7-1.4-1-2.4-1c-1,0-1.8,0.3-2.4,1c-0.6,0.7-0.9,1.6-0.9,2.7c0,1.1,0.3,2,0.9,2.7c0.6,0.7,1.4,1,2.4,1
		C324,283.9,324.8,283.6,325.4,282.9z"/>
	<path class="st1" d="M337.6,286.6l-2.6-4.8h-0.7v4.8h-3.1V274h5.2c1,0,1.8,0.2,2.5,0.5c0.7,0.3,1.2,0.8,1.6,1.4
		c0.3,0.6,0.5,1.3,0.5,2c0,0.8-0.2,1.6-0.7,2.2c-0.5,0.7-1.2,1.1-2.1,1.4l2.9,5H337.6z M334.3,279.6h1.9c0.6,0,1-0.1,1.3-0.4
		c0.3-0.3,0.4-0.7,0.4-1.2c0-0.5-0.1-0.9-0.4-1.1c-0.3-0.3-0.7-0.4-1.3-0.4h-1.9V279.6z"/>
	<path class="st1" d="M346,274v12.6h-3.1V274H346z"/>
</g>
</svg>
