<?xml version="1.0" encoding="utf-8"?>
<!-- Generator: Adobe Illustrator 26.0.2, SVG Export Plug-In . SVG Version: 6.00 Build 0)  -->
<svg version="1.1"
	 id="Layer_1" xmlns:cc="http://creativecommons.org/ns#" xmlns:dc="http://purl.org/dc/elements/1.1/" xmlns:rdf="http://www.w3.org/1999/02/22-rdf-syntax-ns#" xmlns:svg="http://www.w3.org/2000/svg"
	 xmlns="http://www.w3.org/2000/svg" xmlns:xlink="http://www.w3.org/1999/xlink" x="0px" y="0px" viewBox="0 0 600 337.6"
	 style="enable-background:new 0 0 600 337.6;" xml:space="preserve">
<style type="text/css">
	.st0{fill:#0048FF;}
	.st1{fill:#FFFFFF;}
</style>
<rect id="rect2" x="-0.5" y="-0.5" class="st0" width="600" height="337.6"/>
<g id="g6">
	<path id="path4" class="st1" d="M360.2,158.7c-17.7-15.6-36.8-24.2-60.7-24.2c-23.9,0-43,8.7-60.7,24.2c-0.5,0.4-1.1,0.7-1.7,0.7
		c-1.8,0-12.9-11-12.9-12.9c0-0.7,0.3-1.3,0.8-1.8c19.4-19.2,47.4-29.9,74.6-29.9s55.1,10.7,74.6,29.9c0.5,0.5,0.8,1.1,0.8,1.8
		c0,1.8-11.1,12.9-12.9,12.9C361.3,159.4,360.7,159.1,360.2,158.7z M339.4,179.5c-12.7-9.8-23.3-15.6-39.9-15.6
		c-23.2,0-40.8,16.3-41.6,16.3c-1.8,0-12.8-11-12.8-12.9c0-0.6,0.3-1.2,0.8-1.7c13.7-13.7,34.4-21.3,53.7-21.3s40,7.6,53.7,21.3
		c0.5,0.5,0.8,1.1,0.8,1.7c0,1.8-11,12.9-12.8,12.9C340.5,180.1,339.8,179.8,339.4,179.5z M299.5,193.3c-11.4,0-19.6,7.7-20.7,7.7
		c-1.8,0-13-11-13-12.9c0-0.7,0.3-1.3,0.8-1.8c8.2-8.1,21.6-12.7,32.9-12.7s24.7,4.5,32.9,12.7c0.5,0.5,0.8,1.1,0.8,1.8
		c0,1.8-11.1,12.9-13,12.9C319.1,201,310.8,193.3,299.5,193.3z M286.8,209c0-3.8,9.8-5.8,12.7-5.8c2.9,0,12.7,2.1,12.7,5.8
		c0,2.1-10.7,12.8-12.7,12.8C297.5,221.8,286.8,211.1,286.8,209z"/>
</g>
<g>
	<path class="st1" d="M252.5,286.1l-2.6-4.8h-0.7v4.8H246v-12.6h5.2c1,0,1.8,0.2,2.5,0.5c0.7,0.3,1.2,0.8,1.6,1.4
		c0.3,0.6,0.5,1.3,0.5,2c0,0.8-0.2,1.6-0.7,2.2c-0.5,0.7-1.2,1.1-2.1,1.4l2.9,5H252.5z M249.1,279.1h1.9c0.6,0,1-0.1,1.3-0.4
		c0.3-0.3,0.4-0.7,0.4-1.2c0-0.5-0.1-0.9-0.4-1.1c-0.3-0.3-0.7-0.4-1.3-0.4h-1.9V279.1z"/>
	<path class="st1" d="M265.6,283.9h-4.7l-0.8,2.2h-3.2l4.6-12.6h3.6l4.6,12.6h-3.3L265.6,283.9z M264.8,281.5l-1.6-4.6l-1.5,4.6
		H264.8z"/>
	<path class="st1" d="M282.3,286.1h-3.1l-5.1-7.8v7.8H271v-12.6h3.1l5.1,7.8v-7.8h3.1V286.1z"/>
	<path class="st1" d="M293,277.5c-0.2-0.4-0.6-0.7-1-1c-0.4-0.2-0.9-0.3-1.5-0.3c-1,0-1.8,0.3-2.4,1c-0.6,0.7-0.9,1.5-0.9,2.6
		c0,1.2,0.3,2.1,0.9,2.7c0.6,0.7,1.5,1,2.6,1c0.8,0,1.4-0.2,1.9-0.6c0.5-0.4,0.9-0.9,1.1-1.7h-3.9V279h6.7v2.9
		c-0.2,0.8-0.6,1.5-1.2,2.1s-1.2,1.2-2.1,1.6c-0.8,0.4-1.8,0.6-2.8,0.6c-1.2,0-2.4-0.3-3.3-0.8c-1-0.5-1.7-1.3-2.3-2.3
		c-0.5-1-0.8-2.1-0.8-3.3s0.3-2.4,0.8-3.3c0.5-1,1.3-1.7,2.3-2.3c1-0.5,2.1-0.8,3.3-0.8c1.5,0,2.8,0.4,3.8,1.1c1,0.7,1.7,1.7,2.1,3
		H293z"/>
	<path class="st1" d="M305.6,286.1l-4.2-5.6v5.6h-3.1v-12.6h3.1v5.5l4.2-5.5h3.6l-4.9,6.2l5.1,6.4H305.6z"/>
	<path class="st1" d="M318.7,283.9H314l-0.8,2.2H310l4.6-12.6h3.6l4.6,12.6h-3.3L318.7,283.9z M317.9,281.5l-1.6-4.6l-1.5,4.6H317.9
		z"/>
	<path class="st1" d="M327.2,273.5v12.6h-3.1v-12.6H327.2z"/>
	<path class="st1" d="M337.3,283.9h-4.7l-0.8,2.2h-3.2l4.6-12.6h3.6l4.6,12.6H338L337.3,283.9z M336.5,281.5l-1.6-4.6l-1.5,4.6
		H336.5z"/>
	<path class="st1" d="M354,286.1h-3.1l-5.1-7.8v7.8h-3.1v-12.6h3.1l5.1,7.8v-7.8h3.1V286.1z"/>
</g>
</svg>
