<?xml version="1.0" encoding="utf-8"?>
<!-- Generator: Adobe Illustrator 27.7.0, SVG Export Plug-In . SVG Version: 6.00 Build 0)  -->
<svg version="1.1"
	 id="Layer_1" xmlns:rdf="http://www.w3.org/1999/02/22-rdf-syntax-ns#" xmlns:cc="http://creativecommons.org/ns#" xmlns:dc="http://purl.org/dc/elements/1.1/" xmlns:svg="http://www.w3.org/2000/svg"
	 xmlns="http://www.w3.org/2000/svg" xmlns:xlink="http://www.w3.org/1999/xlink" x="0px" y="0px" width="600px" height="340px"
	 viewBox="0 0 600 340" style="enable-background:new 0 0 600 340;" xml:space="preserve">
<style type="text/css">
	.st0{fill:#EDEDEE;}
	.st1{fill:#97999C;}
	.st2{fill:#C7C8CA;}
</style>
<rect id="rect2" class="st0" width="600" height="340"/>
<g>
	<g>
		<path class="st1" d="M168.5,176.1c0,4.4,1.6,6.5,4.7,6.5h0.6c1.4,0,2.5-0.5,3.4-1.4c0.9-0.9,1.3-2.3,1.3-4.1v-0.6
			c0-3.2-1.6-4.7-4.7-4.7h-6.7v-10.4h6.5c3.1,0,4.6-1.6,4.6-4.7v-0.6c0-1.3-0.4-2.3-1.2-3.2c-0.8-0.8-1.9-1.2-3.2-1.2h-0.6
			c-2.9,0-4.4,2.4-4.4,7.2h-11.9v-1.2c0-5.5,1.4-9.6,4.1-12.3c2.7-2.7,6.9-4,12.6-4c3,0,5.7,0.4,7.9,1.3c2.3,0.9,4,2,5.2,3.4
			c1.2,1.4,2.1,2.8,2.7,4.3c0.6,1.5,0.9,3,0.9,4.5v1.3c0,4.7-1.8,8.2-5.4,10.6c3.8,2.4,5.7,6,5.7,10.8v1.3c0,1.6-0.3,3.2-0.9,4.7
			c-0.6,1.6-1.5,3.1-2.8,4.6c-1.2,1.5-3,2.7-5.3,3.7c-2.3,0.9-5,1.4-8,1.4c-5.6,0-9.8-1.4-12.7-4.1c-2.9-2.7-4.3-6.7-4.3-11.9v-0.9
			H168.5z"/>
		<path class="st1" d="M228.6,178c0,4.5-1.5,8.1-4.4,10.9c-2.9,2.8-7,4.1-12.3,4.1c-5.3,0-9.4-1.4-12.3-4.1
			c-2.9-2.8-4.4-6.4-4.4-10.9v-21.8c0-4.5,1.5-8.1,4.4-10.9c2.9-2.8,7-4.1,12.3-4.1c5.3,0,9.4,1.4,12.3,4.1
			c2.9,2.8,4.4,6.4,4.4,10.9V178z M216.7,156.3c0-1.4-0.4-2.5-1.2-3.3c-0.8-0.9-1.9-1.3-3.4-1.3h-0.3c-1.5,0-2.6,0.4-3.4,1.3
			c-0.8,0.9-1.2,2-1.2,3.3V178c0,1.4,0.4,2.5,1.2,3.3c0.8,0.9,1.9,1.3,3.4,1.3h0.3c1.5,0,2.6-0.4,3.4-1.3c0.8-0.9,1.2-2,1.2-3.3
			V156.3z"/>
		<path class="st1" d="M267,178c0,4.5-1.5,8.1-4.4,10.9c-2.9,2.8-7,4.1-12.3,4.1c-5.3,0-9.4-1.4-12.3-4.1c-2.9-2.8-4.4-6.4-4.4-10.9
			v-21.8c0-4.5,1.5-8.1,4.4-10.9c2.9-2.8,7-4.1,12.3-4.1c5.3,0,9.4,1.4,12.3,4.1c2.9,2.8,4.4,6.4,4.4,10.9V178z M255.1,156.3
			c0-1.4-0.4-2.5-1.2-3.3c-0.8-0.9-1.9-1.3-3.4-1.3h-0.3c-1.5,0-2.6,0.4-3.4,1.3c-0.8,0.9-1.2,2-1.2,3.3V178c0,1.4,0.4,2.5,1.2,3.3
			c0.8,0.9,1.9,1.3,3.4,1.3h0.3c1.5,0,2.6-0.4,3.4-1.3c0.8-0.9,1.2-2,1.2-3.3V156.3z"/>
		<path class="st1" d="M283.4,158.2H297l4,10.8l4-10.8h13.6l-8.3,16.3l8.3,17.6h-13.2l-4.4-11l-4.4,11h-13.2l8.2-17.6L283.4,158.2z"
			/>
		<path class="st1" d="M346.5,176.1c0,4.4,1.6,6.5,4.7,6.5h0.6c1.4,0,2.5-0.5,3.4-1.4c0.9-0.9,1.3-2.3,1.3-4.1v-0.6
			c0-3.2-1.6-4.7-4.7-4.7h-6.7v-10.4h6.5c3.1,0,4.6-1.6,4.6-4.7v-0.6c0-1.3-0.4-2.3-1.2-3.2c-0.8-0.8-1.9-1.2-3.2-1.2h-0.6
			c-2.9,0-4.4,2.4-4.4,7.2H335v-1.2c0-5.5,1.4-9.6,4.1-12.3s6.9-4,12.6-4c3,0,5.7,0.4,7.9,1.3c2.3,0.9,4,2,5.2,3.4
			c1.2,1.4,2.1,2.8,2.7,4.3c0.6,1.5,0.9,3,0.9,4.5v1.3c0,4.7-1.8,8.2-5.4,10.6c3.8,2.4,5.7,6,5.7,10.8v1.3c0,1.6-0.3,3.2-0.9,4.7
			c-0.6,1.6-1.5,3.1-2.8,4.6c-1.2,1.5-3,2.7-5.3,3.7c-2.3,0.9-5,1.4-8,1.4c-5.6,0-9.8-1.4-12.7-4.1c-2.9-2.7-4.3-6.7-4.3-11.9v-0.9
			H346.5z"/>
		<path class="st1" d="M403,192.1h-11.9V182h-18.7v-8.4l19.4-31.4H403v29.4h4.6V182H403V192.1z M391.3,161l-6.7,10.7l2.6-0.1h3.9
			v-7.8L391.3,161z"/>
		<path class="st1" d="M445.1,178c0,4.5-1.5,8.1-4.4,10.9s-7,4.1-12.3,4.1c-5.3,0-9.4-1.4-12.3-4.1c-2.9-2.8-4.4-6.4-4.4-10.9v-21.8
			c0-4.5,1.5-8.1,4.4-10.9c2.9-2.8,7-4.1,12.3-4.1c5.3,0,9.4,1.4,12.3,4.1c2.9,2.8,4.4,6.4,4.4,10.9V178z M433.2,156.3
			c0-1.4-0.4-2.5-1.2-3.3c-0.8-0.9-1.9-1.3-3.4-1.3h-0.3c-1.5,0-2.6,0.4-3.4,1.3c-0.8,0.9-1.2,2-1.2,3.3V178c0,1.4,0.4,2.5,1.2,3.3
			c0.8,0.9,1.9,1.3,3.4,1.3h0.3c1.5,0,2.6-0.4,3.4-1.3c0.8-0.9,1.2-2,1.2-3.3V156.3z"/>
	</g>
	<g>
		<path class="st2" d="M166.5,174.1c0,4.4,1.6,6.5,4.7,6.5h0.6c1.4,0,2.5-0.5,3.4-1.4c0.9-0.9,1.3-2.3,1.3-4.1v-0.6
			c0-3.2-1.6-4.7-4.7-4.7h-6.7v-10.4h6.5c3.1,0,4.6-1.6,4.6-4.7v-0.6c0-1.3-0.4-2.3-1.2-3.2c-0.8-0.8-1.9-1.2-3.2-1.2h-0.6
			c-2.9,0-4.4,2.4-4.4,7.2h-11.9v-1.2c0-5.5,1.4-9.6,4.1-12.3c2.7-2.7,6.9-4,12.6-4c3,0,5.7,0.4,7.9,1.3c2.3,0.9,4,2,5.2,3.4
			c1.2,1.4,2.1,2.8,2.7,4.3c0.6,1.5,0.9,3,0.9,4.5v1.3c0,4.7-1.8,8.2-5.4,10.6c3.8,2.4,5.7,6,5.7,10.8v1.3c0,1.6-0.3,3.2-0.9,4.7
			c-0.6,1.6-1.5,3.1-2.8,4.6c-1.2,1.5-3,2.7-5.3,3.7c-2.3,0.9-5,1.4-8,1.4c-5.6,0-9.8-1.4-12.7-4.1c-2.9-2.7-4.3-6.7-4.3-11.9v-0.9
			H166.5z"/>
		<path class="st2" d="M226.6,176c0,4.5-1.5,8.1-4.4,10.9c-2.9,2.8-7,4.1-12.3,4.1c-5.3,0-9.4-1.4-12.3-4.1
			c-2.9-2.8-4.4-6.4-4.4-10.9v-21.8c0-4.5,1.5-8.1,4.4-10.9c2.9-2.8,7-4.1,12.3-4.1c5.3,0,9.4,1.4,12.3,4.1
			c2.9,2.8,4.4,6.4,4.4,10.9V176z M214.7,154.3c0-1.4-0.4-2.5-1.2-3.3c-0.8-0.9-1.9-1.3-3.4-1.3h-0.3c-1.5,0-2.6,0.4-3.4,1.3
			c-0.8,0.9-1.2,2-1.2,3.3V176c0,1.4,0.4,2.5,1.2,3.3c0.8,0.9,1.9,1.3,3.4,1.3h0.3c1.5,0,2.6-0.4,3.4-1.3c0.8-0.9,1.2-2,1.2-3.3
			V154.3z"/>
		<path class="st2" d="M265,176c0,4.5-1.5,8.1-4.4,10.9c-2.9,2.8-7,4.1-12.3,4.1c-5.3,0-9.4-1.4-12.3-4.1c-2.9-2.8-4.4-6.4-4.4-10.9
			v-21.8c0-4.5,1.5-8.1,4.4-10.9c2.9-2.8,7-4.1,12.3-4.1c5.3,0,9.4,1.4,12.3,4.1c2.9,2.8,4.4,6.4,4.4,10.9V176z M253.1,154.3
			c0-1.4-0.4-2.5-1.2-3.3c-0.8-0.9-1.9-1.3-3.4-1.3h-0.3c-1.5,0-2.6,0.4-3.4,1.3c-0.8,0.9-1.2,2-1.2,3.3V176c0,1.4,0.4,2.5,1.2,3.3
			c0.8,0.9,1.9,1.3,3.4,1.3h0.3c1.5,0,2.6-0.4,3.4-1.3c0.8-0.9,1.2-2,1.2-3.3V154.3z"/>
		<path class="st2" d="M281.4,156.2H295l4,10.8l4-10.8h13.6l-8.3,16.3l8.3,17.6h-13.2l-4.4-11l-4.4,11h-13.2l8.2-17.6L281.4,156.2z"
			/>
		<path class="st2" d="M344.5,174.1c0,4.4,1.6,6.5,4.7,6.5h0.6c1.4,0,2.5-0.5,3.4-1.4c0.9-0.9,1.3-2.3,1.3-4.1v-0.6
			c0-3.2-1.6-4.7-4.7-4.7h-6.7v-10.4h6.5c3.1,0,4.6-1.6,4.6-4.7v-0.6c0-1.3-0.4-2.3-1.2-3.2c-0.8-0.8-1.9-1.2-3.2-1.2h-0.6
			c-2.9,0-4.4,2.4-4.4,7.2H333v-1.2c0-5.5,1.4-9.6,4.1-12.3s6.9-4,12.6-4c3,0,5.7,0.4,7.9,1.3c2.3,0.9,4,2,5.2,3.4
			c1.2,1.4,2.1,2.8,2.7,4.3c0.6,1.5,0.9,3,0.9,4.5v1.3c0,4.7-1.8,8.2-5.4,10.6c3.8,2.4,5.7,6,5.7,10.8v1.3c0,1.6-0.3,3.2-0.9,4.7
			c-0.6,1.6-1.5,3.1-2.8,4.6c-1.2,1.5-3,2.7-5.3,3.7c-2.3,0.9-5,1.4-8,1.4c-5.6,0-9.8-1.4-12.7-4.1c-2.9-2.7-4.3-6.7-4.3-11.9v-0.9
			H344.5z"/>
		<path class="st2" d="M401.1,190.1h-11.9V180h-18.7v-8.4l19.4-31.4h11.2v29.4h4.6V180h-4.6V190.1z M389.3,159l-6.7,10.7l2.6-0.1
			h3.9v-7.8L389.3,159z"/>
		<path class="st2" d="M443.1,176c0,4.5-1.5,8.1-4.4,10.9s-7,4.1-12.3,4.1c-5.3,0-9.4-1.4-12.3-4.1c-2.9-2.8-4.4-6.4-4.4-10.9v-21.8
			c0-4.5,1.5-8.1,4.4-10.9c2.9-2.8,7-4.1,12.3-4.1c5.3,0,9.4,1.4,12.3,4.1c2.9,2.8,4.4,6.4,4.4,10.9V176z M431.2,154.3
			c0-1.4-0.4-2.5-1.2-3.3c-0.8-0.9-1.9-1.3-3.4-1.3h-0.3c-1.5,0-2.6,0.4-3.4,1.3c-0.8,0.9-1.2,2-1.2,3.3V176c0,1.4,0.4,2.5,1.2,3.3
			c0.8,0.9,1.9,1.3,3.4,1.3h0.3c1.5,0,2.6-0.4,3.4-1.3c0.8-0.9,1.2-2,1.2-3.3V154.3z"/>
	</g>
</g>
</svg>
