<?xml version="1.0" encoding="utf-8"?>
<!-- Generator: Adobe Illustrator 27.7.0, SVG Export Plug-In . SVG Version: 6.00 Build 0)  -->
<svg version="1.1"
	 id="Layer_1" xmlns:sodipodi="http://sodipodi.sourceforge.net/DTD/sodipodi-0.dtd" xmlns:inkscape="http://www.inkscape.org/namespaces/inkscape" xmlns:rdf="http://www.w3.org/1999/02/22-rdf-syntax-ns#" xmlns:svg="http://www.w3.org/2000/svg" xmlns:cc="http://creativecommons.org/ns#" xmlns:dc="http://purl.org/dc/elements/1.1/" inkscape:version="1.0.1 (3bc2e813f5, 2020-09-07)" sodipodi:docname="placeholder_news.svg"
	 xmlns="http://www.w3.org/2000/svg" xmlns:xlink="http://www.w3.org/1999/xlink" x="0px" y="0px" width="800px" height="460px"
	 viewBox="0 0 800 460" style="enable-background:new 0 0 800 460;" xml:space="preserve">
<style type="text/css">
	.st0{fill:#EDEDEE;}
	.st1{fill:#97999C;}
	.st2{fill:#C7C8CA;}
</style>
<sodipodi:namedview  bordercolor="#666666" borderopacity="1" gridtolerance="10" guidetolerance="10" id="namedview9" inkscape:current-layer="Layer_1" inkscape:cx="300" inkscape:cy="230" inkscape:pageopacity="0" inkscape:pageshadow="2" inkscape:window-height="987" inkscape:window-maximized="1" inkscape:window-width="1680" inkscape:window-x="-8" inkscape:window-y="-8" inkscape:zoom="0.79891304" objecttolerance="10" pagecolor="#ffffff" showgrid="false">
	</sodipodi:namedview>
<rect id="rect2" class="st0" width="800" height="460"/>
<g>
	<path class="st1" d="M211.9,262.5c-3.6,1.5-7.8,2.2-12.6,2.2c-4.8,0-9-0.7-12.6-2.2c-3.6-1.5-6.4-3.4-8.4-5.8
		c-2-2.4-3.4-4.8-4.3-7.3c-0.9-2.5-1.4-5-1.4-7.5v-2c0-7.6,3-13.2,9-16.9c-5.6-3.8-8.5-9.4-8.5-16.7v-2c0-2.4,0.5-4.7,1.4-7
		c0.9-2.3,2.3-4.6,4.2-6.8c1.9-2.2,4.6-4,8.2-5.3c3.6-1.3,7.7-2,12.5-2c4.8,0,8.9,0.7,12.5,2c3.6,1.3,6.3,3.1,8.2,5.3
		c1.9,2.2,3.3,4.4,4.2,6.8c0.9,2.3,1.4,4.7,1.4,7v2c0,7.3-2.8,12.9-8.5,16.7c6,3.8,9,9.4,9,16.9v2c0,2.5-0.5,5-1.4,7.5
		c-0.9,2.5-2.4,4.9-4.3,7.3C218.3,259.1,215.5,261,211.9,262.5z M198.7,231.3c-5,0-7.5,2.5-7.5,7.5v1c0,2.8,0.7,5,2.1,6.4
		c1.4,1.4,3.2,2.2,5.3,2.2h1c2.2,0,3.9-0.7,5.3-2.2c1.4-1.4,2.1-3.6,2.1-6.4v-1c0-5-2.5-7.5-7.5-7.5H198.7z M199.7,199.5h-1
		c-2,0-3.7,0.7-5,2s-2,3-2,5v1c0,5,2.4,7.5,7.3,7.5h0.4c4.8,0,7.3-2.5,7.3-7.5v-1c0-2-0.7-3.7-2-5S201.8,199.5,199.7,199.5z"/>
	<path class="st1" d="M286,241.1c0,7.1-2.3,12.8-6.9,17.1c-4.6,4.3-11,6.5-19.4,6.5c-8.3,0-14.8-2.2-19.4-6.5
		c-4.6-4.3-6.9-10-6.9-17.1v-34.3c0-7.1,2.3-12.8,6.9-17.1c4.6-4.3,11-6.5,19.4-6.5c8.3,0,14.8,2.2,19.4,6.5
		c4.6,4.3,6.9,10,6.9,17.1V241.1z M267.2,206.8c0-2.2-0.6-3.9-1.9-5.2c-1.3-1.3-3.1-2-5.3-2h-0.4c-2.3,0-4.1,0.7-5.3,2
		c-1.3,1.3-1.9,3.1-1.9,5.2v34.3c0,2.2,0.6,3.9,1.9,5.2c1.3,1.3,3.1,2,5.3,2h0.4c2.3,0,4.1-0.7,5.3-2c1.3-1.3,1.9-3.1,1.9-5.2V206.8
		z"/>
	<path class="st1" d="M346.5,241.1c0,7.1-2.3,12.8-6.9,17.1c-4.6,4.3-11,6.5-19.4,6.5s-14.8-2.2-19.4-6.5c-4.6-4.3-6.9-10-6.9-17.1
		v-34.3c0-7.1,2.3-12.8,6.9-17.1c4.6-4.3,11-6.5,19.4-6.5s14.8,2.2,19.4,6.5c4.6,4.3,6.9,10,6.9,17.1V241.1z M327.8,206.8
		c0-2.2-0.6-3.9-1.9-5.2c-1.3-1.3-3.1-2-5.3-2h-0.4c-2.3,0-4.1,0.7-5.3,2c-1.3,1.3-1.9,3.1-1.9,5.2v34.3c0,2.2,0.6,3.9,1.9,5.2
		c1.3,1.3,3.1,2,5.3,2h0.4c2.3,0,4.1-0.7,5.3-2c1.3-1.3,1.9-3.1,1.9-5.2V206.8z"/>
	<path class="st1" d="M372.3,209.8h21.4l6.4,16.9l6.4-16.9h21.4l-13,25.7l13,27.7H407l-7-17.4l-7,17.4h-20.8l12.9-27.7L372.3,209.8z
		"/>
	<path class="st1" d="M500.2,263.3h-18.8v-16H452V234l30.6-49.4h17.7v46.3h7.3v16.3h-7.3V263.3z M481.6,214.3l-10.5,16.8l4.1-0.2
		h6.2v-12.2L481.6,214.3z"/>
	<path class="st1" d="M562.9,183.2v16.5c-6,0.1-10.8,0.8-14.6,2.1c-3.7,1.3-6.8,3.4-9.3,6.3c-2,2.4-3.5,5.2-4.4,8.4
		c3.2-1.9,6.8-2.8,10.8-2.8c6.6,0,11.8,2.2,15.7,6.7c3.9,4.5,5.9,10.5,5.9,18.1v1c0,7.9-2.3,14-6.8,18.5c-4.5,4.5-11.2,6.7-20,6.7
		c-8.7,0-15.3-2.7-19.9-8c-4.6-5.3-6.9-12.4-6.9-21.3V234c0-14.3,3.7-26.4,11.1-36.3c4.1-5.4,9.2-9.2,15.4-11.3
		S553.8,183.2,562.9,183.2z M540.4,229.9c-3.6,0-6.3,1.5-8.2,4.5v2.6c0,3.6,0.7,6.4,2.2,8.4c1.4,2,3.3,2.9,5.5,2.9h0.6
		c2.1,0,3.9-0.7,5.4-2.2c1.5-1.5,2.3-3.5,2.3-6.2v-2c0-5.4-2.4-8.1-7.3-8.1H540.4z"/>
	<path class="st1" d="M627,241.1c0,7.1-2.3,12.8-6.9,17.1c-4.6,4.3-11,6.5-19.4,6.5c-8.3,0-14.8-2.2-19.4-6.5
		c-4.6-4.3-6.9-10-6.9-17.1v-34.3c0-7.1,2.3-12.8,6.9-17.1c4.6-4.3,11-6.5,19.4-6.5c8.3,0,14.8,2.2,19.4,6.5
		c4.6,4.3,6.9,10,6.9,17.1V241.1z M608.2,206.8c0-2.2-0.6-3.9-1.9-5.2c-1.3-1.3-3.1-2-5.3-2h-0.4c-2.3,0-4.1,0.7-5.3,2
		c-1.3,1.3-1.9,3.1-1.9,5.2v34.3c0,2.2,0.6,3.9,1.9,5.2c1.3,1.3,3.1,2,5.3,2h0.4c2.3,0,4.1-0.7,5.3-2c1.3-1.3,1.9-3.1,1.9-5.2V206.8
		z"/>
</g>
<g>
	<path class="st2" d="M209.9,261c-3.6,1.5-7.8,2.2-12.6,2.2c-4.8,0-9-0.7-12.6-2.2c-3.6-1.5-6.4-3.4-8.4-5.8c-2-2.4-3.4-4.8-4.3-7.3
		c-0.9-2.5-1.4-5-1.4-7.5v-2c0-7.6,3-13.2,9-16.9c-5.6-3.8-8.5-9.4-8.5-16.7v-2c0-2.4,0.5-4.7,1.4-7c0.9-2.3,2.3-4.6,4.2-6.8
		c1.9-2.2,4.6-4,8.2-5.3c3.6-1.3,7.7-2,12.5-2c4.8,0,8.9,0.7,12.5,2c3.6,1.3,6.3,3.1,8.2,5.3c1.9,2.2,3.3,4.4,4.2,6.8
		c0.9,2.3,1.4,4.7,1.4,7v2c0,7.3-2.8,12.9-8.5,16.7c6,3.8,9,9.4,9,16.9v2c0,2.5-0.5,5-1.4,7.5c-0.9,2.5-2.4,4.9-4.3,7.3
		C216.3,257.6,213.5,259.5,209.9,261z M196.7,229.8c-5,0-7.5,2.5-7.5,7.5v1c0,2.8,0.7,5,2.1,6.4c1.4,1.4,3.2,2.2,5.3,2.2h1
		c2.2,0,3.9-0.7,5.3-2.2c1.4-1.4,2.1-3.6,2.1-6.4v-1c0-5-2.5-7.5-7.5-7.5H196.7z M197.7,198.1h-1c-2,0-3.7,0.7-5,2s-2,3-2,5v1
		c0,5,2.4,7.5,7.3,7.5h0.4c4.8,0,7.3-2.5,7.3-7.5v-1c0-2-0.7-3.7-2-5S199.8,198.1,197.7,198.1z"/>
	<path class="st2" d="M284,239.6c0,7.1-2.3,12.8-6.9,17.1c-4.6,4.3-11,6.5-19.4,6.5c-8.3,0-14.8-2.2-19.4-6.5
		c-4.6-4.3-6.9-10-6.9-17.1v-34.3c0-7.1,2.3-12.8,6.9-17.1c4.6-4.3,11-6.5,19.4-6.5c8.3,0,14.8,2.2,19.4,6.5
		c4.6,4.3,6.9,10,6.9,17.1V239.6z M265.2,205.3c0-2.2-0.6-3.9-1.9-5.2c-1.3-1.3-3.1-2-5.3-2h-0.4c-2.3,0-4.1,0.7-5.3,2
		c-1.3,1.3-1.9,3.1-1.9,5.2v34.3c0,2.2,0.6,3.9,1.9,5.2c1.3,1.3,3.1,2,5.3,2h0.4c2.3,0,4.1-0.7,5.3-2c1.3-1.3,1.9-3.1,1.9-5.2V205.3
		z"/>
	<path class="st2" d="M344.5,239.6c0,7.1-2.3,12.8-6.9,17.1c-4.6,4.3-11,6.5-19.4,6.5s-14.8-2.2-19.4-6.5c-4.6-4.3-6.9-10-6.9-17.1
		v-34.3c0-7.1,2.3-12.8,6.9-17.1c4.6-4.3,11-6.5,19.4-6.5s14.8,2.2,19.4,6.5c4.6,4.3,6.9,10,6.9,17.1V239.6z M325.8,205.3
		c0-2.2-0.6-3.9-1.9-5.2c-1.3-1.3-3.1-2-5.3-2h-0.4c-2.3,0-4.1,0.7-5.3,2c-1.3,1.3-1.9,3.1-1.9,5.2v34.3c0,2.2,0.6,3.9,1.9,5.2
		c1.3,1.3,3.1,2,5.3,2h0.4c2.3,0,4.1-0.7,5.3-2c1.3-1.3,1.9-3.1,1.9-5.2V205.3z"/>
	<path class="st2" d="M370.3,208.4h21.4l6.4,16.9l6.4-16.9h21.4l-13,25.7l13,27.7H405l-7-17.4l-7,17.4h-20.8l12.9-27.7L370.3,208.4z
		"/>
	<path class="st2" d="M498.2,261.8h-18.8v-16H450v-13.2l30.6-49.4h17.7v46.3h7.3v16.3h-7.3V261.8z M479.6,212.8l-10.5,16.8l4.1-0.2
		h6.2v-12.2L479.6,212.8z"/>
	<path class="st2" d="M560.9,181.7v16.5c-6,0.1-10.8,0.8-14.6,2.1c-3.7,1.3-6.8,3.4-9.3,6.3c-2,2.4-3.5,5.2-4.4,8.4
		c3.2-1.9,6.8-2.8,10.8-2.8c6.6,0,11.8,2.2,15.7,6.7c3.9,4.5,5.9,10.5,5.9,18.1v1c0,7.9-2.3,14-6.8,18.5c-4.5,4.5-11.2,6.7-20,6.7
		c-8.7,0-15.3-2.7-19.9-8c-4.6-5.3-6.9-12.4-6.9-21.3v-1.4c0-14.3,3.7-26.4,11.1-36.3c4.1-5.4,9.2-9.2,15.4-11.3
		S551.8,181.7,560.9,181.7z M538.4,228.4c-3.6,0-6.3,1.5-8.2,4.5v2.6c0,3.6,0.7,6.4,2.2,8.4c1.4,2,3.3,2.9,5.5,2.9h0.6
		c2.1,0,3.9-0.7,5.4-2.2c1.5-1.5,2.3-3.5,2.3-6.2v-2c0-5.4-2.4-8.1-7.3-8.1H538.4z"/>
	<path class="st2" d="M625,239.6c0,7.1-2.3,12.8-6.9,17.1c-4.6,4.3-11,6.5-19.4,6.5c-8.3,0-14.8-2.2-19.4-6.5
		c-4.6-4.3-6.9-10-6.9-17.1v-34.3c0-7.1,2.3-12.8,6.9-17.1c4.6-4.3,11-6.5,19.4-6.5c8.3,0,14.8,2.2,19.4,6.5
		c4.6,4.3,6.9,10,6.9,17.1V239.6z M606.2,205.3c0-2.2-0.6-3.9-1.9-5.2c-1.3-1.3-3.1-2-5.3-2h-0.4c-2.3,0-4.1,0.7-5.3,2
		c-1.3,1.3-1.9,3.1-1.9,5.2v34.3c0,2.2,0.6,3.9,1.9,5.2c1.3,1.3,3.1,2,5.3,2h0.4c2.3,0,4.1-0.7,5.3-2c1.3-1.3,1.9-3.1,1.9-5.2V205.3
		z"/>
</g>
</svg>
