<?xml version="1.0" encoding="utf-8"?>
<!-- Generator: Adobe Illustrator 26.0.2, SVG Export Plug-In . SVG Version: 6.00 Build 0)  -->
<svg version="1.1"
	 id="Layer_1" xmlns:cc="http://creativecommons.org/ns#" xmlns:dc="http://purl.org/dc/elements/1.1/" xmlns:rdf="http://www.w3.org/1999/02/22-rdf-syntax-ns#" xmlns:svg="http://www.w3.org/2000/svg"
	 xmlns="http://www.w3.org/2000/svg" xmlns:xlink="http://www.w3.org/1999/xlink" x="0px" y="0px" viewBox="0 0 600 337.6"
	 style="enable-background:new 0 0 600 337.6;" xml:space="preserve">
<style type="text/css">
	.st0{fill:#F0FBFC;}
	.st1{fill:#649CA0;}
</style>
<rect id="rect2" x="-0.5" y="-0.5" class="st0" width="600" height="337.6"/>
<g id="g6">
	<path id="path4" class="st1" d="M363,146.1l-21.2,69.7c-1.9,6.5-8.7,11.6-15.3,11.6h-71.1c-7.8,0-16.2-6.2-19.1-14.2
		c-1.2-3.5-1.2-6.9-0.1-9.8c0.1-1.5,0.5-3.1,0.5-4.9c0.1-1.2-0.6-2.2-0.5-3.2c0.3-1.8,1.9-3.2,3.2-5.2c2.3-3.8,4.9-10.1,5.8-14.1
		c0.4-1.5-0.4-3.2,0-4.5c0.4-1.5,1.9-2.5,2.6-3.9c2.1-3.5,4.8-10.4,5.2-14c0.2-1.6-0.6-3.4-0.2-4.6c0.5-1.8,2.2-2.5,3.4-4.1
		c1.9-2.5,4.9-9.9,5.4-13.9c0.2-1.3-0.6-2.6-0.4-4c0.3-1.5,2.2-3,3.4-4.8c3.2-4.8,3.8-15.3,13.6-12.5l-0.1,0.2
		c1.3-0.3,2.6-0.7,3.9-0.7h58.6c3.6,0,6.8,1.6,8.8,4.3c2,2.8,2.5,6.4,1.4,10l-21.1,69.7c-3.6,11.9-5.6,14.5-15.4,14.5h-66.9
		c-1,0-2.2,0.2-2.9,1.2c-0.6,0.9-0.7,1.6-0.1,3.3c1.5,4.5,6.8,5.4,11.1,5.4h71.1c2.8,0,6.1-1.6,7-4.4l23.1-76c0.5-1.5,0.5-3,0.4-4.4
		c1.8,0.7,3.4,1.8,4.5,3.3C363.5,138.9,364.1,142.5,363,146.1z M275,158.5h46.8c1.3,0,2.8-1.1,3.2-2.5l1.6-4.9
		c0.5-1.4-0.3-2.5-1.7-2.5h-46.8c-1.3,0-2.8,1.1-3.2,2.5l-1.6,4.9C272.9,157.4,273.6,158.5,275,158.5z M281.4,138.7h46.8
		c1.3,0,2.8-1.1,3.2-2.5l1.6-4.9c0.5-1.4-0.3-2.5-1.7-2.5h-46.8c-1.3,0-2.8,1.1-3.2,2.5l-1.6,4.9C279.3,137.7,280,138.7,281.4,138.7
		z"/>
</g>
<g>
	<path class="st1" d="M254.9,279.5c-0.3,0.6-0.9,1.1-1.5,1.5s-1.6,0.6-2.6,0.6h-1.9v4.5h-3.1v-12.6h5c1,0,1.9,0.2,2.6,0.5
		c0.7,0.3,1.2,0.8,1.6,1.4c0.3,0.6,0.5,1.3,0.5,2.1C255.5,278.3,255.3,278.9,254.9,279.5z M251.9,278.7c0.3-0.3,0.4-0.7,0.4-1.2
		s-0.1-0.9-0.4-1.2c-0.3-0.3-0.7-0.4-1.3-0.4h-1.7v3.2h1.7C251.2,279.1,251.6,279,251.9,278.7z"/>
	<path class="st1" d="M260.1,275.9v2.6h4.1v2.4h-4.1v2.8h4.7v2.5h-7.7v-12.6h7.7v2.5H260.1z"/>
	<path class="st1" d="M278.1,286.1H275l-5.1-7.8v7.8h-3.1v-12.6h3.1l5.1,7.8v-7.8h3.1V286.1z"/>
	<path class="st1" d="M283.4,275.9v2.6h4.1v2.4h-4.1v2.8h4.7v2.5h-7.7v-12.6h7.7v2.5H283.4z"/>
	<path class="st1" d="M296.5,286.1l-2.6-4.8h-0.7v4.8h-3.1v-12.6h5.2c1,0,1.8,0.2,2.5,0.5c0.7,0.3,1.2,0.8,1.6,1.4
		c0.3,0.6,0.5,1.3,0.5,2c0,0.8-0.2,1.6-0.7,2.2c-0.5,0.7-1.2,1.1-2.1,1.4l2.9,5H296.5z M293.1,279.1h1.9c0.6,0,1-0.1,1.3-0.4
		c0.3-0.3,0.4-0.7,0.4-1.2c0-0.5-0.1-0.9-0.4-1.1c-0.3-0.3-0.7-0.4-1.3-0.4h-1.9V279.1z"/>
	<path class="st1" d="M311.2,280.7c0.4,0.6,0.7,1.2,0.7,2c0,1.1-0.4,1.9-1.1,2.5s-1.8,0.9-3.1,0.9h-5.9v-12.6h5.7
		c1.3,0,2.3,0.3,3,0.9c0.7,0.6,1.1,1.4,1.1,2.4c0,0.7-0.2,1.4-0.6,1.9c-0.4,0.5-0.9,0.8-1.6,1C310.2,279.8,310.8,280.1,311.2,280.7z
		 M304.9,278.6h2c0.5,0,0.9-0.1,1.2-0.3c0.3-0.2,0.4-0.5,0.4-1s-0.1-0.8-0.4-1c-0.3-0.2-0.7-0.3-1.2-0.3h-2V278.6z M308.3,283.3
		c0.3-0.2,0.4-0.6,0.4-1c0-0.4-0.1-0.8-0.4-1c-0.3-0.3-0.7-0.4-1.2-0.4h-2.2v2.8h2.3C307.7,283.6,308.1,283.5,308.3,283.3z"/>
	<path class="st1" d="M316.7,273.5v12.6h-3.1v-12.6H316.7z"/>
	<path class="st1" d="M328.1,273.5v2.5h-3.3v10.2h-3.1v-10.2h-3.3v-2.5H328.1z"/>
	<path class="st1" d="M337.5,283.9h-4.7l-0.8,2.2h-3.2l4.6-12.6h3.6l4.6,12.6h-3.3L337.5,283.9z M336.7,281.5l-1.6-4.6l-1.5,4.6
		H336.7z"/>
	<path class="st1" d="M354.2,286.1h-3.1l-5.1-7.8v7.8h-3.1v-12.6h3.1l5.1,7.8v-7.8h3.1V286.1z"/>
</g>
</svg>
