<?xml version="1.0" encoding="UTF-8" standalone="no"?>
<!-- Created with Inkscape (http://www.inkscape.org/) -->

<svg
   xmlns:dc="http://purl.org/dc/elements/1.1/"
   xmlns:cc="http://creativecommons.org/ns#"
   xmlns:rdf="http://www.w3.org/1999/02/22-rdf-syntax-ns#"
   xmlns:svg="http://www.w3.org/2000/svg"
   xmlns="http://www.w3.org/2000/svg"
   xmlns:sodipodi="http://sodipodi.sourceforge.net/DTD/sodipodi-0.dtd"
   xmlns:inkscape="http://www.inkscape.org/namespaces/inkscape"
   width="16"
   height="16"
   viewBox="0 0 16 16"
   id="svg2"
   version="1.1"
   inkscape:version="0.91 r13725"
   sodipodi:docname="icon-tab.svg">
  <defs
     id="defs4" />
  <sodipodi:namedview
     id="base"
     pagecolor="#ffffff"
     bordercolor="#666666"
     borderopacity="1.0"
     inkscape:pageopacity="0.0"
     inkscape:pageshadow="2"
     inkscape:zoom="22.4"
     inkscape:cx="14.118472"
     inkscape:cy="6.4264372"
     inkscape:document-units="px"
     inkscape:current-layer="layer1"
     showgrid="false"
     inkscape:showpageshadow="false"
     units="px"
     fit-margin-top="0"
     fit-margin-left="0"
     fit-margin-right="0"
     fit-margin-bottom="0"
     inkscape:window-width="1280"
     inkscape:window-height="697"
     inkscape:window-x="-8"
     inkscape:window-y="-8"
     inkscape:window-maximized="1" />
  <metadata
     id="metadata7">
    <rdf:RDF>
      <cc:Work
         rdf:about="">
        <dc:format>image/svg+xml</dc:format>
        <dc:type
           rdf:resource="http://purl.org/dc/dcmitype/StillImage" />
        <dc:title></dc:title>
      </cc:Work>
    </rdf:RDF>
  </metadata>
  <g
     inkscape:label="Layer 1"
     inkscape:groupmode="layer"
     id="layer1"
     transform="translate(0,-1036.3621)"
     style="display:inline">
    <path
       id="path3344"
       style="font-style:normal;font-weight:normal;font-size:medium;line-height:125%;font-family:sans-serif;letter-spacing:0px;word-spacing:0px;fill:#00ccff;fill-opacity:1;stroke:none;stroke-width:1px;stroke-linecap:butt;stroke-linejoin:miter;stroke-opacity:1"
       d="m 4.7289568,1050.9409 0,-3.0466 2.8240445,-1.4609 0,2.7972 -2.8240445,1.7103 z m -0.4706741,-4.0444 -2.9711301,-1.5411 2.9711301,-1.5411 2.9711301,1.5411 -2.9711301,1.5411 z m 8.0014593,4.0444 0,-3.0466 2.824044,-1.4609 0,2.7972 -2.824044,1.7103 z m -0.470674,-4.0444 -2.9711301,-1.5411 2.9711301,-1.5411 2.971129,1.5411 -2.971129,1.5411 z m -3.2947186,-2.6099 0,-2.3786 2.8240436,-1.461 0,2.3696 -2.8240436,1.47 z m -0.4706741,-3.3764 -3.2432385,-1.6837 3.2432385,-1.6836 3.2432387,1.6836 -3.2432387,1.6837 z m 8.0014597,4.6145 c 0,-0.4543 -0.220629,-0.8641 -0.573634,-1.0512 l -3.191759,-1.6569 0,-3.5633 c 0,-0.4543 -0.227983,-0.8642 -0.573635,-1.0511 l -3.2947174,-1.7105 c -0.1176687,-0.063 -0.2426914,-0.089 -0.3677143,-0.089 -0.1250228,0 -0.2500455,0.026 -0.3677141,0.089 l -3.2947186,1.7105 c -0.3456512,0.1869 -0.5736339,0.5968 -0.5736339,1.0511 l 0,3.5633 -3.19175866,1.6569 c -0.34565128,0.1871 -0.57363404,0.5969 -0.57363404,1.0512 l 0,3.7059 c 0,0.4276 0.19856563,0.8284 0.52215406,1.0156 l 3.29471854,1.9953 c 0.1323771,0.089 0.2721085,0.1248 0.4191941,0.1248 0.1470857,0 0.286817,-0.035 0.4191941,-0.1248 l 3.2947186,-1.9953 c 0.022062,-0.012 0.036772,-0.019 0.05148,-0.035 0.014709,0.016 0.029417,0.026 0.05148,0.035 l 3.2947184,1.9953 c 0.132377,0.089 0.272109,0.1248 0.419194,0.1248 0.147085,0 0.286817,-0.035 0.419194,-0.1248 l 3.294719,-1.9953 c 0.323588,-0.1872 0.522154,-0.588 0.522154,-1.0156 l 0,-3.7059 z"
       inkscape:connector-curvature="0" />
  </g>
</svg>
