<?xml version="1.0" encoding="UTF-8" standalone="no"?>
<!-- Generator: Adobe Illustrator 16.0.0, SVG Export Plug-In . SVG Version: 6.00 Build 0)  -->

<svg
   xmlns:dc="http://purl.org/dc/elements/1.1/"
   xmlns:cc="http://creativecommons.org/ns#"
   xmlns:rdf="http://www.w3.org/1999/02/22-rdf-syntax-ns#"
   xmlns:svg="http://www.w3.org/2000/svg"
   xmlns="http://www.w3.org/2000/svg"
   xmlns:sodipodi="http://sodipodi.sourceforge.net/DTD/sodipodi-0.dtd"
   xmlns:inkscape="http://www.inkscape.org/namespaces/inkscape"
   version="1.1"
   id="Layer_1"
   x="0px"
   y="0px"
   width="16px"
   height="16px"
   viewBox="0 0 16 16"
   enable-background="new 0 0 16 16"
   xml:space="preserve"
   inkscape:version="0.91 r13725"
   sodipodi:docname="icon-appreciation.svg"><metadata
     id="metadata11"><rdf:RDF><cc:Work
         rdf:about=""><dc:format>image/svg+xml</dc:format><dc:type
           rdf:resource="http://purl.org/dc/dcmitype/StillImage" /></cc:Work></rdf:RDF></metadata><defs
     id="defs9" /><sodipodi:namedview
     pagecolor="#ffffff"
     bordercolor="#666666"
     borderopacity="1"
     objecttolerance="10"
     gridtolerance="10"
     guidetolerance="10"
     inkscape:pageopacity="0"
     inkscape:pageshadow="2"
     inkscape:window-width="1280"
     inkscape:window-height="697"
     id="namedview7"
     showgrid="false"
     inkscape:zoom="14.75"
     inkscape:cx="-2"
     inkscape:cy="8"
     inkscape:window-x="-8"
     inkscape:window-y="-8"
     inkscape:window-maximized="1"
     inkscape:current-layer="Layer_1" /><g
     id="g3"
     style="fill:#00ccff;fill-opacity:1"><path
       fill="#996699"
       d="M15.665,6.662l-3.447,3.508l0.817,4.958c0.01,0.067,0.01,0.129,0.01,0.197c0,0.257-0.112,0.497-0.39,0.497   c-0.132,0-0.266-0.051-0.38-0.12l-4.264-2.34l-4.263,2.34c-0.125,0.069-0.248,0.12-0.381,0.12c-0.273,0-0.398-0.24-0.398-0.497   c0-0.068,0.009-0.13,0.02-0.197l0.816-4.958L0.349,6.662C0.235,6.533,0.111,6.364,0.111,6.186c0-0.297,0.293-0.416,0.532-0.456   l4.766-0.724l2.137-4.511c0.085-0.188,0.248-0.407,0.465-0.407c0.218,0,0.38,0.219,0.466,0.407l2.138,4.511l4.766,0.724   c0.229,0.04,0.533,0.159,0.533,0.456C15.914,6.364,15.789,6.533,15.665,6.662z"
       id="path5"
       style="fill:#00ccff;fill-opacity:1" /></g></svg>