<?xml version="1.0" encoding="UTF-8" standalone="no"?>
<!-- Generator: Adobe Illustrator 16.0.0, SVG Export Plug-In . SVG Version: 6.00 Build 0)  -->

<svg
   xmlns:dc="http://purl.org/dc/elements/1.1/"
   xmlns:cc="http://creativecommons.org/ns#"
   xmlns:rdf="http://www.w3.org/1999/02/22-rdf-syntax-ns#"
   xmlns:svg="http://www.w3.org/2000/svg"
   xmlns="http://www.w3.org/2000/svg"
   xmlns:sodipodi="http://sodipodi.sourceforge.net/DTD/sodipodi-0.dtd"
   xmlns:inkscape="http://www.inkscape.org/namespaces/inkscape"
   version="1.1"
   id="Layer_1"
   x="0px"
   y="0px"
   width="16px"
   height="16px"
   viewBox="0 0 16 16"
   enable-background="new 0 0 16 16"
   xml:space="preserve"
   inkscape:version="0.91 r13725"
   sodipodi:docname="icon-gallery.svg"><metadata
     id="metadata11"><rdf:RDF><cc:Work
         rdf:about=""><dc:format>image/svg+xml</dc:format><dc:type
           rdf:resource="http://purl.org/dc/dcmitype/StillImage" /></cc:Work></rdf:RDF></metadata><defs
     id="defs9" /><sodipodi:namedview
     pagecolor="#ffffff"
     bordercolor="#666666"
     borderopacity="1"
     objecttolerance="10"
     gridtolerance="10"
     guidetolerance="10"
     inkscape:pageopacity="0"
     inkscape:pageshadow="2"
     inkscape:window-width="686"
     inkscape:window-height="480"
     id="namedview7"
     showgrid="false"
     inkscape:zoom="14.75"
     inkscape:cx="8"
     inkscape:cy="8"
     inkscape:window-x="0"
     inkscape:window-y="0"
     inkscape:window-maximized="0"
     inkscape:current-layer="g3" /><g
     id="g3"><path
       fill="#996699"
       d="M16,13.947C16,15.072,15.072,16,13.947,16H2.052C0.927,16,0,15.072,0,13.947V2.052C0,0.927,0.927,0,2.052,0   h11.896C15.072,0,16,0.927,16,2.052V13.947z M14.188,6.77h-1.406c0.135,0.427,0.207,0.896,0.207,1.364   c0,2.667-2.229,4.824-4.979,4.824c-2.739,0-4.968-2.157-4.968-4.824c0-0.468,0.073-0.937,0.208-1.364H1.781v6.75   c0,0.354,0.281,0.637,0.635,0.637h11.136c0.354,0,0.636-0.282,0.636-0.637V6.77z M8.009,4.854c-1.771,0-3.208,1.396-3.208,3.115   s1.437,3.115,3.208,3.115c1.782,0,3.22-1.396,3.22-3.115S9.791,4.854,8.009,4.854z M14.188,2.5c0-0.396-0.324-0.719-0.719-0.719   h-1.812c-0.396,0-0.719,0.323-0.719,0.719v1.718c0,0.396,0.322,0.719,0.719,0.719h1.812c0.395,0,0.719-0.323,0.719-0.719V2.5z"
       id="path5"
       style="fill:#00ccff;fill-opacity:1" /></g></svg>