<?xml version="1.0" encoding="UTF-8" standalone="no"?>
<svg
   xmlns:dc="http://purl.org/dc/elements/1.1/"
   xmlns:cc="http://creativecommons.org/ns#"
   xmlns:rdf="http://www.w3.org/1999/02/22-rdf-syntax-ns#"
   xmlns:svg="http://www.w3.org/2000/svg"
   xmlns="http://www.w3.org/2000/svg"
   xml:space="preserve"
   enable-background="new 0 0 16 16"
   viewBox="0 0 16 16"
   height="16px"
   width="16px"
   y="0px"
   x="0px"
   id="Layer_1"
   version="1.1"><metadata
     id="metadata11"><rdf:RDF><cc:Work
         rdf:about=""><dc:format>image/svg+xml</dc:format><dc:type
           rdf:resource="http://purl.org/dc/dcmitype/StillImage" /><dc:title></dc:title></cc:Work></rdf:RDF></metadata><defs
     id="defs9" /><g
     id="g3"><path
       style="fill:#ff3300;fill-opacity:1"
       id="path5"
       d="M15.74,5.714v9.429c0,0.474-0.436,0.857-0.971,0.857H1.185c-0.536,0-0.97-0.384-0.97-0.857V0.857   C0.215,0.384,0.65,0,1.185,0H9.27v4.857c0,0.473,0.436,0.857,0.972,0.857H15.74z M11.857,7.143c0-0.161-0.142-0.286-0.323-0.286   H4.419c-0.182,0-0.323,0.125-0.323,0.286v0.571C4.096,7.875,4.237,8,4.419,8h7.115c0.181,0,0.323-0.125,0.323-0.286V7.143z    M11.857,9.428c0-0.16-0.142-0.285-0.323-0.285H4.419c-0.182,0-0.323,0.125-0.323,0.285v0.571c0,0.161,0.141,0.286,0.323,0.286   h7.115c0.181,0,0.323-0.125,0.323-0.286V9.428z M11.857,11.714c0-0.159-0.142-0.284-0.323-0.284H4.419   c-0.182,0-0.323,0.125-0.323,0.284v0.571c0,0.16,0.141,0.285,0.323,0.285h7.115c0.181,0,0.323-0.125,0.323-0.285V11.714z    M15.335,4.571h-4.771V0.357c0.141,0.08,0.264,0.161,0.363,0.25l4.124,3.643C15.152,4.339,15.243,4.446,15.335,4.571z"
       fill="#996699" /></g></svg>