<?xml version="1.0" encoding="UTF-8" standalone="no"?>
<svg
   xmlns:dc="http://purl.org/dc/elements/1.1/"
   xmlns:cc="http://creativecommons.org/ns#"
   xmlns:rdf="http://www.w3.org/1999/02/22-rdf-syntax-ns#"
   xmlns:svg="http://www.w3.org/2000/svg"
   xmlns="http://www.w3.org/2000/svg"
   xml:space="preserve"
   enable-background="new 0 0 16 16"
   viewBox="0 0 16 16"
   height="16px"
   width="16px"
   y="0px"
   x="0px"
   id="Layer_1"
   version="1.1"><metadata
     id="metadata11"><rdf:RDF><cc:Work
         rdf:about=""><dc:format>image/svg+xml</dc:format><dc:type
           rdf:resource="http://purl.org/dc/dcmitype/StillImage" /><dc:title></dc:title></cc:Work></rdf:RDF></metadata><defs
     id="defs9" /><g
     id="g3"><path
       style="fill:#ff3300;fill-opacity:1"
       id="path5"
       d="M16,13.947C16,15.072,15.072,16,13.947,16H2.052C0.927,16,0,15.072,0,13.947V2.052C0,0.927,0.927,0,2.052,0   h11.896C15.072,0,16,0.927,16,2.052V13.947z M14.188,6.77h-1.406c0.135,0.427,0.207,0.896,0.207,1.364   c0,2.667-2.229,4.824-4.979,4.824c-2.739,0-4.968-2.157-4.968-4.824c0-0.468,0.073-0.937,0.208-1.364H1.781v6.75   c0,0.354,0.281,0.637,0.635,0.637h11.136c0.354,0,0.636-0.282,0.636-0.637V6.77z M8.009,4.854c-1.771,0-3.208,1.396-3.208,3.115   s1.437,3.115,3.208,3.115c1.782,0,3.22-1.396,3.22-3.115S9.791,4.854,8.009,4.854z M14.188,2.5c0-0.396-0.324-0.719-0.719-0.719   h-1.812c-0.396,0-0.719,0.323-0.719,0.719v1.718c0,0.396,0.322,0.719,0.719,0.719h1.812c0.395,0,0.719-0.323,0.719-0.719V2.5z"
       fill="#996699" /></g></svg>