<?xml version="1.0" encoding="UTF-8" standalone="no"?>
<!-- Generator: Adobe Illustrator 16.0.0, SVG Export Plug-In . SVG Version: 6.00 Build 0)  -->

<svg
   xmlns:dc="http://purl.org/dc/elements/1.1/"
   xmlns:cc="http://creativecommons.org/ns#"
   xmlns:rdf="http://www.w3.org/1999/02/22-rdf-syntax-ns#"
   xmlns:svg="http://www.w3.org/2000/svg"
   xmlns="http://www.w3.org/2000/svg"
   xmlns:sodipodi="http://sodipodi.sourceforge.net/DTD/sodipodi-0.dtd"
   xmlns:inkscape="http://www.inkscape.org/namespaces/inkscape"
   version="1.1"
   id="Layer_1"
   x="0px"
   y="0px"
   width="16px"
   height="16px"
   viewBox="0 0 16 16"
   enable-background="new 0 0 16 16"
   xml:space="preserve"
   inkscape:version="0.91 r13725"
   sodipodi:docname="icon-slideshow.svg"><metadata
     id="metadata11"><rdf:RDF><cc:Work
         rdf:about=""><dc:format>image/svg+xml</dc:format><dc:type
           rdf:resource="http://purl.org/dc/dcmitype/StillImage" /></cc:Work></rdf:RDF></metadata><defs
     id="defs9" /><sodipodi:namedview
     pagecolor="#ffffff"
     bordercolor="#666666"
     borderopacity="1"
     objecttolerance="10"
     gridtolerance="10"
     guidetolerance="10"
     inkscape:pageopacity="0"
     inkscape:pageshadow="2"
     inkscape:window-width="686"
     inkscape:window-height="480"
     id="namedview7"
     showgrid="false"
     inkscape:zoom="14.75"
     inkscape:cx="8"
     inkscape:cy="8"
     inkscape:window-x="0"
     inkscape:window-y="0"
     inkscape:window-maximized="0"
     inkscape:current-layer="g3" /><g
     id="g3"><path
       fill="#996699"
       d="M16,14.333C16,15.25,15.4,16,14.666,16H1.333C0.6,16,0,15.25,0,14.333V1.667C0,0.75,0.6,0,1.333,0h13.333   C15.4,0,16,0.75,16,1.667V14.333z M1.333,1.333c-0.141,0-0.267,0.156-0.267,0.333v12.666c0,0.177,0.125,0.334,0.267,0.334h13.333   c0.143,0,0.268-0.157,0.268-0.334V1.667c0-0.178-0.125-0.333-0.268-0.333L1.333,1.333L1.333,1.333z M3.733,6.667   c-0.883,0-1.6-0.896-1.6-2s0.716-2,1.6-2c0.884,0,1.601,0.896,1.601,2C5.334,5.77,4.617,6.667,3.733,6.667z M13.867,13.333H2.133   v-2.001L4.799,8l1.334,1.667L10.4,4.333l3.467,4.333V13.333z"
       id="path5"
       style="fill:#00ccff;fill-opacity:1" /></g></svg>