<?xml version="1.0" encoding="UTF-8" standalone="no"?>
<!-- Generator: Adobe Illustrator 16.0.0, SVG Export Plug-In . SVG Version: 6.00 Build 0)  -->

<svg
   xmlns:dc="http://purl.org/dc/elements/1.1/"
   xmlns:cc="http://creativecommons.org/ns#"
   xmlns:rdf="http://www.w3.org/1999/02/22-rdf-syntax-ns#"
   xmlns:svg="http://www.w3.org/2000/svg"
   xmlns="http://www.w3.org/2000/svg"
   xmlns:sodipodi="http://sodipodi.sourceforge.net/DTD/sodipodi-0.dtd"
   xmlns:inkscape="http://www.inkscape.org/namespaces/inkscape"
   version="1.1"
   id="Layer_1"
   x="0px"
   y="0px"
   width="16px"
   height="16px"
   viewBox="0 0 16 16"
   enable-background="new 0 0 16 16"
   xml:space="preserve"
   inkscape:version="0.91 r13725"
   sodipodi:docname="icon-press.svg"><metadata
     id="metadata11"><rdf:RDF><cc:Work
         rdf:about=""><dc:format>image/svg+xml</dc:format><dc:type
           rdf:resource="http://purl.org/dc/dcmitype/StillImage" /></cc:Work></rdf:RDF></metadata><defs
     id="defs9" /><sodipodi:namedview
     pagecolor="#ffffff"
     bordercolor="#666666"
     borderopacity="1"
     objecttolerance="10"
     gridtolerance="10"
     guidetolerance="10"
     inkscape:pageopacity="0"
     inkscape:pageshadow="2"
     inkscape:window-width="686"
     inkscape:window-height="480"
     id="namedview7"
     showgrid="false"
     inkscape:zoom="14.75"
     inkscape:cx="8"
     inkscape:cy="8"
     inkscape:window-x="0"
     inkscape:window-y="0"
     inkscape:window-maximized="0"
     inkscape:current-layer="g3" /><g
     id="g3"><path
       fill="#996699"
       d="M15.74,5.714v9.429c0,0.474-0.436,0.857-0.971,0.857H1.185c-0.536,0-0.97-0.384-0.97-0.857V0.857   C0.215,0.384,0.65,0,1.185,0H9.27v4.857c0,0.473,0.436,0.857,0.972,0.857H15.74z M11.857,7.143c0-0.161-0.142-0.286-0.323-0.286   H4.419c-0.182,0-0.323,0.125-0.323,0.286v0.571C4.096,7.875,4.237,8,4.419,8h7.115c0.181,0,0.323-0.125,0.323-0.286V7.143z    M11.857,9.428c0-0.16-0.142-0.285-0.323-0.285H4.419c-0.182,0-0.323,0.125-0.323,0.285v0.571c0,0.161,0.141,0.286,0.323,0.286   h7.115c0.181,0,0.323-0.125,0.323-0.286V9.428z M11.857,11.714c0-0.159-0.142-0.284-0.323-0.284H4.419   c-0.182,0-0.323,0.125-0.323,0.284v0.571c0,0.16,0.141,0.285,0.323,0.285h7.115c0.181,0,0.323-0.125,0.323-0.285V11.714z    M15.335,4.571h-4.771V0.357c0.141,0.08,0.264,0.161,0.363,0.25l4.124,3.643C15.152,4.339,15.243,4.446,15.335,4.571z"
       id="path5"
       style="fill:#00ccff;fill-opacity:1" /></g></svg>