<?xml version="1.0" encoding="UTF-8" standalone="no"?>
<!-- Generator: Adobe Illustrator 16.0.0, SVG Export Plug-In . SVG Version: 6.00 Build 0)  -->

<svg
   xmlns:dc="http://purl.org/dc/elements/1.1/"
   xmlns:cc="http://creativecommons.org/ns#"
   xmlns:rdf="http://www.w3.org/1999/02/22-rdf-syntax-ns#"
   xmlns:svg="http://www.w3.org/2000/svg"
   xmlns="http://www.w3.org/2000/svg"
   xmlns:sodipodi="http://sodipodi.sourceforge.net/DTD/sodipodi-0.dtd"
   xmlns:inkscape="http://www.inkscape.org/namespaces/inkscape"
   version="1.1"
   id="Layer_1"
   x="0px"
   y="0px"
   width="16px"
   height="16px"
   viewBox="0 0 16 16"
   enable-background="new 0 0 16 16"
   xml:space="preserve"
   inkscape:version="0.91 r13725"
   sodipodi:docname="icon-news.svg"><metadata
     id="metadata11"><rdf:RDF><cc:Work
         rdf:about=""><dc:format>image/svg+xml</dc:format><dc:type
           rdf:resource="http://purl.org/dc/dcmitype/StillImage" /></cc:Work></rdf:RDF></metadata><defs
     id="defs9" /><sodipodi:namedview
     pagecolor="#ffffff"
     bordercolor="#666666"
     borderopacity="1"
     objecttolerance="10"
     gridtolerance="10"
     guidetolerance="10"
     inkscape:pageopacity="0"
     inkscape:pageshadow="2"
     inkscape:window-width="686"
     inkscape:window-height="480"
     id="namedview7"
     showgrid="false"
     inkscape:zoom="14.75"
     inkscape:cx="8"
     inkscape:cy="8"
     inkscape:window-x="104"
     inkscape:window-y="104"
     inkscape:window-maximized="0"
     inkscape:current-layer="g3" /><g
     id="g3"><path
       fill="#996699"
       d="M15.986,6.672c0,0.736-0.506,1.325-1.135,1.325v3.979c0,0.726-0.517,1.325-1.137,1.325   c-1.578-1.53-4.124-3.636-7.201-3.936c-1.055,0.413-1.419,1.854-0.728,2.682c-0.621,1.193,0.178,2.032,1.118,2.892   c-0.55,1.265-2.838,1.285-3.654,0.404C2.736,13.5,1.974,11.654,2.595,9.323H1.512c-0.78,0-1.418-0.746-1.418-1.657V5.677   c0-0.912,0.639-1.658,1.418-1.658H5.77c3.405,0,6.244-2.321,7.946-3.979c0.62,0,1.136,0.602,1.136,1.326v3.978   C15.48,5.345,15.986,5.937,15.986,6.672z M13.716,1.719c-2.313,2.072-4.559,3.264-6.811,3.554V8.07   c2.252,0.29,4.498,1.462,6.811,3.536V1.719z"
       id="path5"
       style="fill:#00ccff;fill-opacity:1" /></g></svg>