<?xml version="1.0" encoding="UTF-8" standalone="no"?>
<svg
   xmlns:dc="http://purl.org/dc/elements/1.1/"
   xmlns:cc="http://creativecommons.org/ns#"
   xmlns:rdf="http://www.w3.org/1999/02/22-rdf-syntax-ns#"
   xmlns:svg="http://www.w3.org/2000/svg"
   xmlns="http://www.w3.org/2000/svg"
   xml:space="preserve"
   enable-background="new 0 0 16 16"
   viewBox="0 0 16 16"
   height="16px"
   width="16px"
   y="0px"
   x="0px"
   id="Layer_1"
   version="1.1"><metadata
     id="metadata11"><rdf:RDF><cc:Work
         rdf:about=""><dc:format>image/svg+xml</dc:format><dc:type
           rdf:resource="http://purl.org/dc/dcmitype/StillImage" /><dc:title></dc:title></cc:Work></rdf:RDF></metadata><defs
     id="defs9" /><g
     id="g3"><path
       style="fill:#ff3300;fill-opacity:1"
       id="path5"
       d="M15.986,6.672c0,0.736-0.506,1.325-1.135,1.325v3.979c0,0.726-0.517,1.325-1.137,1.325   c-1.578-1.53-4.124-3.636-7.201-3.936c-1.055,0.413-1.419,1.854-0.728,2.682c-0.621,1.193,0.178,2.032,1.118,2.892   c-0.55,1.265-2.838,1.285-3.654,0.404C2.736,13.5,1.974,11.654,2.595,9.323H1.512c-0.78,0-1.418-0.746-1.418-1.657V5.677   c0-0.912,0.639-1.658,1.418-1.658H5.77c3.405,0,6.244-2.321,7.946-3.979c0.62,0,1.136,0.602,1.136,1.326v3.978   C15.48,5.345,15.986,5.937,15.986,6.672z M13.716,1.719c-2.313,2.072-4.559,3.264-6.811,3.554V8.07   c2.252,0.29,4.498,1.462,6.811,3.536V1.719z"
       fill="#996699" /></g></svg>