<?xml version="1.0" encoding="UTF-8" standalone="no"?>
<svg
   xmlns:dc="http://purl.org/dc/elements/1.1/"
   xmlns:cc="http://creativecommons.org/ns#"
   xmlns:rdf="http://www.w3.org/1999/02/22-rdf-syntax-ns#"
   xmlns:svg="http://www.w3.org/2000/svg"
   xmlns="http://www.w3.org/2000/svg"
   xml:space="preserve"
   enable-background="new 0 0 16 16"
   viewBox="0 0 16 16"
   height="16px"
   width="16px"
   y="0px"
   x="0px"
   id="Layer_1"
   version="1.1"><metadata
     id="metadata11"><rdf:RDF><cc:Work
         rdf:about=""><dc:format>image/svg+xml</dc:format><dc:type
           rdf:resource="http://purl.org/dc/dcmitype/StillImage" /><dc:title></dc:title></cc:Work></rdf:RDF></metadata><defs
     id="defs9" /><g
     id="g3"><path
       style="fill:#ff3300;fill-opacity:1"
       id="path5"
       d="M16,4.857v10.285C16,15.616,15.553,16,15.001,16H1c-0.551,0-1-0.384-1-0.857V0.857C0,0.384,0.448,0,1,0   h9.334c0.553,0,1.322,0.276,1.707,0.607l3.25,2.785C15.677,3.724,16,4.384,16,4.857z M14.665,5.714h-4.331   c-0.554,0-1.002-0.384-1.002-0.857V1.143H1.333v13.714h13.332V5.714z M4.333,6.857h7.334c0.187,0,0.332,0.125,0.332,0.286v0.57   C11.999,7.875,11.854,8,11.667,8H4.333C4.146,8,4,7.875,4,7.714v-0.57C4,6.982,4.146,6.857,4.333,6.857z M11.999,9.43v0.569   c0,0.162-0.146,0.287-0.332,0.287H4.333C4.146,10.286,4,10.161,4,9.999V9.43c0-0.162,0.146-0.287,0.333-0.287h7.334   C11.854,9.143,11.999,9.268,11.999,9.43z M11.999,11.715v0.57c0,0.161-0.146,0.286-0.332,0.286H4.333   C4.146,12.571,4,12.446,4,12.285v-0.57c0-0.161,0.146-0.286,0.333-0.286h7.334C11.854,11.429,11.999,11.554,11.999,11.715z    M10.666,4.571h3.917c-0.062-0.151-0.155-0.303-0.228-0.366l-3.262-2.794c-0.072-0.062-0.25-0.144-0.428-0.197V4.571z"
       fill="#996699" /></g></svg>