<?xml version="1.0" encoding="UTF-8" standalone="no"?>
<svg
   xmlns:dc="http://purl.org/dc/elements/1.1/"
   xmlns:cc="http://creativecommons.org/ns#"
   xmlns:rdf="http://www.w3.org/1999/02/22-rdf-syntax-ns#"
   xmlns:svg="http://www.w3.org/2000/svg"
   xmlns="http://www.w3.org/2000/svg"
   xml:space="preserve"
   enable-background="new 0 0 16 16"
   viewBox="0 0 16 16"
   height="16px"
   width="16px"
   y="0px"
   x="0px"
   id="Layer_1"
   version="1.1"><metadata
     id="metadata11"><rdf:RDF><cc:Work
         rdf:about=""><dc:format>image/svg+xml</dc:format><dc:type
           rdf:resource="http://purl.org/dc/dcmitype/StillImage" /><dc:title></dc:title></cc:Work></rdf:RDF></metadata><defs
     id="defs9" /><g
     id="g3"><path
       style="fill:#008fff;fill-opacity:1"
       id="path5"
       d="M15.854,8c0,4.336-3.518,7.854-7.854,7.854c-4.335,0-7.853-3.518-7.853-7.854   c0-4.335,3.518-7.852,7.853-7.852C12.336,0.147,15.854,3.665,15.854,8z M10.566,5.668c0.051-0.009,0.104-0.194,0.133-0.234   c0.062-0.072,0.143-0.112,0.225-0.154c0.174-0.071,0.35-0.092,0.533-0.122c0.174-0.042,0.389-0.042,0.521,0.112   c-0.031-0.031,0.215-0.246,0.244-0.255c0.092-0.051,0.245-0.031,0.307-0.124c0.02-0.032,0.02-0.225,0.02-0.225   c-0.172,0.021-0.234-0.143-0.244-0.286c0,0.01-0.02,0.04-0.061,0.081c0.01-0.153-0.184-0.041-0.256-0.061   c-0.236-0.061-0.205-0.225-0.277-0.399c-0.041-0.091-0.152-0.123-0.193-0.214c-0.041-0.061-0.061-0.195-0.154-0.205   c-0.061-0.01-0.172,0.215-0.192,0.205c-0.092-0.051-0.133,0.02-0.205,0.061C10.904,3.89,10.852,3.87,10.791,3.9   c0.186-0.062-0.082-0.164-0.174-0.143c0.145-0.041,0.072-0.194-0.01-0.266c0.02,0,0.031,0,0.051,0   c-0.02-0.091-0.307-0.173-0.398-0.235c-0.091-0.062-0.582-0.164-0.686-0.103C9.451,3.225,9.605,3.43,9.605,3.532   c0.01,0.123-0.123,0.154-0.123,0.256c0,0.173,0.328,0.143,0.246,0.378C9.678,4.309,9.482,4.34,9.4,4.452   C9.318,4.555,9.41,4.738,9.492,4.81C9.574,4.872,9.35,4.974,9.318,4.994C9.146,5.075,9.012,4.82,8.971,4.667   C8.941,4.555,8.93,4.421,8.809,4.36C8.746,4.34,8.553,4.309,8.512,4.371C8.45,4.217,8.236,4.156,8.092,4.104   C7.887,4.033,7.714,4.033,7.499,4.063c0.072-0.01-0.021-0.327-0.194-0.276c0.051-0.102,0.03-0.215,0.051-0.317   c0.02-0.082,0.061-0.164,0.122-0.235c0.021-0.041,0.246-0.276,0.175-0.286c0.173,0.02,0.367,0.03,0.511-0.113   c0.092-0.092,0.133-0.245,0.225-0.347c0.132-0.154,0.296,0.04,0.44,0.051C9.033,2.55,9.023,2.325,8.91,2.223   c0.133,0.01,0.02-0.236-0.051-0.266C8.768,1.926,8.418,2.019,8.604,2.09c-0.041-0.021-0.287,0.49-0.43,0.235   C8.133,2.274,8.113,2.059,8.02,2.049c-0.081,0-0.133,0.092-0.163,0.153c0.051-0.133-0.286-0.224-0.358-0.235   C7.653,1.865,7.53,1.753,7.417,1.691C7.335,1.64,7.08,1.599,7.008,1.681C6.814,1.916,7.213,1.947,7.315,2.008   C7.346,2.028,7.469,2.1,7.397,2.151C7.335,2.182,7.151,2.233,7.131,2.274C7.07,2.366,7.203,2.468,7.11,2.561   C7.019,2.468,7.019,2.314,6.947,2.212c0.092,0.113-0.368,0.052-0.358,0.052c-0.153,0-0.398,0.102-0.511-0.052   C6.057,2.171,6.057,1.937,6.119,1.987C6.026,1.916,5.965,1.844,5.904,1.803C5.566,1.916,5.25,2.059,4.942,2.223   c0.041,0.01,0.072,0.01,0.123-0.011C5.147,2.182,5.219,2.131,5.3,2.09c0.102-0.041,0.317-0.164,0.429-0.072   c0.011-0.02,0.042-0.04,0.052-0.051c0.071,0.082,0.143,0.164,0.204,0.256C5.904,2.182,5.771,2.202,5.679,2.212   C5.607,2.233,5.484,2.253,5.454,2.335c0.03,0.051,0.071,0.133,0.051,0.185C5.372,2.427,5.27,2.274,5.085,2.253   c-0.082,0-0.163,0-0.225,0.011c-0.982,0.542-1.81,1.329-2.403,2.27C2.499,4.575,2.54,4.605,2.581,4.616   c0.102,0.03,0,0.328,0.194,0.173c0.062,0.052,0.072,0.124,0.031,0.195c0.01-0.01,0.419,0.255,0.45,0.276   c0.072,0.062,0.183,0.134,0.215,0.214c0.02,0.072-0.041,0.154-0.103,0.185c-0.01-0.021-0.163-0.174-0.184-0.134   c-0.031,0.052,0,0.328,0.112,0.317C3.133,5.853,3.205,6.488,3.164,6.61c0,0.009,0.02,0.009,0.02,0.009   C3.153,6.743,3.256,7.223,3.46,7.172c-0.132,0.031,0.235,0.5,0.286,0.532c0.133,0.093,0.287,0.152,0.379,0.287   C4.227,8.134,4.227,8.348,4.37,8.46C4.329,8.584,4.585,8.727,4.574,8.898C4.554,8.91,4.544,8.91,4.524,8.92   c0.05,0.143,0.245,0.143,0.316,0.275c0.041,0.082,0,0.275,0.133,0.234C4.994,9.205,4.84,8.98,4.728,8.797   C4.667,8.695,4.605,8.604,4.554,8.5C4.503,8.41,4.492,8.298,4.452,8.195c0.04,0.01,0.265,0.091,0.245,0.122   c-0.082,0.205,0.327,0.562,0.44,0.697C5.167,9.043,5.402,9.35,5.28,9.35c0.133,0,0.317,0.205,0.378,0.309   c0.092,0.152,0.071,0.348,0.133,0.51c0.061,0.206,0.347,0.298,0.511,0.391c0.143,0.071,0.266,0.174,0.409,0.225   c0.215,0.082,0.266,0.011,0.45-0.021c0.266-0.041,0.296,0.256,0.511,0.369c0.133,0.071,0.419,0.174,0.563,0.112   c-0.062,0.019,0.214,0.438,0.234,0.469c0.092,0.124,0.266,0.187,0.368,0.308c0.031-0.021,0.062-0.051,0.072-0.093   c-0.041,0.113,0.153,0.328,0.256,0.308c0.11-0.021,0.144-0.244,0.144-0.326c-0.203,0.104-0.39,0.02-0.5-0.184   c-0.021-0.053-0.187-0.339-0.041-0.339c0.192,0,0.061-0.153,0.041-0.297c-0.021-0.144-0.164-0.235-0.236-0.356   c-0.061,0.121-0.265,0.093-0.327-0.012c0,0.031-0.031,0.082-0.031,0.125c-0.051,0-0.102,0.008-0.153-0.013   c0.021-0.122,0.031-0.274,0.062-0.408c0.05-0.186,0.389-0.543-0.051-0.522c-0.154,0.012-0.215,0.072-0.266,0.207   c-0.051,0.121-0.031,0.234-0.174,0.295c-0.092,0.041-0.399,0.021-0.491-0.029C6.947,10.26,6.814,9.9,6.814,9.697   c-0.01-0.275,0.133-0.521,0-0.776C6.875,8.87,6.937,8.768,7.008,8.715c0.062-0.04,0.133,0.031,0.164-0.091   C7.141,8.604,7.1,8.562,7.09,8.562c0.154,0.071,0.44-0.104,0.573,0c0.082,0.062,0.174,0.08,0.225-0.021   c0.011-0.028-0.071-0.153-0.03-0.235C7.887,8.481,8,8.514,8.154,8.399C8.214,8.46,8.378,8.441,8.491,8.5   c0.112,0.072,0.132,0.186,0.265,0.031C8.838,8.655,8.85,8.655,8.879,8.777C8.91,8.891,8.971,9.176,9.074,9.227   c0.215,0.133,0.162-0.226,0.143-0.348c-0.01-0.009-0.01-0.348-0.021-0.348c-0.325-0.071-0.202-0.326-0.02-0.5   c0.031-0.021,0.266-0.104,0.369-0.183C9.637,7.764,9.748,7.621,9.697,7.49c0.051,0,0.092-0.042,0.113-0.092   C9.779,7.387,9.656,7.284,9.637,7.294c0.07-0.041,0.062-0.103,0.021-0.163c0.103-0.062,0.05-0.173,0.153-0.214   c0.111,0.152,0.336-0.021,0.226-0.143c0.103-0.143,0.338-0.071,0.397-0.206c0.154,0.042,0.041-0.152,0.123-0.265   c0.07-0.093,0.195-0.093,0.285-0.143c0,0.009,0.256-0.143,0.174-0.154c0.176,0.02,0.523-0.164,0.258-0.317   c0.039-0.092-0.094-0.133-0.186-0.152c0.072-0.021,0.164,0.019,0.225-0.021c0.133-0.093,0.041-0.134-0.069-0.164   c-0.146-0.042-0.328,0.051-0.441,0.122C10.721,5.537,10.67,5.648,10.566,5.668z M12.725,12.511   c-0.062-0.062-0.176-0.042-0.256-0.084c-0.084-0.028-0.143-0.06-0.246-0.079c0.021-0.207-0.205-0.277-0.348-0.38   c-0.133-0.102-0.215-0.215-0.408-0.173c-0.021,0.01-0.225,0.08-0.186,0.122c-0.133-0.112-0.193-0.175-0.367-0.228   c-0.162-0.051-0.275-0.254-0.439-0.07c-0.082,0.083-0.041,0.205-0.082,0.287c-0.133-0.111,0.123-0.245,0.021-0.368   c-0.121-0.144-0.336,0.093-0.438,0.151c-0.062,0.053-0.135,0.074-0.174,0.135c-0.053,0.072-0.072,0.164-0.113,0.236   c-0.03-0.082-0.205-0.063-0.215-0.123c0.041,0.244,0.041,0.5,0.092,0.746c0.031,0.143,0,0.377-0.123,0.49   c-0.123,0.112-0.274,0.234-0.295,0.409c-0.021,0.122,0.008,0.235,0.121,0.265c0.01,0.154-0.162,0.267-0.151,0.43   c0,0.012,0.01,0.113,0.021,0.164C10.537,14.198,11.783,13.502,12.725,12.511z"
       fill="#996699" /></g></svg>