<?xml version="1.0" encoding="utf-8"?>
<!-- Generator: Adobe Illustrator 16.0.4, SVG Export Plug-In . SVG Version: 6.00 Build 0)  -->
<svg version="1.2" baseProfile="tiny" id="Layer_1" xmlns="http://www.w3.org/2000/svg" xmlns:xlink="http://www.w3.org/1999/xlink"
	 x="0px" y="0px" width="16px" height="16px" viewBox="0 0 16 16" xml:space="preserve">
<g>
	<path fill="#00CCFF" d="M14.436,13.105c-1.179,0-1.486-1.128-2.548-1.128c-0.771,0-1.061,0.508-1.061,1.26
		c0,0.791,0.308,1.553,0.298,2.336v0.051c-0.105,0-0.212,0-0.317,0.009c-0.995,0.103-1.998,0.306-3.001,0.306
		c-0.686,0-1.4-0.285-1.4-1.116c0-1.118,1.071-1.441,1.071-2.681c0-1.108-0.83-1.707-1.824-1.707c-1.013,0-1.949,0.589-1.949,1.757
		c0,1.29,0.936,1.849,0.936,2.549c0,0.355-0.212,0.671-0.444,0.905C3.898,15.938,3.474,16,3.069,16
		c-0.792,0-1.583-0.112-2.365-0.243c-0.173-0.032-0.356-0.053-0.53-0.083l-0.125-0.021C0.029,15.646,0,15.646,0,15.633V5.236
		c0.039,0.03,0.608,0.102,0.704,0.123C1.486,5.49,2.277,5.603,3.069,5.603c0.405,0,0.829-0.062,1.129-0.356
		c0.231-0.234,0.444-0.549,0.444-0.904c0-0.701-0.936-1.259-0.936-2.549c0-1.167,0.936-1.757,1.958-1.757
		c0.984,0,1.814,0.599,1.814,1.707c0,1.238-1.071,1.563-1.071,2.681c0,0.832,0.714,1.116,1.4,1.116c1.11,0,2.21-0.263,3.31-0.324
		v0.02C11.087,5.277,11.02,5.875,11,5.977c-0.125,0.823-0.23,1.656-0.23,2.488c0,0.426,0.058,0.874,0.337,1.187
		c0.222,0.244,0.521,0.469,0.858,0.469c0.665,0,1.196-0.986,2.423-0.986c1.108,0,1.669,0.986,1.669,2.052
		C16.057,12.231,15.488,13.105,14.436,13.105z"/>
</g>
</svg>
