<?xml version="1.0" encoding="UTF-8" standalone="no"?>
<!-- Generator: Adobe Illustrator 16.0.3, SVG Export Plug-In . SVG Version: 6.00 Build 0)  -->

<svg
   xmlns:dc="http://purl.org/dc/elements/1.1/"
   xmlns:cc="http://creativecommons.org/ns#"
   xmlns:rdf="http://www.w3.org/1999/02/22-rdf-syntax-ns#"
   xmlns:svg="http://www.w3.org/2000/svg"
   xmlns="http://www.w3.org/2000/svg"
   xmlns:sodipodi="http://sodipodi.sourceforge.net/DTD/sodipodi-0.dtd"
   xmlns:inkscape="http://www.inkscape.org/namespaces/inkscape"
   version="1.1"
   id="Layer_1"
   x="0px"
   y="0px"
   width="16px"
   height="16px"
   viewBox="0 0 16 16"
   enable-background="new 0 0 16 16"
   xml:space="preserve"
   inkscape:version="0.91 r13725"
   sodipodi:docname="icon-event.svg"><metadata
     id="metadata11"><rdf:RDF><cc:Work
         rdf:about=""><dc:format>image/svg+xml</dc:format><dc:type
           rdf:resource="http://purl.org/dc/dcmitype/StillImage" /></cc:Work></rdf:RDF></metadata><defs
     id="defs9" /><sodipodi:namedview
     pagecolor="#ffffff"
     bordercolor="#666666"
     borderopacity="1"
     objecttolerance="10"
     gridtolerance="10"
     guidetolerance="10"
     inkscape:pageopacity="0"
     inkscape:pageshadow="2"
     inkscape:window-width="686"
     inkscape:window-height="480"
     id="namedview7"
     showgrid="false"
     inkscape:zoom="14.75"
     inkscape:cx="8"
     inkscape:cy="8"
     inkscape:window-x="0"
     inkscape:window-y="0"
     inkscape:window-maximized="0"
     inkscape:current-layer="g3" /><g
     id="g3"><path
       fill="#996699"
       d="M16,14.859C16,15.482,15.441,16,14.77,16H1.231C0.558,16,0,15.482,0,14.859V3.454   C0,2.83,0.558,2.313,1.231,2.313h1.23V1.458c0-0.783,0.693-1.425,1.539-1.425h0.616c0.846,0,1.538,0.642,1.538,1.425v0.855h3.692   V1.458c0-0.783,0.693-1.425,1.541-1.425h0.612c0.849,0,1.539,0.642,1.539,1.425v0.855h1.229C15.441,2.313,16,2.83,16,3.454V14.859z    M4,8.301V5.735H1.231v2.566H4z M4,11.725V8.872H1.231v2.853H4z M4,14.859v-2.566H1.231v2.566H4z M4.923,1.458   c0-0.151-0.145-0.285-0.307-0.285H4c-0.164,0-0.308,0.134-0.308,0.285v2.567C3.692,4.176,3.836,4.31,4,4.31h0.616   c0.163,0,0.307-0.134,0.307-0.285V1.458z M7.692,8.301V5.735H4.616v2.566H7.692z M7.692,11.725V8.872H4.616v2.853H7.692z    M7.692,14.859v-2.566H4.616v2.566H7.692z M11.387,8.301V5.735h-3.08v2.566H11.387z M11.387,11.725V8.872h-3.08v2.853H11.387z    M11.387,14.859v-2.566h-3.08v2.566H11.387z M12.309,1.458c0-0.151-0.145-0.285-0.31-0.285h-0.612c-0.166,0-0.31,0.134-0.31,0.285   v2.567c0,0.151,0.144,0.285,0.31,0.285h0.612c0.165,0,0.31-0.134,0.31-0.285V1.458z M14.77,8.301V5.735h-2.771v2.566H14.77z    M14.77,11.725V8.872h-2.771v2.853H14.77z M14.77,14.859v-2.566h-2.771v2.566H14.77z"
       id="path5"
       style="fill:#00ccff;fill-opacity:1" /></g></svg>