<?xml version="1.0" encoding="UTF-8" standalone="no"?>
<svg id="svg3702" xmlns:rdf="http://www.w3.org/1999/02/22-rdf-syntax-ns#" xmlns="http://www.w3.org/2000/svg" viewBox="0 0 320 80.000001" width="320" version="1.1" xmlns:cc="http://creativecommons.org/ns#" height="80" xmlns:dc="http://purl.org/dc/elements/1.1/">
 <defs id="defs3704">
  <clipPath id="clipPath16" clipPathUnits="userSpaceOnUse">
   <path id="path18" d="m0 612h792v-612h-792v612z"/>
  </clipPath>
 </defs>
 <metadata id="metadata3707">
  <rdf:RDF>
   <cc:Work rdf:about="">
    <dc:format>image/svg+xml</dc:format>
    <dc:type rdf:resource="http://purl.org/dc/dcmitype/StillImage"/>
    <dc:title/>
   </cc:Work>
  </rdf:RDF>
 </metadata>
 <g id="layer1" transform="translate(0 -972.36)">
  <g id="layer1-1" transform="matrix(1.583 0 0 1.583 65.876 -572.09)">
   <g id="g6538" transform="matrix(.28105 0 0 .28105 -10.802 710.39)">
    <g id="g12" transform="matrix(1.25 0 0 -1.25 -247.11 1414.1)">
     <g id="g14" clip-path="url(#clipPath16)">
      <g id="g20" transform="translate(386.64 346.02)">
       <path id="path22" d="m0 0h-4.719v3.844c-2.408-2.667-5.28-4-8.615-4-2.476 0-4.44 0.695-5.893 2.087-1.453 1.391-2.179 3.314-2.179 5.768v14.964c0 0.905-0.109 1.479-0.325 1.722s-0.723 0.365-1.519 0.365v0.25h6.625v-0.25c-0.697 0-1.189-0.11-1.476-0.331-0.287-0.22-0.43-0.743-0.43-1.567v-13.712c0-2.87 0.673-4.919 2.019-6.145s2.879-1.839 4.598-1.839c2.704 0 5.102 1.198 7.195 3.594v16.941c0 1.484-0.13 2.365-0.389 2.642-0.26 0.278-0.665 0.417-1.218 0.417h-0.237v0.25h6.563v-0.25c-0.812-0.045-1.322-0.181-1.531-0.407-0.209-0.227-0.313-0.656-0.313-1.29v-20.36c0-0.803 0.039-1.329 0.118-1.578 0.08-0.249 0.24-0.455 0.483-0.619 0.242-0.164 0.657-0.246 1.243-0.246v-0.25z" fill="#fff"/>
      </g>
      <g id="g24" transform="translate(399.43 358.97)">
       <path id="path26" d="m0 0h2.484v-0.125c-0.377-0.012-0.637-0.093-0.782-0.242-0.145-0.15-0.218-0.465-0.218-0.946v-11.796l-10.359 11.005v-9.589c0-0.305 0.023-0.531 0.07-0.678 0.046-0.147 0.113-0.246 0.2-0.299 0.086-0.053 0.304-0.105 0.652-0.158v-0.125h-2.485v0.125c0.449 0 0.728 0.079 0.837 0.237s0.163 0.537 0.163 1.135v8.771c0 0.768-0.106 1.396-0.319 1.882-0.214 0.488-0.706 0.713-1.477 0.678v0.125h2.429l9.743-10.35v9.16c0 0.493-0.088 0.794-0.263 0.902-0.176 0.108-0.401 0.163-0.675 0.163v0.125z" fill="#fff"/>
      </g>
      <g id="g28" transform="translate(407.66 358.97)">
       <path id="path30" d="m0 0v-0.125c-0.171 0.018-0.361-0.009-0.57-0.079-0.21-0.07-0.334-0.173-0.372-0.308s-0.058-0.455-0.058-0.959v-9.95c0-0.539 0.022-0.869 0.066-0.989s0.13-0.22 0.257-0.299c0.127-0.08 0.353-0.119 0.677-0.119v-0.125h-3.469v0.125c0.435 0 0.704 0.083 0.811 0.251 0.105 0.167 0.158 0.547 0.158 1.139v9.853c0 0.615-0.059 1.019-0.176 1.209-0.118 0.19-0.382 0.274-0.793 0.251v0.125h3.469z" fill="#fff"/>
      </g>
      <g id="g32" transform="translate(415.66 345.8)">
       <path id="path34" d="m0 0h-0.167l-4.609 11.43c-0.328 0.802-0.597 1.273-0.808 1.41-0.211 0.138-0.428 0.207-0.649 0.207v0.125h2.984v-0.125c-0.263 0.017-0.394-0.085-0.394-0.307 0-0.088 0.018-0.182 0.053-0.281l4.023-9.976 3.98 9.968c0.053 0.134 0.079 0.242 0.079 0.324 0 0.199-0.153 0.289-0.46 0.272v0.125h1.938v-0.125c-0.135 0-0.277-0.019-0.426-0.057-0.148-0.038-0.302-0.189-0.46-0.453-0.157-0.264-0.239-0.404-0.245-0.422l-4.839-12.115z" fill="#fff"/>
      </g>
      <g id="g36" transform="translate(423.47 358.84)">
       <path id="path38" d="m0 0v0.125h8.156v-1.781h-0.125c-0.177 0.661-0.324 1.051-0.445 1.168-0.12 0.117-0.415 0.175-0.885 0.175h-4.279v-5.812h3.974c0.393 0 0.643 0.037 0.749 0.111 0.106 0.075 0.162 0.183 0.168 0.326h0.125v-1.234h-0.125c-0.03 0.173-0.099 0.289-0.208 0.348-0.109 0.06-0.31 0.09-0.603 0.09h-4.08v-3.999c0-0.604 0.056-1.039 0.167-1.306 0.111-0.266 0.289-0.433 0.532-0.501 0.244-0.067 0.612-0.101 1.105-0.101h2.289c0.727 0 1.192 0.025 1.394 0.075 0.202 0.049 0.374 0.148 0.515 0.296 0.14 0.148 0.25 0.473 0.326 0.973h0.125v-1.781h-8.875v0.125c0.301 0.017 0.53 0.075 0.687 0.172 0.157 0.096 0.235 0.347 0.235 0.753v10.483c0 0.476-0.042 0.811-0.124 1.004-0.083 0.194-0.349 0.291-0.798 0.291" fill="#fff"/>
      </g>
      <g id="g40" transform="translate(436.78 358.61)">
       <path id="path42" d="m0 0v-6.063h1.354c1.066 0 1.857 0.252 2.373 0.755 0.515 0.503 0.773 1.164 0.773 1.983 0 0.795-0.254 1.548-0.761 2.259s-1.398 1.066-2.676 1.066h-1.063zm-2.422 0.234v0.125h3.667c0.93 0 1.603-0.02 2.018-0.061s0.841-0.178 1.276-0.409c0.436-0.232 0.765-0.546 0.986-0.942 0.223-0.396 0.334-0.882 0.334-1.456 0-0.658-0.197-1.284-0.591-1.879-0.395-0.595-0.952-1.098-1.67-1.509l0.912-1.407c0.199-0.351 0.726-1.122 1.583-2.311 0.856-1.19 1.518-1.916 1.986-2.178 0.469-0.263 0.922-0.395 1.36-0.395 0.434 0 0.931 0.167 1.493 0.5l0.052-0.174c-0.701-0.572-1.612-0.857-2.733-0.857-0.748 0-1.391 0.222-1.928 0.667-0.538 0.445-1.473 1.663-2.808 3.655-0.012 0.011-0.018 0.023-0.018 0.035l-1.3 2.003-1.151-0.036h-1.046v-4.958c0-0.398 0.053-0.684 0.158-0.856 0.106-0.173 0.36-0.26 0.764-0.26v-0.125h-3.344v0.125c0.411 0.018 0.668 0.106 0.77 0.264 0.101 0.158 0.152 0.481 0.152 0.968v10.301c0 0.334-0.044 0.612-0.131 0.832-0.087 0.219-0.35 0.333-0.791 0.338" fill="#fff"/>
      </g>
      <g id="g44" transform="translate(455.9 358.8)">
       <path id="path46" d="m0 0 0.609-1.623-0.109-0.018c0 0.006-0.163 0.177-0.487 0.513-0.325 0.335-0.696 0.594-1.114 0.776-0.418 0.183-0.889 0.274-1.415 0.274-0.882 0-1.583-0.252-2.099-0.756-0.518-0.504-0.776-1.112-0.776-1.822 0-0.473 0.119-0.885 0.356-1.238 0.237-0.352 0.742-0.681 1.516-0.987 1.331-0.447 2.242-0.783 2.732-1.009 0.49-0.225 0.962-0.607 1.417-1.146s0.683-1.23 0.683-2.073c0-0.352-0.042-0.687-0.124-1.006-0.082-0.32-0.214-0.627-0.396-0.922-0.182-0.296-0.399-0.566-0.654-0.809s-0.515-0.427-0.779-0.553c-0.263-0.126-0.68-0.221-1.249-0.286-0.568-0.064-0.943-0.096-1.125-0.096h-3.455v3.765h0.125c0.012-1.24 0.305-2.105 0.88-2.594 0.575-0.49 1.471-0.734 2.686-0.734 1.103 0 1.941 0.26 2.513 0.779 0.573 0.519 0.859 1.143 0.859 1.872 0 0.443-0.101 0.82-0.3 1.132-0.2 0.312-0.479 0.586-0.837 0.823-0.358 0.236-1.036 0.525-2.032 0.866-0.991 0.348-1.688 0.652-2.09 0.913-0.402 0.26-0.738 0.652-1.009 1.177-0.269 0.523-0.404 1.058-0.404 1.602 0 1.001 0.345 1.841 1.034 2.521 0.69 0.679 1.597 1.018 2.718 1.018 0.434 0 0.904-0.049 1.41-0.149 0.505-0.099 0.786-0.163 0.845-0.192 0.023-0.012 0.048-0.018 0.071-0.018" fill="#fff"/>
      </g>
      <g id="g48" transform="translate(462.75 358.97)">
       <path id="path50" d="m0 0v-0.125c-0.172 0.018-0.361-0.009-0.571-0.079-0.209-0.07-0.333-0.173-0.372-0.308-0.038-0.135-0.057-0.455-0.057-0.959v-9.95c0-0.539 0.021-0.869 0.066-0.989 0.044-0.12 0.129-0.22 0.256-0.299 0.127-0.08 0.353-0.119 0.678-0.119v-0.125h-3.469v0.125c0.434 0 0.704 0.083 0.81 0.251 0.105 0.167 0.159 0.547 0.159 1.139v9.853c0 0.615-0.06 1.019-0.177 1.209s-0.382 0.274-0.792 0.251v0.125h3.469z" fill="#fff"/>
      </g>
      <g id="g52" transform="translate(475.32 359.41)">
       <path id="path54" d="m0 0-0.609-1.547h-0.125c0.023 0.093 0.035 0.218 0.035 0.374 0 0.134-0.049 0.219-0.146 0.257-0.096 0.038-0.25 0.057-0.461 0.057h-3.382v-11.088c0-0.457 0.037-0.769 0.11-0.936 0.072-0.167 0.172-0.273 0.298-0.317 0.125-0.044 0.328-0.066 0.608-0.066v-0.125h-3.516v0.125c0.443 0.03 0.72 0.115 0.832 0.255 0.112 0.141 0.168 0.434 0.168 0.88v11.272h-3.247c-0.329 0-0.543-0.019-0.642-0.057-0.1-0.038-0.15-0.132-0.15-0.283 0-0.075 0.024-0.192 0.071-0.348h-0.125l-0.61 1.547h0.125c0.106-0.206 0.209-0.33 0.312-0.373 0.102-0.043 0.323-0.065 0.663-0.065h8.603c0.339 0 0.584 0.022 0.733 0.065s0.26 0.167 0.33 0.373h0.125z" fill="#fff"/>
      </g>
      <g id="g56" transform="translate(480.46 358.97)">
       <path id="path58" d="m0 0v-0.125c-0.171 0.018-0.361-0.009-0.57-0.079-0.21-0.07-0.334-0.173-0.372-0.308s-0.058-0.455-0.058-0.959v-9.95c0-0.539 0.022-0.869 0.066-0.989 0.045-0.12 0.13-0.22 0.257-0.299 0.127-0.08 0.353-0.119 0.677-0.119v-0.125h-3.469v0.125c0.435 0 0.705 0.083 0.811 0.251 0.105 0.167 0.158 0.547 0.158 1.139v9.853c0 0.615-0.059 1.019-0.176 1.209s-0.382 0.274-0.793 0.251v0.125h3.469z" fill="#fff"/>
      </g>
      <g id="g60" transform="translate(362.95 339.58)">
       <path id="path62" d="m0 0h6.719v-0.25c-0.725 0.032-1.234-0.078-1.528-0.328-0.294-0.251-0.441-0.903-0.441-1.958v-9.033l13.998 10.503c0.277 0.192 0.416 0.368 0.416 0.528 0 0.192-0.315 0.288-0.945 0.288v0.25h5.094v-0.25c-1.286-0.032-2.54-0.495-3.761-1.391l-12.186-9.105 12.17-9.236c0.01-0.011 0.026-0.022 0.047-0.033 0.021-0.01 0.038-0.026 0.048-0.048 0.021-0.01 0.042-0.015 0.064-0.015 1.591-1.193 2.826-2.031 3.707-2.512 0.88-0.482 1.704-0.723 2.473-0.723v-0.25h-8v0.25c0.714 0 1.071 0.081 1.071 0.241 0 0.138-0.294 0.431-0.88 0.879l-13.316 10.099v-8.728c0-1.022 0.072-1.651 0.216-1.884 0.144-0.234 0.336-0.401 0.576-0.503s0.632-0.136 1.177-0.104v-0.25h-6.719v0.25c0.896-0.042 1.458 0.093 1.687 0.408 0.23 0.313 0.344 0.976 0.344 1.988v18.255c0 1.043-0.114 1.72-0.344 2.028-0.229 0.309-0.791 0.437-1.687 0.384v0.25z" fill="#fff"/>
      </g>
      <g id="g64" transform="translate(389.64 328.84)">
       <path id="path66" d="m0 0v0.125h8.157v-1.781h-0.125c-0.177 0.661-0.325 1.051-0.446 1.168-0.12 0.117-0.415 0.175-0.884 0.175h-4.28v-5.812h3.974c0.394 0 0.644 0.037 0.749 0.111 0.106 0.075 0.162 0.183 0.168 0.326h0.125v-1.234h-0.125c-0.03 0.173-0.099 0.289-0.208 0.348-0.108 0.06-0.31 0.09-0.603 0.09h-4.08v-3.999c0-0.604 0.056-1.038 0.167-1.306 0.112-0.266 0.289-0.434 0.533-0.5 0.243-0.068 0.611-0.102 1.104-0.102h2.289c0.727 0 1.192 0.025 1.395 0.075 0.202 0.048 0.374 0.148 0.514 0.296 0.141 0.149 0.249 0.473 0.326 0.973h0.125v-1.781h-8.875v0.125c0.301 0.017 0.53 0.074 0.687 0.172 0.157 0.096 0.235 0.347 0.235 0.753v10.483c0 0.476-0.042 0.811-0.124 1.004-0.083 0.194-0.349 0.291-0.798 0.291" fill="#fff"/>
      </g>
      <g id="g68" transform="translate(404.33 322.73)">
       <path id="path70" d="m0 0h-1.009v-4.097c0-0.567 0.022-0.935 0.066-1.104 0.044-0.17 0.143-0.349 0.298-0.535 0.155-0.188 0.405-0.338 0.75-0.452 0.345-0.115 0.842-0.171 1.492-0.171 1.006 0 1.716 0.232 2.131 0.697s0.623 1.153 0.623 2.065c0 0.948-0.185 1.72-0.553 2.316s-0.785 0.959-1.25 1.088-1.314 0.193-2.548 0.193m-1.009 5.969v-5.703h1.573c1.067 0 1.775 0.305 2.124 0.917 0.348 0.61 0.522 1.218 0.522 1.824 0 0.652-0.135 1.197-0.404 1.635-0.27 0.438-0.663 0.768-1.182 0.992-0.519 0.223-1.282 0.335-2.29 0.335h-0.343zm-2.422 0.14v0.125h3.371c0.986 0 1.684-0.041 2.095-0.123 0.41-0.082 0.804-0.239 1.179-0.471 0.376-0.232 0.695-0.567 0.96-1.004 0.264-0.437 0.395-0.934 0.395-1.492 0-1.098-0.539-1.963-1.617-2.597 0.932-0.158 1.635-0.544 2.11-1.155 0.473-0.613 0.71-1.355 0.71-2.228 0-0.813-0.203-1.555-0.61-2.223s-0.872-1.111-1.396-1.331c-0.524-0.219-1.257-0.329-2.2-0.329h-4.997v0.125c0.395 0 0.647 0.08 0.757 0.242 0.111 0.162 0.165 0.574 0.165 1.237v9.764c0 0.469-0.013 0.789-0.04 0.959-0.026 0.17-0.113 0.296-0.262 0.378-0.147 0.082-0.354 0.123-0.62 0.123" fill="#fff"/>
      </g>
      <g id="g72" transform="translate(415.28 322.33)">
       <path id="path74" d="m0 0h3.519l-1.768 4.42-1.751-4.42zm3.681-0.359h-3.807l-1.953-4.888c-0.135-0.352-0.202-0.568-0.202-0.65 0-0.194 0.143-0.291 0.43-0.291v-0.125h-1.921v0.125c0.256 0 0.472 0.063 0.648 0.19 0.175 0.125 0.367 0.452 0.578 0.98l4.693 11.846h0.234l4.619-11.439c0-0.059 0.117-0.336 0.354-0.832 0.235-0.496 0.593-0.745 1.077-0.745v-0.125h-3.016v0.125c0.274 0 0.412 0.109 0.412 0.326 0 0.146-0.067 0.381-0.202 0.703-0.023 0.023-0.044 0.061-0.062 0.114-0.011 0.059-0.02 0.088-0.026 0.088l-1.856 4.598z" fill="#fff"/>
      </g>
      <g id="g76" transform="translate(436.6 328.97)">
       <path id="path78" d="m0 0h2.484v-0.125c-0.377-0.012-0.637-0.093-0.782-0.242-0.145-0.15-0.218-0.465-0.218-0.946v-11.796l-10.359 11.005v-9.589c0-0.305 0.023-0.532 0.069-0.678 0.047-0.147 0.114-0.246 0.201-0.299 0.086-0.053 0.304-0.105 0.652-0.158v-0.125h-2.485v0.125c0.449 0 0.728 0.079 0.836 0.237 0.11 0.158 0.164 0.537 0.164 1.135v8.771c0 0.768-0.106 1.396-0.32 1.882-0.213 0.488-0.705 0.713-1.476 0.678v0.125h2.429l9.743-10.35v9.16c0 0.493-0.088 0.794-0.263 0.902-0.176 0.108-0.401 0.163-0.675 0.163v0.125z" fill="#fff"/>
      </g>
      <g id="g80" transform="translate(454.48 316.14)">
       <path id="path82" d="m0 0v-0.125h-5.222c-1.002 0-1.88 0.108-2.632 0.325-0.753 0.217-1.521 0.628-2.303 1.236-0.782 0.605-1.416 1.36-1.9 2.262-0.483 0.903-0.724 1.826-0.724 2.769 0 1.032 0.302 2.06 0.909 3.085 0.606 1.026 1.47 1.859 2.589 2.501 1.119 0.641 2.387 0.963 3.805 0.963 1.272 0 2.618-0.285 4.036-0.852l0.536-1.508h-0.12c-0.453 0.576-1.07 1.053-1.852 1.432-0.783 0.379-1.655 0.568-2.617 0.568-1.671 0-3.04-0.627-4.108-1.88-1.067-1.254-1.6-2.81-1.6-4.668 0-0.772 0.088-1.46 0.264-2.065 0.175-0.605 0.505-1.201 0.989-1.788 0.483-0.587 1.002-1.02 1.555-1.298 0.554-0.277 1.174-0.47 1.86-0.578s1.231-0.156 1.636-0.145l0.694 0.018c0.785 0.029 1.276 0.102 1.473 0.219 0.196 0.116 0.294 0.414 0.294 0.892v1.951c0 0.379-0.08 0.634-0.239 0.765-0.16 0.132-0.387 0.189-0.682 0.171v0.125h3.359v-0.125c-0.374 0-0.624-0.073-0.749-0.22-0.126-0.146-0.189-0.426-0.189-0.842v-2.038c0-0.41 0.054-0.704 0.163-0.882 0.107-0.179 0.304-0.268 0.59-0.268h0.185z" fill="#fff"/>
      </g>
      <g id="g84" transform="translate(463.15 328.8)">
       <path id="path86" d="m0 0 0.609-1.623-0.109-0.018c0 0.006-0.162 0.177-0.486 0.513-0.325 0.335-0.696 0.594-1.114 0.776-0.418 0.183-0.889 0.274-1.415 0.274-0.882 0-1.583-0.252-2.099-0.756-0.518-0.504-0.777-1.112-0.777-1.822 0-0.473 0.12-0.885 0.357-1.238 0.236-0.352 0.742-0.681 1.516-0.987 1.331-0.447 2.242-0.783 2.732-1.009 0.489-0.225 0.962-0.607 1.417-1.146 0.454-0.539 0.682-1.23 0.682-2.073 0-0.352-0.042-0.687-0.124-1.006-0.082-0.32-0.213-0.627-0.395-0.922-0.182-0.296-0.4-0.566-0.655-0.809s-0.514-0.427-0.778-0.553-0.68-0.221-1.249-0.286c-0.568-0.064-0.943-0.096-1.125-0.096h-3.456v3.765h0.125c0.012-1.24 0.306-2.105 0.881-2.594 0.575-0.49 1.47-0.734 2.686-0.734 1.102 0 1.94 0.26 2.512 0.779 0.573 0.518 0.859 1.143 0.859 1.872 0 0.443-0.1 0.82-0.299 1.132-0.2 0.312-0.48 0.586-0.838 0.823-0.358 0.236-1.035 0.525-2.032 0.866-0.99 0.348-1.687 0.652-2.089 0.913-0.402 0.26-0.738 0.652-1.009 1.177-0.269 0.523-0.405 1.058-0.405 1.602 0 1.001 0.346 1.841 1.035 2.521 0.69 0.679 1.596 1.018 2.718 1.018 0.434 0 0.904-0.049 1.409-0.149 0.505-0.099 0.787-0.163 0.846-0.192 0.023-0.012 0.047-0.018 0.07-0.018" fill="#fff"/>
      </g>
      <g id="g88" transform="translate(470.15 322.33)">
       <path id="path90" d="m0 0h3.519l-1.768 4.42-1.751-4.42zm3.681-0.359h-3.807l-1.953-4.888c-0.135-0.352-0.202-0.568-0.202-0.65 0-0.194 0.143-0.291 0.43-0.291v-0.125h-1.921v0.125c0.256 0 0.472 0.063 0.648 0.19 0.175 0.125 0.368 0.452 0.578 0.98l4.693 11.846h0.234l4.619-11.439c0-0.059 0.118-0.336 0.354-0.832 0.235-0.496 0.594-0.745 1.077-0.745v-0.125h-3.016v0.125c0.275 0 0.413 0.109 0.413 0.326 0 0.146-0.067 0.381-0.202 0.703-0.023 0.023-0.044 0.061-0.062 0.114-0.011 0.059-0.02 0.088-0.026 0.088l-1.857 4.598z" fill="#fff"/>
      </g>
      <g id="g92" transform="translate(483.98 322.33)">
       <path id="path94" d="m0 0h3.519l-1.769 4.42-1.75-4.42zm3.681-0.359h-3.807l-1.953-4.888c-0.135-0.352-0.202-0.568-0.202-0.65 0-0.194 0.142-0.291 0.429-0.291v-0.125h-1.921v0.125c0.256 0 0.473 0.063 0.648 0.19 0.176 0.125 0.368 0.452 0.579 0.98l4.693 11.846h0.233l4.62-11.439c0-0.059 0.117-0.336 0.353-0.832 0.235-0.496 0.594-0.745 1.077-0.745v-0.125h-3.016v0.125c0.275 0 0.413 0.109 0.413 0.326 0 0.146-0.067 0.381-0.202 0.703-0.023 0.023-0.044 0.061-0.062 0.114-0.011 0.059-0.02 0.088-0.026 0.088l-1.856 4.598z" fill="#fff"/>
      </g>
      <g id="g96" transform="translate(505.29 328.97)">
       <path id="path98" d="m0 0h2.484v-0.125c-0.377-0.012-0.637-0.093-0.782-0.242-0.145-0.15-0.218-0.465-0.218-0.946v-11.796l-10.359 11.005v-9.589c0-0.305 0.023-0.532 0.069-0.678 0.047-0.147 0.114-0.246 0.201-0.299 0.086-0.053 0.304-0.105 0.652-0.158v-0.125h-2.485v0.125c0.449 0 0.728 0.079 0.836 0.237 0.11 0.158 0.164 0.537 0.164 1.135v8.771c0 0.768-0.106 1.396-0.32 1.882-0.213 0.488-0.705 0.713-1.476 0.678v0.125h2.429l9.743-10.35v9.16c0 0.493-0.088 0.794-0.263 0.902-0.176 0.108-0.401 0.163-0.675 0.163v0.125z" fill="#fff"/>
      </g>
      <g id="g100" transform="translate(384.82 309.58)">
       <path id="path102" d="m0 0h3.728v-0.25c-1.263-0.064-1.894-0.718-1.894-1.961 0-0.267 0.032-0.633 0.096-1.102l2.483-17.851c0.148-0.885 0.316-1.451 0.502-1.698s0.572-0.398 1.157-0.451v-0.25h-5.281v0.25c0.689-0.021 1.034 0.315 1.034 1.01 0 0.157-0.033 0.468-0.096 0.931l-2.407 17.309-8.441-19.5h-0.159l-8.49 19.469-2.39-17.405c-0.043-0.263-0.064-0.563-0.064-0.899 0-0.61 0.358-0.915 1.075-0.915v-0.25h-3.594v0.25c0.543 0 0.892 0.065 1.046 0.196 0.154 0.129 0.275 0.341 0.36 0.634s0.148 0.621 0.191 0.983l2.678 19.039c-0.434 1.049-0.868 1.681-1.302 1.893s-0.852 0.318-1.254 0.318v0.25h4.434l8.292-19.247 8.296 19.247z" fill="#fff"/>
      </g>
      <g id="g104" transform="translate(394.85 292.33)">
       <path id="path106" d="m0 0h3.519l-1.769 4.42-1.75-4.42zm3.68-0.359h-3.806l-1.953-4.888c-0.135-0.352-0.202-0.568-0.202-0.65 0-0.194 0.143-0.291 0.43-0.291v-0.125h-1.922v0.125c0.257 0 0.473 0.063 0.648 0.19 0.176 0.125 0.369 0.452 0.579 0.98l4.693 11.846h0.233l4.62-11.439c0-0.059 0.118-0.336 0.353-0.832s0.595-0.745 1.077-0.745v-0.125h-3.015v0.125c0.275 0 0.413 0.109 0.413 0.326 0 0.146-0.068 0.381-0.203 0.703-0.023 0.023-0.043 0.061-0.061 0.114-0.012 0.059-0.021 0.088-0.026 0.088l-1.858 4.598z" fill="#fff"/>
      </g>
      <g id="g108" transform="translate(404.66 286.02)">
       <path id="path110" d="m0 0v0.125c0.405 0 0.668 0.076 0.788 0.229 0.12 0.152 0.181 0.414 0.181 0.783v10.609c0 0.375-0.047 0.647-0.141 0.814s-0.375 0.256-0.844 0.268v0.125h3.485v-0.125c-0.324 0-0.552-0.041-0.682-0.123s-0.215-0.179-0.257-0.29c-0.041-0.111-0.061-0.364-0.061-0.757v-9.093c0-0.779 0.187-1.329 0.561-1.648 0.375-0.319 1.016-0.479 1.923-0.479h1.579c0.761 0 1.319 0.186 1.672 0.56 0.355 0.374 0.552 1.078 0.593 2.111h0.125v-3.109h-8.922z" fill="#fff"/>
      </g>
      <g id="g112" transform="translate(419.15 292.33)">
       <path id="path114" d="m0 0h3.519l-1.768 4.42-1.751-4.42zm3.681-0.359h-3.807l-1.953-4.888c-0.135-0.352-0.202-0.568-0.202-0.65 0-0.194 0.143-0.291 0.43-0.291v-0.125h-1.921v0.125c0.256 0 0.472 0.063 0.648 0.19 0.175 0.125 0.368 0.452 0.578 0.98l4.693 11.846h0.234l4.619-11.439c0-0.059 0.118-0.336 0.354-0.832 0.235-0.496 0.594-0.745 1.077-0.745v-0.125h-3.016v0.125c0.275 0 0.413 0.109 0.413 0.326 0 0.146-0.067 0.381-0.202 0.703-0.023 0.023-0.044 0.061-0.062 0.114-0.011 0.059-0.02 0.088-0.026 0.088l-1.857 4.598z" fill="#fff"/>
      </g>
      <g id="g116" transform="translate(435.67 298.97)">
       <path id="path118" d="m0 0h1.938v-0.125c-0.247-0.018-0.448-0.077-0.606-0.178-0.157-0.099-0.339-0.306-0.543-0.62l-3.164-4.774v-5.959c0-0.482 0.062-0.797 0.187-0.948 0.125-0.15 0.396-0.224 0.813-0.224v-0.125h-3.5v0.125c0.678-0.041 1.018 0.22 1.018 0.783l-0.018 0.369v5.484l-3.18 5.252c-0.334 0.561-0.707 0.833-1.117 0.815v0.125h3.063v-0.125c-0.287 0-0.429-0.109-0.429-0.327 0-0.112 0.073-0.286 0.22-0.522l2.607-4.307 2.874 4.338c0.053 0.047 0.111 0.134 0.176 0.261 0.064 0.128 0.097 0.215 0.097 0.263 0 0.196-0.127 0.294-0.381 0.294h-0.055v0.125z" fill="#fff"/>
      </g>
      <g id="g120" transform="translate(445.71 298.8)">
       <path id="path122" d="m0 0 0.609-1.623-0.109-0.018c0 0.006-0.162 0.177-0.486 0.512-0.325 0.336-0.696 0.595-1.114 0.777s-0.889 0.274-1.416 0.274c-0.882 0-1.582-0.252-2.099-0.756s-0.776-1.111-0.776-1.822c0-0.473 0.119-0.885 0.356-1.238 0.237-0.352 0.743-0.681 1.516-0.987 1.331-0.447 2.242-0.783 2.732-1.009 0.49-0.225 0.963-0.607 1.417-1.146 0.455-0.538 0.683-1.23 0.683-2.073 0-0.352-0.042-0.687-0.124-1.006-0.082-0.32-0.213-0.627-0.395-0.922-0.182-0.296-0.4-0.566-0.655-0.809s-0.515-0.427-0.779-0.553c-0.263-0.126-0.679-0.221-1.248-0.286-0.569-0.064-0.944-0.096-1.126-0.096h-3.455v3.765h0.125c0.012-1.24 0.305-2.105 0.88-2.594 0.575-0.49 1.471-0.734 2.686-0.734 1.103 0 1.941 0.26 2.513 0.779 0.573 0.518 0.859 1.143 0.859 1.872 0 0.443-0.1 0.82-0.3 1.132-0.199 0.312-0.479 0.586-0.837 0.823-0.358 0.236-1.036 0.525-2.032 0.867-0.991 0.348-1.688 0.651-2.09 0.912-0.402 0.26-0.738 0.652-1.008 1.177-0.27 0.523-0.405 1.057-0.405 1.602 0 1.001 0.345 1.841 1.035 2.521 0.689 0.679 1.596 1.018 2.718 1.018 0.434 0 0.904-0.049 1.409-0.149 0.505-0.099 0.787-0.163 0.846-0.192 0.023-0.012 0.047-0.018 0.07-0.018" fill="#fff"/>
      </g>
      <g id="g124" transform="translate(452.57 298.97)">
       <path id="path126" d="m0 0v-0.125c-0.172 0.018-0.361-0.009-0.571-0.079-0.209-0.07-0.333-0.173-0.372-0.308-0.038-0.134-0.057-0.455-0.057-0.959v-9.95c0-0.539 0.021-0.869 0.066-0.989 0.044-0.12 0.129-0.221 0.256-0.299 0.127-0.08 0.353-0.119 0.678-0.119v-0.125h-3.469v0.125c0.434 0 0.704 0.084 0.81 0.251 0.105 0.167 0.159 0.547 0.159 1.139v9.852c0 0.616-0.06 1.02-0.177 1.21s-0.382 0.274-0.792 0.251v0.125h3.469z" fill="#fff"/>
      </g>
      <g id="g128" transform="translate(458.12 292.33)">
       <path id="path130" d="m0 0h3.519l-1.768 4.42-1.751-4.42zm3.681-0.359h-3.807l-1.953-4.888c-0.135-0.352-0.202-0.568-0.202-0.65 0-0.194 0.143-0.291 0.43-0.291v-0.125h-1.921v0.125c0.256 0 0.472 0.063 0.648 0.19 0.175 0.125 0.367 0.452 0.578 0.98l4.693 11.846h0.234l4.619-11.439c0-0.059 0.117-0.336 0.354-0.832 0.235-0.496 0.593-0.745 1.077-0.745v-0.125h-3.016v0.125c0.274 0 0.412 0.109 0.412 0.326 0 0.146-0.067 0.381-0.202 0.703-0.023 0.023-0.044 0.061-0.062 0.114-0.011 0.059-0.02 0.088-0.026 0.088l-1.856 4.598z" fill="#fff"/>
      </g>
      <g id="g132" transform="translate(262.34 362.3)">
       <path id="path134" d="m0 0 4.036 4.824s4.193-2.178 16.928 0.933c0 0 14.971 5.486 23.945-2.462v-3.285l-44.909-0.01z" fill="#fff"/>
      </g>
      <g id="g136" transform="translate(262.34 362.3)">
       <path id="path138" d="m0 0 4.036 4.824s4.193-2.178 16.928 0.933c0 0 14.971 5.486 23.945-2.462v-3.285l-44.909-0.01z" stroke="#231f20" stroke-width="0.4" fill="none"/>
      </g>
      <g id="g140" transform="translate(264.88 365.4)">
       <path id="path142" d="m0 0s12.726-2.466 21.717 0.793c0 0 13.018 4.356 19.014-2.029" stroke="#231f20" stroke-width="0.4" fill="none"/>
      </g>
      <g id="g144" transform="translate(263.84 364.3)">
       <path id="path146" d="m0 0s13.736-2.477 22.68-0.047c0 0 12.981 3.219 18.946-1.513" stroke="#231f20" stroke-width="0.4" fill="none"/>
      </g>
      <g id="g148" transform="translate(352.18 362.3)">
       <path id="path150" d="m0 0-4.033 4.824s-4.19-2.178-16.928 0.933c0 0-14.973 5.486-23.962-2.462v-3.285l44.923-0.01z" fill="#fff"/>
      </g>
      <g id="g152" transform="translate(352.18 362.3)">
       <path id="path154" d="m0 0-4.033 4.824s-4.19-2.178-16.928 0.933c0 0-14.973 5.486-23.962-2.462v-3.285l44.923-0.01z" stroke="#231f20" stroke-width="0.4" fill="none"/>
      </g>
      <g id="g156" transform="translate(349.63 365.4)">
       <path id="path158" d="m0 0s-12.718-2.466-21.699 0.793c0 0-13.027 4.356-19.024-2.029" stroke="#231f20" stroke-width="0.4" fill="none"/>
      </g>
      <g id="g160" transform="translate(350.68 364.3)">
       <path id="path162" d="m0 0s-13.735-2.477-22.68-0.047c0 0-12.969 3.219-18.945-1.513" stroke="#231f20" stroke-width="0.4" fill="none"/>
      </g>
      <g id="g164" transform="translate(351.34 344.8)">
       <path id="path166" d="m0 0c0 4.683 1.742 10.344 1.742 10.344h-45.83-0.011-45.812s1.738-5.661 1.738-10.344v-75.577s-1.122-13.059 16.839-19.823c0 0 24.734-3.676 27.235-10.661v-0.06l0.011 0.036v-0.036 0.06c2.504 6.984 27.248 10.66 27.248 10.66 17.964 6.764 16.84 19.823 16.84 19.823v75.577z" fill="#fff"/>
      </g>
      <g id="g168" transform="translate(351.34 344.8)">
       <path id="path170" d="m0 0c0 4.683 1.742 10.344 1.742 10.344h-45.83-0.011-45.812s1.738-5.661 1.738-10.344v-75.577s-1.122-13.059 16.839-19.823c0 0 24.734-3.676 27.235-10.661v-0.06l0.011 0.036v-0.036 0.06c2.504 6.984 27.248 10.66 27.248 10.66 17.964 6.764 16.84 19.823 16.84 19.823v75.577z" stroke="#231f20" stroke-width="0.627" fill="none"/>
      </g>
      <g id="g172" transform="translate(351.34 323.34)">
       <path id="path174" d="m0 0v21.46c0 4.683 1.742 10.344 1.742 10.344h-45.83-0.011-45.812s1.738-5.661 1.738-10.344v-21.46h88.173z" fill="#ea272d"/>
      </g>
      <g id="g176" transform="translate(351.34 323.34)">
       <path id="path178" d="m0 0v21.46c0 4.683 1.742 10.344 1.742 10.344h-45.83-0.011-45.812s1.738-5.661 1.738-10.344v-21.46h88.173z" stroke="#231f20" stroke-width=".5" fill="none"/>
      </g>
      <g id="g180" transform="translate(351.34 323.34)">
       <path id="path182" d="m0 0v21.46c0 4.683 1.742 10.344 1.742 10.344h-45.83-0.011-45.812s1.738-5.661 1.738-10.344v-21.46h88.173z" stroke="#231f20" stroke-width="0.238" fill="none"/>
      </g>
      <path id="path184" d="m354.87 361.09h-95.229v1.373h95.229v-1.373z" stroke="#231f20" stroke-width=".125" fill="#231f20"/>
      <g id="g186" transform="translate(303.15 362.29)">
       <path id="path188" d="m0 0c0 1.724 1.846 3.11 4.126 3.11 2.275 0 4.15-1.386 4.15-3.11 0-1.718-1.875-3.118-4.15-3.118-2.28 0-4.126 1.4-4.126 3.118" fill="#231f20"/>
      </g>
      <g id="g190" transform="translate(305.46 348.73)">
       <path id="path192" d="m0 0s1.499-1.875-2.497-1.969c0 0-5.701-0.723-15.865 1.87 0 0-5.205 1.443-5.205-2.396 0 0-0.694-3.417 9.1-1.862 0 0 4.787 1.343 11.678-0.63 0 0 9.078-2.171 14.475 3.536l1.301 1.971 0.305 1.029s0.783 0.313 2.276-0.825c0 0 3.103-0.31 3.905-0.823l0.108-0.529 3.188-0.105s1.791-1.864 0.189-4.037l-1.598 0.297h-0.777s-0.812-0.916 0.286-2.483c0 0 2.089-1.648 0-1.553l-3.996 1.25s-1.008-0.209 0.295-1.032l1.898-1.882s1.309-1.132 5.494 0.53l1.988 0.311s4.101 1.457 5.499 0c0 0 0.799-2.604-0.896-3.117l-0.502-0.303-0.203-0.831c-0.31 0-0.201-0.103-0.686-0.103-0.506 0-1.105 0.711-1.515 0.824-0.39 0.11-1.697 0.514-3.183-0.316 0 0-4.598-3.416-9.197-2.385 0 0 0.204-2.077 6.002-2.381 0 0 6.275 0.304 7.483-4.039l-0.599-0.622-1.003 0.207-0.395-0.309h-1.002-1.195-0.795l-1.403 0.931-0.895 0.62-2.292 0.622s-3.485-0.11-7.297 1.566c0 0-1.994 0.704-3.487 2.481 0 0-10.892 0.32-15.168 4.355 0 0-0.299 0.93-2.806-0.73 0 0-5.372-3.625-13.167-0.721 0 0-2.293 0.405-3.505-1.35 0 0-1.188-2.288 1.81-4.035 0 0 1.045-2.093-0.598-2.093l-0.5 0.216-0.305-0.417-1.11-0.097-0.287 0.614-0.598-0.1h-0.889s-1.01 1.877-1.01 5.088c0 0 1.01 4.966 10.784 7.466l1.398 0.923s-8.492-0.507-9.577 4.049c0 0-0.216 5.486 5.666 5.071 0 0 2.812-0.103 6.8-0.921 0 0 5.59-1.668 9.488-0.93 0 0 3.59 1.443 4.587 0.099" fill="#f5e920"/>
      </g>
      <g id="g194" transform="translate(305.46 348.73)">
       <path id="path196" d="m0 0s1.499-1.875-2.497-1.969c0 0-5.701-0.723-15.865 1.87 0 0-5.205 1.443-5.205-2.396 0 0-0.694-3.417 9.1-1.862 0 0 4.787 1.343 11.678-0.63 0 0 9.078-2.171 14.475 3.536l1.301 1.971 0.305 1.029s0.783 0.313 2.276-0.825c0 0 3.103-0.31 3.905-0.823l0.108-0.529 3.188-0.105s1.791-1.864 0.189-4.037l-1.598 0.297h-0.777s-0.812-0.916 0.286-2.483c0 0 2.089-1.648 0-1.553l-3.996 1.25s-1.008-0.209 0.295-1.032l1.898-1.882s1.309-1.132 5.494 0.53l1.988 0.311s4.101 1.457 5.499 0c0 0 0.799-2.604-0.896-3.117l-0.502-0.303-0.203-0.831c-0.31 0-0.201-0.103-0.686-0.103-0.506 0-1.105 0.711-1.515 0.824-0.39 0.11-1.697 0.514-3.183-0.316 0 0-4.598-3.416-9.197-2.385 0 0 0.204-2.077 6.002-2.381 0 0 6.275 0.304 7.483-4.039l-0.599-0.622-1.003 0.207-0.395-0.309h-1.002-1.195-0.795l-1.403 0.931-0.895 0.62-2.292 0.622s-3.485-0.11-7.297 1.566c0 0-1.994 0.704-3.487 2.481 0 0-10.892 0.32-15.168 4.355 0 0-0.299 0.93-2.806-0.73 0 0-5.372-3.625-13.167-0.721 0 0-2.293 0.405-3.505-1.35 0 0-1.188-2.288 1.81-4.035 0 0 1.045-2.093-0.598-2.093l-0.5 0.216-0.305-0.417-1.11-0.097-0.287 0.614-0.598-0.1h-0.889s-1.01 1.877-1.01 5.088c0 0 1.01 4.966 10.784 7.466l1.398 0.923s-8.492-0.507-9.577 4.049c0 0-0.216 5.486 5.666 5.071 0 0 2.812-0.103 6.8-0.921 0 0 5.59-1.668 9.488-0.93 0 0 3.59 1.443 4.587 0.099z" stroke="#231f20" stroke-width=".125" fill="none"/>
      </g>
      <g id="g198" transform="translate(305.46 348.73)">
       <path id="path200" d="m0 0s1.499-1.875-2.497-1.969c0 0-5.701-0.723-15.865 1.87 0 0-5.205 1.443-5.205-2.396 0 0-0.694-3.417 9.1-1.862 0 0 4.787 1.343 11.678-0.63 0 0 9.078-2.171 14.475 3.536l1.301 1.971 0.305 1.029s0.783 0.313 2.276-0.825c0 0 3.103-0.31 3.905-0.823l0.108-0.529 3.188-0.105s1.791-1.864 0.189-4.037l-1.598 0.297h-0.777s-0.812-0.916 0.286-2.483c0 0 2.089-1.648 0-1.553l-3.97 1.123s-1.034-0.082 0.269-0.905l1.898-1.882s1.309-1.132 5.494 0.53l1.988 0.311s4.101 1.457 5.499 0c0 0 0.799-2.604-0.896-3.117l-0.502-0.303-0.203-0.831c-0.31 0-0.201-0.103-0.686-0.103-0.506 0-1.105 0.711-1.515 0.824-0.39 0.11-1.697 0.514-3.183-0.316 0 0-4.598-3.416-9.197-2.385 0 0 0.204-2.077 6.002-2.381 0 0 6.275 0.304 7.483-4.039l-0.599-0.622-1.003 0.207-0.395-0.309h-1.002-1.195-0.795l-1.403 0.931-0.895 0.62-2.292 0.622s-3.485-0.11-7.297 1.566c0 0-1.994 0.704-3.487 2.481 0 0-10.892 0.32-15.168 4.355 0 0-0.299 0.93-2.806-0.73 0 0-5.372-3.625-13.167-0.721 0 0-2.293 0.405-3.505-1.35 0 0-1.188-2.288 1.81-4.035 0 0 1.045-2.093-0.598-2.093l-0.5 0.216-0.305-0.417-1.11-0.097-0.287 0.614-0.598-0.1h-0.889s-1.01 1.877-1.01 5.088c0 0 1.01 4.966 10.784 7.466l1.398 0.923s-8.492-0.507-9.577 4.049c0 0-0.216 5.486 5.666 5.071 0 0 2.812-0.103 6.8-0.921 0 0 5.59-1.668 9.488-0.93 0 0 3.59 1.443 4.587 0.099z" stroke="#231f20" stroke-width=".125" fill="none"/>
      </g>
      <g id="g202" transform="translate(304.47 333.26)">
       <path id="path204" d="m0 0s-1.386-1.865-2.795-1.865c0 0 0.7-2.172 2.699-2.383l2.508-0.201 0.777-0.621 0.106-0.728-0.106-0.515-0.401-0.394-0.782-0.536-1.695-0.107-1.606 0.209-1.601 1.343-0.999 1.349s-0.189 0.315-0.9 0.522c-0.688 0.194-1.485 0.719-1.485 0.719s-0.402 0.107-0.701 0.929c-0.299 0.84-0.804 1.366-0.804 1.366l-0.801 1.125 0.7 0.939 1.204 0.101 0.997-0.101 1.099 0.101 1.291-0.627 0.107 0.743s2.387-1.467 3.188-1.368" fill="#f3df1b"/>
      </g>
      <g id="g206" transform="translate(304.47 333.26)">
       <path id="path208" d="m0 0s-1.386-1.865-2.795-1.865c0 0 0.7-2.172 2.699-2.383l2.508-0.201 0.777-0.621 0.106-0.728-0.106-0.515-0.401-0.394-0.782-0.536-1.695-0.107-1.606 0.209-1.601 1.343-0.999 1.349s-0.189 0.315-0.9 0.522c-0.688 0.194-1.485 0.719-1.485 0.719s-0.402 0.107-0.701 0.929c-0.299 0.84-0.804 1.366-0.804 1.366l-0.801 1.125 0.7 0.939 1.204 0.101 0.997-0.101 1.099 0.101 1.291-0.627 0.107 0.743s2.387-1.467 3.188-1.368z" stroke="#231f20" stroke-width=".125" fill="none"/>
      </g>
      <g id="g210" transform="translate(332.52 339.49)">
       <path id="path212" d="m0 0s-0.909-1.033-0.909-1.865l-0.991 1.458 1.9 0.407z" fill="#231f20"/>
      </g>
      <g id="g214" transform="translate(332.52 339.49)">
       <path id="path216" d="m0 0s-0.909-1.033-0.909-1.865l-0.991 1.458 1.9 0.407z" stroke="#231f20" stroke-width="0.238" fill="none"/>
      </g>
      <g id="g218" transform="translate(328.42 338.46)">
       <path id="path220" d="m0 0s0.909-2.079-0.793-3.011c0 0 0.793 2.078-0.4 2.708l1.193 0.303z" fill="#231f20"/>
      </g>
      <g id="g222" transform="translate(328.42 338.46)">
       <path id="path224" d="m0 0s0.909-2.079-0.793-3.011c0 0 0.793 2.078-0.4 2.708l1.193 0.303z" stroke="#231f20" stroke-width="0.238" fill="none"/>
      </g>
      <g id="g226" transform="translate(326.53 338.04)">
       <path id="path228" d="m0 0s-0.482-2.069-3.504-2.179c0 0 2.107 0.729 2.02 2.479l1.484-0.3z" fill="#231f20"/>
      </g>
      <g id="g230" transform="translate(326.53 338.04)">
       <path id="path232" d="m0 0s-0.482-2.069-3.504-2.179c0 0 2.107 0.729 2.02 2.479l1.484-0.3z" stroke="#231f20" stroke-width="0.238" fill="none"/>
      </g>
      <g id="g234" transform="translate(325.9 344.2)">
       <path id="path236" d="m0 0s-2.193 0.624-2.286-1.228c0 0-0.097-1.767 2.579-1.253 0 0-0.949 1.137-0.293 2.481" fill="#231f20"/>
      </g>
      <g id="g238" transform="translate(326.05 344.25)">
       <path id="path240" d="m0 0s-2.312 0.624-2.414-1.227c0 0-0.093-1.768 2.7-1.256 0 0-1.003 1.16-0.286 2.483z" stroke="#231f20" stroke-width="0.238" fill="none"/>
      </g>
      <g id="g242" transform="translate(321.43 349.14)">
       <path id="path244" d="m0 0s-1.296 0.507-1.296-0.825c0 0-0.086 1.135-1.203 0.411l-0.59 0.197 0.202 0.836s0.312 1.042 1.101 0.616c0 0 1.092-1.235 1.786-1.235" fill="#231f20"/>
      </g>
      <g id="g246" transform="translate(321.43 349.14)">
       <path id="path248" d="m0 0s-1.296 0.507-1.296-0.825c0 0-0.086 1.135-1.203 0.411l-0.59 0.197 0.202 0.836s0.312 1.042 1.101 0.616c0 0 1.092-1.235 1.786-1.235z" stroke="#231f20" stroke-width="0.238" fill="none"/>
      </g>
      <g id="g250" transform="translate(328.72 346.97)">
       <path id="path252" d="m0 0s-1.123-0.303-0.489 1.07c0 0 0.489-0.152 0.489-1.07" fill="#231f20"/>
      </g>
      <g id="g254" transform="translate(316.84 346.8)">
       <path id="path256" d="m0 0s0.592-2.747-1.294-5.124c0 0-1.595-3.122-0.31-6.335 0 0-2.39 1.881-1.578 6.43 0 0 1.194 1.669 0.382 3.107 0 0 1.506 0.895 2.8 1.922" fill="#231f20"/>
      </g>
      <g id="g258" transform="translate(316.84 346.8)">
       <path id="path260" d="m0 0s0.592-2.747-1.294-5.124c0 0-1.595-3.122-0.31-6.335 0 0-2.39 1.881-1.578 6.43 0 0 1.194 1.669 0.382 3.107 0 0 1.506 0.895 2.8 1.922z" stroke="#231f20" stroke-width="0.238" fill="none"/>
      </g>
      <g id="g262" transform="translate(311.03 343.93)">
       <path id="path264" d="m0 0s0.788-1.341-0.33-3.489c0 0-0.794-2.667 0.818-4.825 0 0-2.256 0.914-2.387 4.521 0 0 0.692 2.097-0.215 3.039 0 0 1.24-0.3 2.114 0.754" fill="#231f20"/>
      </g>
      <g id="g266" transform="translate(311.03 343.93)">
       <path id="path268" d="m0 0s0.788-1.341-0.33-3.489c0 0-0.794-2.667 0.818-4.825 0 0-2.256 0.914-2.387 4.521 0 0 0.692 2.097-0.215 3.039 0 0 1.24-0.3 2.114 0.754z" stroke="#231f20" stroke-width="0.238" fill="none"/>
      </g>
      <g id="g270" transform="translate(304.47 343.44)">
       <path id="path272" d="m0 0 2.006-0.21s-1.803-2.377-1.302-5.495c0 0-1.098 1.35-0.704 5.705" fill="#231f20"/>
      </g>
      <g id="g274" transform="translate(304.47 343.44)">
       <path id="path276" d="m0 0 2.006-0.21s-1.803-2.377-1.302-5.495c0 0-1.098 1.35-0.704 5.705z" stroke="#231f20" stroke-width="0.238" fill="none"/>
      </g>
      <g id="g278" transform="translate(302.88 343.74)">
       <path id="path280" d="m0 0s-1.411-2.481-1.81-5.803c0 0-1.085 3.423-0.498 4.665l-0.099 1.249-0.197 0.322 2.604-0.433z" fill="#231f20"/>
      </g>
      <g id="g282" transform="translate(302.88 343.74)">
       <path id="path284" d="m0 0s-1.411-2.481-1.81-5.803c0 0-1.085 3.423-0.498 4.665l-0.099 1.249-0.197 0.322 2.604-0.433z" stroke="#231f20" stroke-width="0.238" fill="none"/>
      </g>
      <g id="g286" transform="translate(298.28 344.67)">
       <path id="path288" d="m0 0s1.195-2.282-0.704-3.316c0 0-1.888-0.615-1.588-3.315 0 0-1.3 1.129 0 3.524 0 0 1.588 1.033 0.405 3.107h1.887z" fill="#231f20"/>
      </g>
      <g id="g290" transform="translate(298.28 344.67)">
       <path id="path292" d="m0 0s1.195-2.282-0.704-3.316c0 0-1.888-0.615-1.588-3.315 0 0-1.3 1.129 0 3.524 0 0 1.588 1.033 0.405 3.107h1.887z" stroke="#231f20" stroke-width="0.238" fill="none"/>
      </g>
      <g id="g294" transform="translate(294.69 344.67)">
       <path id="path296" d="m0 0s-0.3-1.556-1.992-2.79c0 0-1.103-2.61-0.912-4.464 0 0-1.493 2.175-0.787 5.18l0.686 0.107 0.506 0.926-0.405 0.735c-0.191 0.306 2.196 0.721 2.904 0.306" fill="#231f20"/>
      </g>
      <g id="g298" transform="translate(294.69 344.67)">
       <path id="path300" d="m0 0s-0.3-1.556-1.992-2.79c0 0-1.103-2.61-0.912-4.464 0 0-1.493 2.175-0.787 5.18l0.686 0.107 0.506 0.926-0.405 0.735c-0.191 0.306 2.196 0.721 2.904 0.306z" stroke="#231f20" stroke-width="0.238" fill="none"/>
      </g>
      <g id="g302" transform="translate(287.4 340.64)">
       <path id="path304" d="m0 0s-1.898-1.756 0.186-4.662c0 0-2.187 1.031-2.586 3.729l2.4 0.933z" fill="#231f20"/>
      </g>
      <g id="g306" transform="translate(287.4 340.64)">
       <path id="path308" d="m0 0s-1.898-1.756 0.186-4.662c0 0-2.187 1.031-2.586 3.729l2.4 0.933z" stroke="#231f20" stroke-width="0.238" fill="none"/>
      </g>
      <g id="g310" transform="translate(282.91 338.88)">
       <path id="path312" d="m0 0s-0.401-1.982 1.881-2.802c0 0-3.177-0.104-4.276 1.547 0 0 1.695 1.255 2.395 1.255" fill="#231f20"/>
      </g>
      <g id="g314" transform="translate(282.91 338.88)">
       <path id="path316" d="m0 0s-0.401-1.982 1.881-2.802c0 0-3.177-0.104-4.276 1.547 0 0 1.695 1.255 2.395 1.255z" stroke="#231f20" stroke-width="0.238" fill="none"/>
      </g>
      <g id="g318" transform="translate(278.62 336.38)">
       <path id="path320" d="m0 0s0.592-1.14 1.391-1.14c0 0-0.906-1.028-2.399 0.102l1.008 1.038z" fill="#231f20"/>
      </g>
      <g id="g322" transform="translate(278.62 336.38)">
       <path id="path324" d="m0 0s0.592-1.14 1.391-1.14c0 0-0.906-1.028-2.399 0.102l1.008 1.038z" stroke="#231f20" stroke-width="0.238" fill="none"/>
      </g>
      <g id="g326" transform="translate(314.45 332.24)">
       <path id="path328" d="m0 0s1.306 0.203 2.095 1.235c0 0-0.902-1.758-1.594-1.865l-0.501 0.63z" fill="#231f20"/>
      </g>
      <g id="g330" transform="translate(314.45 332.24)">
       <path id="path332" d="m0 0s1.306 0.203 2.095 1.235c0 0-0.902-1.758-1.594-1.865l-0.501 0.63z" stroke="#231f20" stroke-width="0.238" fill="none"/>
      </g>
      <g id="g334" transform="translate(317.15 330.46)">
       <path id="path336" d="m0 0s1.996-0.202 2.497 0.845c0 0-0.713-1.549-1.195-1.549l-1.302 0.704z" fill="#231f20"/>
      </g>
      <g id="g338" transform="translate(317.15 330.46)">
       <path id="path340" d="m0 0s1.996-0.202 2.497 0.845c0 0-0.713-1.549-1.195-1.549l-1.302 0.704z" stroke="#231f20" stroke-width="0.238" fill="none"/>
      </g>
      <g id="g342" transform="translate(320.74 328.92)">
       <path id="path344" d="m0 0s1.402 0 2.107 1.044c0 0 0.179-1.366-0.705-1.366l-1.402 0.322z" fill="#231f20"/>
      </g>
      <g id="g346" transform="translate(320.74 328.92)">
       <path id="path348" d="m0 0s1.402 0 2.107 1.044c0 0 0.179-1.366-0.705-1.366l-1.402 0.322z" stroke="#231f20" stroke-width="0.238" fill="none"/>
      </g>
      <g id="g350" transform="translate(326.33 328.08)">
       <path id="path352" d="m0 0s0.998 0.421 0.998 1.354c0 0-1.284-1.244-2.096-1.244l1.098-0.11z" fill="#231f20"/>
      </g>
      <g id="g354" transform="translate(326.33 328.08)">
       <path id="path356" d="m0 0s0.998 0.421 0.998 1.354c0 0-1.284-1.244-2.096-1.244l1.098-0.11z" stroke="#231f20" stroke-width="0.238" fill="none"/>
      </g>
      <g id="g358" transform="translate(298.78 334.41)">
       <path id="path360" d="m0 0s-0.595-1.972 0.501-2.698c0 0-2.509 1.547-2.806 2.483 0 0 1.308 0.624 2.305 0.215" fill="#231f20"/>
      </g>
      <g id="g362" transform="translate(298.78 334.41)">
       <path id="path364" d="m0 0s-0.595-1.972 0.501-2.698c0 0-2.509 1.547-2.806 2.483 0 0 1.308 0.624 2.305 0.215z" stroke="#231f20" stroke-width="0.238" fill="none"/>
      </g>
      <g id="g366" transform="translate(291 344.17)">
       <path id="path368" d="m0 0s-1.613-0.98-1.793-2.102v-0.3c0.09-1.243-1.206 1.16-1.206 2.294 0 0 1.602-0.325 2.999 0.305" stroke="#231f20" stroke-width="0.238" fill="#231f20"/>
      </g>
      <g id="g370" transform="translate(286.5 344.06)">
       <path id="path372" d="m0 0s-1.798-1.564-0.604-2.496l-0.996 0.202s-1.71 1.669-0.394 2.186c0 0 0.889 0 1.994 0.108" fill="#231f20"/>
      </g>
      <g id="g374" transform="translate(286.5 344.06)">
       <path id="path376" d="m0 0s-1.798-1.564-0.604-2.496l-0.996 0.202s-1.71 1.669-0.394 2.186c0 0 0.889 0 1.994 0.108z" stroke="#231f20" stroke-width="0.238" fill="none"/>
      </g>
      <g id="g378" transform="translate(282.91 344.56)">
       <path id="path380" d="m0 0s-1.811 0-1.601-1.856c0 0-0.794 0.106-1.2 0.83 0 0 0.603 2.077 1.994 1.761 0 0 0.307-0.735 0.807-0.735" fill="#231f20"/>
      </g>
      <g id="g382" transform="translate(282.91 344.56)">
       <path id="path384" d="m0 0s-1.811 0-1.601-1.856c0 0-0.794 0.106-1.2 0.83 0 0 0.603 2.077 1.994 1.761 0 0 0.307-0.735 0.807-0.735z" stroke="#231f20" stroke-width="0.238" fill="none"/>
      </g>
      <g id="g386" transform="translate(279.7 348.52)">
       <path id="path388" d="m0 0s1.707-0.204 2.007-1.456l0.5 0.93s-0.596 1.35-1.498 1.563c0 0-1.009-0.536-1.009-1.037" fill="#231f20"/>
      </g>
      <g id="g390" transform="translate(279.7 348.52)">
       <path id="path392" d="m0 0s1.707-0.204 2.007-1.456l0.5 0.93s-0.596 1.35-1.498 1.563c0 0-1.009-0.536-1.009-1.037z" stroke="#231f20" stroke-width="0.238" fill="none"/>
      </g>
      <g id="g394" transform="translate(284.71 349.02)">
       <path id="path396" d="m0 0s0.293 0.943-0.399 1.567l1.194-0.11s0.602-0.921 0.3-1.555l-1.095 0.098z" fill="#231f20"/>
      </g>
      <g id="g398" transform="translate(284.71 349.02)">
       <path id="path400" d="m0 0s0.293 0.943-0.399 1.567l1.194-0.11s0.602-0.921 0.3-1.555l-1.095 0.098z" stroke="#231f20" stroke-width="0.238" fill="none"/>
      </g>
      <g id="g402" transform="translate(288.7 350.07)">
       <path id="path404" d="m0 0s0.896-0.727 0.698-1.662l1.704-0.727s0.392 1.34-0.212 1.966l-2.19 0.423z" fill="#231f20"/>
      </g>
      <g id="g406" transform="translate(288.7 350.07)">
       <path id="path408" d="m0 0s0.896-0.727 0.698-1.662l1.704-0.727s0.392 1.34-0.212 1.966l-2.19 0.423z" stroke="#231f20" stroke-width="0.238" fill="none"/>
      </g>
      <g id="g410" transform="translate(293.89 349.02)">
       <path id="path412" d="m0 0s0.801-0.923 0.303-1.645l1.297-0.422-0.108 1.673-1.492 0.394z" fill="#231f20"/>
      </g>
      <g id="g414" transform="translate(293.89 349.02)">
       <path id="path416" d="m0 0s0.801-0.923 0.303-1.645l1.297-0.422-0.108 1.673-1.492 0.394z" stroke="#231f20" stroke-width="0.238" fill="none"/>
      </g>
      <g id="g418" transform="translate(298.37 348.41)">
       <path id="path420" d="m0 0s1.003-0.833 0.305-1.558l1.304-0.093s0.488 0.517 0 1.651h-1.609z" fill="#231f20"/>
      </g>
      <g id="g422" transform="translate(298.37 348.41)">
       <path id="path424" d="m0 0s1.003-0.833 0.305-1.558l1.304-0.093s0.488 0.517 0 1.651h-1.609z" stroke="#231f20" stroke-width="0.238" fill="none"/>
      </g>
      <g id="g426" transform="translate(301.47 348.83)">
       <path id="path428" d="m0 0s1.411-0.737 1.206-2.192l0.991 0.114s0.204 1.443-1.194 2.383l-1.003-0.305z" fill="#231f20"/>
      </g>
      <g id="g430" transform="translate(301.47 348.83)">
       <path id="path432" d="m0 0s1.411-0.737 1.206-2.192l0.991 0.114s0.204 1.443-1.194 2.383l-1.003-0.305z" stroke="#231f20" stroke-width="0.238" fill="none"/>
      </g>
      <g id="g434" transform="translate(304.16 349.34)">
       <path id="path436" d="m0 0s0.305-1.143 1.211-1.246c0 0 0.598 0.629-1.211 1.246" fill="#231f20"/>
      </g>
      <g id="g438" transform="translate(304.16 349.34)">
       <path id="path440" d="m0 0s0.305-1.143 1.211-1.246c0 0 0.598 0.629-1.211 1.246z" stroke="#231f20" stroke-width="0.238" fill="none"/>
      </g>
      <g id="g442" transform="translate(263.17 323.34)">
       <path id="path444" d="m0 0h44.085v-33.803l-41.116-29.827s-3 3.989-3 9.172l0.031 54.458z" fill="#f5e920"/>
      </g>
      <g id="g446" transform="translate(263.17 323.34)">
       <path id="path448" d="m0 0h44.085v-33.803l-41.116-29.827s-3 3.989-3 9.172l0.031 54.458z" stroke="#231f20" stroke-width=".5" fill="none"/>
      </g>
      <g id="g450" transform="translate(351.41 323.34)">
       <path id="path452" d="m0 0h-44.091v-33.803l41.117-29.827s2.998 3.989 2.998 9.172l-0.024 54.458z" fill="#20aadd"/>
      </g>
      <g id="g454" transform="translate(351.41 323.34)">
       <path id="path456" d="m0 0h-44.091v-33.803l41.117-29.827s2.998 3.989 2.998 9.172l-0.024 54.458z" stroke="#231f20" stroke-width=".5" fill="none"/>
      </g>
      <g id="g458" transform="translate(304.26 255.93)">
       <path id="path460" d="m0 0s1.911-2.258 5.092 0.073l-5.092-0.073z" fill="#d23129"/>
      </g>
      <g id="g462" transform="translate(304.26 255.93)">
       <path id="path464" d="m0 0s1.911-2.258 5.092 0.073l-5.092-0.073z" stroke="#231f20" stroke-width="0.627" fill="none"/>
      </g>
      <g id="g466" transform="translate(273.1 305.44)">
       <path id="path468" d="m0 0c0 0.909 0.724 1.661 1.595 1.661 0.884 0 1.618-0.752 1.618-1.661 0-0.932-0.734-1.659-1.618-1.659-0.871 0-1.595 0.727-1.595 1.659" fill="#231f20"/>
      </g>
      <g id="g470" transform="translate(282.28 299.7)">
       <path id="path472" d="m0 0c0 1.185 0.914 2.156 2.061 2.156 1.141 0 2.085-0.971 2.085-2.156 0-1.18-0.944-2.148-2.085-2.148-1.147 0-2.061 0.968-2.061 2.148" fill="#231f20"/>
      </g>
      <g id="g474" transform="translate(316.84 304.14)">
       <path id="path476" d="m0 0-5.547-1.313 0.085-2.974s2.984 0.786 3.371-1.231c0 0 0.676-2.019-1.867-3.511l1.714-2.639s3.372 1.79 4.501-0.072c0 0 0.885-1.705-0.46-3.891l2.766-1.711s1.582 3.572 3.754 2.798c0 0 1.866-0.856 1.189-4.182l3.374-0.174s-0.297 3.566 2.617 4.048c0 0 2.393 0 3.445-2.726l3.291 1.481s-2.163 2.874-0.3 4.586c0 0 2.256 0.624 4.05-1.474l2.089 3.349s-2.772 1.704-2.089 3.966c0 0 0.375 1.621 4.046 1.084l0.372 2.951-5.997 1.789s-1.336-11.433-11.75-11.433c0 0-9.362-0.461-12.654 11.279" fill="#fff"/>
      </g>
      <g id="g478" transform="translate(316.84 304.14)">
       <path id="path480" d="m0 0-5.547-1.313 0.085-2.974s2.984 0.786 3.371-1.231c0 0 0.676-2.019-1.867-3.511l1.714-2.639s3.372 1.79 4.501-0.072c0 0 0.885-1.705-0.46-3.891l2.766-1.711s1.582 3.572 3.754 2.798c0 0 1.866-0.856 1.189-4.182l3.374-0.174s-0.297 3.566 2.617 4.048c0 0 2.393 0 3.445-2.726l3.291 1.481s-2.163 2.874-0.3 4.586c0 0 2.256 0.624 4.05-1.474l2.089 3.349s-2.772 1.704-2.089 3.966c0 0 0.375 1.621 4.046 1.084l0.372 2.951-5.997 1.789s-1.336-11.433-11.75-11.433c0 0-9.362-0.461-12.654 11.279z" stroke="#231f20" stroke-width="0.627" fill="none"/>
      </g>
      <g id="g482" transform="translate(316.84 304.14)">
       <path id="path484" d="m0 0-5.547-1.313 0.085-2.974s2.984 0.786 3.371-1.231c0 0 0.676-2.019-1.867-3.511l1.714-2.639s3.372 1.79 4.501-0.072c0 0 0.885-1.705-0.46-3.891l2.766-1.711s1.582 3.572 3.754 2.798c0 0 1.866-0.856 1.189-4.182l3.374-0.174s-0.297 3.566 2.617 4.048c0 0 2.393 0 3.445-2.726l3.291 1.481s-2.163 2.874-0.3 4.586c0 0 2.256 0.624 4.05-1.474l2.089 3.349s-2.772 1.704-2.089 3.966c0 0 0.375 1.621 4.046 1.084l0.372 2.951-5.997 1.789s-1.336-11.433-11.75-11.433c0 0-9.362-0.461-12.654 11.279" fill="#fff"/>
      </g>
      <g id="g486" transform="translate(316.84 304.14)">
       <path id="path488" d="m0 0-5.547-1.313 0.085-2.974s2.984 0.786 3.371-1.231c0 0 0.676-2.019-1.867-3.511l1.714-2.639s3.372 1.79 4.501-0.072c0 0 0.885-1.705-0.46-3.891l2.766-1.711s1.582 3.572 3.754 2.798c0 0 1.866-0.856 1.189-4.182l3.374-0.174s-0.297 3.566 2.617 4.048c0 0 2.393 0 3.445-2.726l3.291 1.481s-2.163 2.874-0.3 4.586c0 0 2.256 0.624 4.05-1.474l2.089 3.349s-2.772 1.704-2.089 3.966c0 0 0.375 1.621 4.046 1.084l0.372 2.951-5.997 1.789s-1.336-11.433-11.75-11.433c0 0-9.362-0.461-12.654 11.279z" stroke="#231f20" stroke-width=".1" fill="none"/>
      </g>
      <path id="path490" d="m336.82 306.05h-14.977v1.05h14.977v-1.05z" stroke="#231f20" stroke-width="0.238" fill="#231f20"/>
      <path id="path492" d="m330.43 312.86h-2.413v4.548h2.413v-4.548z" stroke="#231f20" stroke-width=".25" fill="#fff"/>
      <g id="g494" transform="translate(327.87 312.59)">
       <path id="path496" d="m0 0-4.978-11.979-0.215-1.962s0.502-0.44 1.396 1.747l4.652 10.689-0.855 1.505z" fill="#fff"/>
      </g>
      <g id="g498" transform="translate(327.87 312.59)">
       <path id="path500" d="m0 0-4.978-11.979-0.215-1.962s0.502-0.44 1.396 1.747l4.652 10.689-0.855 1.505z" stroke="#231f20" stroke-width=".25" fill="none"/>
      </g>
      <g id="g502" transform="translate(322.68 299)">
       <path id="path504" d="m0 0-0.884-2.483 1.289 2.483h-0.405z" fill="#fff"/>
      </g>
      <g id="g506" transform="translate(322.68 299)">
       <path id="path508" d="m0 0-0.884-2.483 1.289 2.483h-0.405z" stroke="#231f20" stroke-width="0.238" fill="none"/>
      </g>
      <g id="g510" transform="translate(330.76 312.59)">
       <path id="path512" d="m0 0 5.004-11.979 0.199-1.962s-0.508-0.44-1.406 1.747l-4.645 10.689 0.848 1.505z" fill="#fff"/>
      </g>
      <g id="g514" transform="translate(330.76 312.59)">
       <path id="path516" d="m0 0 5.004-11.979 0.199-1.962s-0.508-0.44-1.406 1.747l-4.645 10.689 0.848 1.505z" stroke="#231f20" stroke-width=".25" fill="none"/>
      </g>
      <g id="g518" transform="translate(335.97 299)">
       <path id="path520" d="m0 0 0.887-2.483-1.288 2.483h0.401z" fill="#fff"/>
      </g>
      <g id="g522" transform="translate(335.97 299)">
       <path id="path524" d="m0 0 0.887-2.483-1.288 2.483h0.401z" stroke="#231f20" stroke-width="0.238" fill="none"/>
      </g>
      <g id="g526" transform="translate(330.86 311.53)">
       <path id="path528" d="m0 0c0-1.112-0.681-2.007-1.517-2.007-0.841 0-1.51 0.895-1.51 2.007 0 1.099 0.669 1.995 1.51 1.995 0.836 0 1.517-0.896 1.517-1.995" fill="#fff"/>
      </g>
      <g id="g530" transform="translate(330.86 311.53)">
       <path id="path532" d="m0 0c0-1.112-0.681-2.007-1.517-2.007-0.841 0-1.51 0.895-1.51 2.007 0 1.099 0.669 1.995 1.51 1.995 0.836 0 1.517-0.896 1.517-1.995z" stroke="#231f20" stroke-width="0.627" fill="none"/>
      </g>
      <g id="g534" transform="translate(330.86 311.53)">
       <path id="path536" d="m0 0c0-1.112-0.681-2.007-1.517-2.007-0.841 0-1.51 0.895-1.51 2.007 0 1.099 0.669 1.995 1.51 1.995 0.836 0 1.517-0.896 1.517-1.995" fill="#fff"/>
      </g>
      <g id="g538" transform="translate(330.86 311.53)">
       <path id="path540" d="m0 0c0-1.112-0.681-2.007-1.517-2.007-0.841 0-1.51 0.895-1.51 2.007 0 1.099 0.669 1.995 1.51 1.995 0.836 0 1.517-0.896 1.517-1.995z" stroke="#231f20" stroke-width=".1" fill="none"/>
      </g>
      <g id="g542" transform="translate(351.34 344.8)">
       <path id="path544" d="m0 0c0 4.683 1.742 10.344 1.742 10.344h-45.83-0.011-45.812s1.738-5.661 1.738-10.344v-75.577s-1.122-13.059 16.839-19.823c0 0 24.734-3.676 27.235-10.661v-0.06l0.011 0.036v-0.036 0.06c2.504 6.984 27.248 10.66 27.248 10.66 17.964 6.764 16.84 19.823 16.84 19.823v75.577z" stroke="#231f20" stroke-width=".5" fill="none"/>
      </g>
      <g id="g546" transform="translate(287.45 295.82)">
       <path id="path548" d="m0 0c-5.853-4.506-11.871-6.392-13.435-4.206-1.553 2.197 1.921 7.632 7.775 12.144 5.863 4.51 11.864 6.389 13.435 4.192 1.475-2.063-1.577-7.022-6.855-11.369l0.633-0.774c5.66 4.616 8.718 10.198 6.913 12.8-1.935 2.771-8.633 1.123-14.992-3.647-6.349-4.786-9.932-10.898-8.008-13.668 1.931-2.746 8.645-1.112 14.994 3.645 0.12 0.103 0.231 0.199 0.353 0.273l-0.61 0.787c-0.071-0.062-0.131-0.119-0.203-0.177" fill="#231f20"/>
      </g>
      <g id="g550" transform="translate(288.65 292.81)">
       <path id="path552" d="m0 0c0 0.914 0.71 1.654 1.595 1.654 0.884 0 1.6-0.74 1.6-1.654 0-0.926-0.716-1.688-1.6-1.688-0.885 0-1.595 0.762-1.595 1.688" fill="#231f20"/>
      </g>
      <g id="g554" transform="translate(280.03 299.57)">
       <path id="path556" d="m0 0c-1.923 7.296-1.42 13.811 1.099 14.521 2.544 0.719 6.15-4.616 8.073-11.92 1.909-7.317 1.421-13.815-1.099-14.532-2.41-0.679-5.742 4.086-7.715 10.771l-0.937-0.339c2.096-7.151 5.99-12.15 8.974-11.326 3.178 0.851 4.145 7.939 2.162 15.822-1.971 7.871-6.168 13.58-9.337 12.709-3.191-0.87-4.157-7.955-2.18-15.84 0.051-0.155 0.088-0.297 0.123-0.432l0.915 0.301c-0.031 0.092-0.055 0.177-0.078 0.265" fill="#231f20"/>
      </g>
      <g id="g558" transform="translate(287.29 304.18)">
       <path id="path560" d="m0 0c6.987-2.167 12.05-6.038 11.299-8.661-0.743-2.61-7.017-2.967-14.017-0.803-6.992 2.175-12.032 6.033-11.285 8.647 0.7 2.465 6.354 2.899 12.875 1.123l0.231 0.988c-6.973 1.936-13.106 1.149-14.02-1.927-0.965-3.265 4.313-7.853 11.793-10.278 7.483-2.41 14.362-1.718 15.316 1.543 0.987 3.254-4.298 7.858-11.784 10.277-0.145 0.039-0.286 0.076-0.42 0.125l-0.227-0.978c0.085-0.02 0.155-0.037 0.239-0.056" fill="#231f20"/>
      </g>
      <g id="g562" transform="translate(337.07 339.6)">
       <path id="path564" d="m0 0c0.357-1.368-0.958-1.404-1.923-1.312 0.489-0.092 2.625-0.167 2.318-1.029-0.342-0.931-2.104 0.454-2.88-0.034 0.685-0.259 1.845 0.027 1.661-1.099 1.302 0.108 1.935 2.106 1.526 3.187" fill="#231f20"/>
      </g>
      <g id="g566" transform="translate(333.56 326.35)">
       <path id="path568" d="m0 0c0.128 0.627-0.599 1.391-1.131 1.683 0.1-0.482 1.142-1.687 0.276-1.834-0.819-0.128-1.038 1.303-1.941 1.303 0.55-1.135 1.325-2.061 2.716-1.219" fill="#231f20"/>
      </g>
      <g id="g570" transform="translate(307.08 326.7)">
       <path id="path572" d="m0 0c-0.227 0.56-0.789 1.313-1.397 1.171 0.359-0.536 1.1-0.907 1.17-1.637-0.741-0.044-1.289-0.095-1.862 0.406-0.526 0.478-0.659 1.099-1.422 0.7 0.299-0.341 0.288-0.061 0.633-0.4 0.323-0.313 0.298-0.86 0.704-1.026" fill="#231f20"/>
      </g>
      <g id="g574" transform="translate(280.76 328.1)">
       <path id="path576" d="m0 0c-0.215 0.447-0.8 1.289-1.325 1.376 0.177-0.458 0.835-0.622 0.835-1.197 0-0.321-0.169-0.406-0.453-0.525-0.366-0.144-0.395-0.099-0.588 0.212-0.261 0.395-0.446 0.981-0.823 1.255-0.237 0.168-0.561 0.227-0.304-0.108 0.137-0.19 0.324-0.259 0.44-0.512 0.18-0.365 0.342-0.918 0.755-1.085 0.298-0.12 1.104 0.167 1.391 0.295" fill="#231f20"/>
      </g>
      <g id="g578" transform="translate(318.19 337.47)">
       <path id="path580" d="m0 0c0.871-0.345 1.301-0.972 2.005-1.427 0.413-0.258 0.522-0.252 0.694 0.125 0.085 0.145 0.094 0.793 0.192 0.856 0.161 0.089 0.732-0.27 0.966-0.29 0.575-0.039 0.55 0.306 0.763 0.652 0.134 0.228 0.444 0.641 0.348 0.886-0.059 0.118-0.656 0.536-0.82 0.56-0.045 0-0.1 0.048-0.148 0.06-0.082-0.298-0.048-0.849-0.333-1.045-0.305 0.161-0.903 0.782-1.206 0.949-0.348-0.358-0.371-1.134-0.348-1.576-0.549 0.166-1.188 0.657-1.8 0.693-0.725 0.058-0.922-0.191-0.259-0.493" fill="#231f20"/>
      </g>
      <g id="g582" transform="translate(322.07 341.54)">
       <path id="path584" d="m0 0c-0.83 0.514-1.862-0.262-2.777-0.196 0.173 0.339 1.146 0.469 0.628 0.937-0.366 0.309-1.611 0.301-2.05 0.132 0.116-0.281 0.63-0.281 0.944-0.383 0.017-0.555-1.553-1.159 0.137-1.277 0.479-0.027 1.098-0.042 1.588 0.095 0.359 0.107 1.075 0.598 1.375 0.359" fill="#231f20"/>
      </g>
      <g id="g586" transform="translate(322.59 347.99)">
       <path id="path588" d="m0 0c0.525 0.059 1.081-0.275 1.56-0.526 0.44-0.238 0.866-0.286 1.282-0.524-0.197-0.338-0.688-0.444-1.051-0.359-0.126 0.035-0.268 0.267-0.388 0.261-0.119 0-0.257-0.24-0.407-0.268-0.691-0.113-0.357 0.303-0.609 0.734-0.202 0.323-0.823 0.286-1.121 0.37 0.154 0.297 0.43 0.282 0.68 0.312" fill="#231f20"/>
      </g>
      <g id="g590" transform="translate(327.95 346.11)">
       <path id="path592" d="m0 0s-0.742-0.881-0.992 0.65c0 0 0.479 0.146 0.992-0.65" fill="#231f20"/>
      </g>
      <g id="g594" transform="translate(324.3 342.83)">
       <path id="path596" d="m0 0c0.18 0.795 0.48 0.676 0.932 0.525 0.245-0.069 0.98-0.022 1.115-0.395 0.466-1.086-1.713-0.567-2.047-0.727-0.072 0.058-0.119 0.179-0.149 0.266 0.061 0.056 0.077 0.115 0.101 0.181" fill="#f5e920"/>
      </g>
      <g id="g598" transform="translate(326.5 343.87)">
       <path id="path600" d="m0 0c-0.352 0.25-1.146 0.304-1.594 0.275 0.191-0.337 1.135-0.572 1.506-0.7 0.041 0.066 0.119 0.186 0.142 0.271" fill="#ea272d"/>
      </g>
      <g id="g602" transform="translate(326.61 342.12)">
       <path id="path604" d="m0 0c-0.191-0.038-0.394-0.088-0.605-0.038 0.15 0.141 0.366 0.154 0.557 0.176" fill="#ea272d"/>
      </g>
      <g id="g606" transform="translate(318.75 347.67)">
       <path id="path608" d="m0 0c-0.305 0.451-1.04 1.019-1.028 1.607 0.73-0.084 1.433-0.141 2.098-0.44" stroke="#241b1a" stroke-width="0.314" fill="none"/>
      </g>
      <g id="g610" transform="translate(320.52 349.02)">
       <path id="path612" d="m0 0c-0.226-1.87-3.224 1.669-2.423-0.573 0.216-0.589 1.146-1.297 1.516-1.626 0.896-0.822 0.955-0.034 1.056 1.476" fill="#f5e920"/>
      </g>
      <g id="g614" transform="translate(329.13 344.73)">
       <path id="path616" d="m0 0c-0.172-0.443-0.805-1.745-1.343-1.802-0.615-0.116-1.056 0.872-1.552 1.097 0.915 0.071 2.036-0.381 2.793 0.253" fill="#231f20"/>
      </g>
      <g id="g618" transform="translate(325.95 345.13)">
       <path id="path620" d="m0 0c0.371-0.436 1.217-1.503 1.946-1.054 0.619 0.398 0.12 1.476 0.275 2.015-0.13-0.071-0.309-0.108-0.448-0.184" fill="#f5e920"/>
      </g>
      <g id="g622" transform="translate(319.37 349.83)">
       <path id="path624" d="m0 0c-0.036-0.021-0.09-0.047-0.12-0.085 0.12-0.081 0.598-0.397 0.705-0.226 0.185 0.264-0.417 0.472-0.585 0.363" fill="#f5e920"/>
      </g>
      <g id="g626" transform="translate(320.39 343.51)">
       <path id="path628" d="m0 0c0.113-0.096 0.423-0.167 0.589-0.143 0.359 0.077 0.151 0.084 0.151 0.348 0.012 0.57 0.376 0.273 0.663 0.584 0.441 0.483-0.038 0.683-0.382 0.74-0.156 0.024-0.388 0.186-0.549 0.108-0.271-0.108-0.204-0.322 0.047-0.378 0.023-0.347-0.347-0.161-0.526-0.231 0.054-0.227 0.502-0.261 0.406-0.514-0.072-0.205-0.513-0.06-0.651-0.114-0.1-0.256 0.175-0.45 0.365-0.475" fill="#231f20"/>
      </g>
      <g id="g630" transform="translate(318.49 347.97)">
       <path id="path632" d="m0 0c0.288-0.301 1.159-1.187 1.098-1.596-0.035-0.379-0.526-0.465-0.697-0.824-0.162-0.31-0.056-0.751-0.258-1.013-0.405 0.662-0.096 1.612-0.096 2.316 0 0.429-0.333 0.573-0.43 0.93-0.143 0.51 0.239 0.51 0.526 0.187" fill="#231f20"/>
      </g>
      <g id="g634" transform="translate(327.75 348.05)">
       <path id="path636" d="m0 0c0.418-0.777 1.075-1.396 0.974-2.346-0.031-0.324-0.281-0.89-0.51-1.142-0.272-0.334-0.739-0.387-0.965-0.741 1.135-0.405 1.529 0.666 1.683 1.591 0.072 0.452 0.214 1 0.145 1.466-0.096 0.754-0.603 0.695-1.064 1.094" fill="#231f20"/>
      </g>
      <g id="g638" transform="translate(304.49 362.69)">
       <path id="path640" d="m0 0s2.485 3.083 5.53 0h-5.53z" fill="#fff"/>
      </g>
      <g id="g642" transform="translate(304.49 362.69)">
       <path id="path644" d="m0 0s1.685-1.051 2.078-1.539c0 0 0.479-0.491 1.04 0 0 0 1.129 0.98 2.412 1.539h-5.53z" fill="#fff"/>
      </g>
      <g id="g646" transform="translate(310.44 263.46)">
       <path id="path648" d="m0 0c-1.816 1.419-1.678 1.22-3.654 0.274-1.667-0.786-2.914 0.812-4.467-0.557-0.782-0.693-2.502-3.038-2.671-4.09-0.195-1.24 0.425-0.932 1.406-1.166 1.062-0.257 1.228 0.186 1.133-1.424 0.872-0.141 1.361 0.325 2.083 0.405 1.016 0.12 0.556 0 1.417-0.425 0.669-0.356 0.882-0.721 1.922-0.567 0.718 0.119 1.374 0.691 2.137 0.251 0.253 0.285 0.622 0.907 0.981 1.045 0.536 0.179 1.061-0.4 1.384-0.304 0.346 0.092 1.534 1.36 1.589 1.863 0.179 1.504-2.723 3.321-3.26 4.695" stroke="#231f20" stroke-width=".25" fill="#ea272d"/>
      </g>
      <g id="g650" transform="translate(307.63 264.05)">
       <path id="path652" d="m0 0c-0.097 3.939 4.334 6.783 7.737 5.208 1.248-0.572 3.139-1.733 2.962-3.329-0.036-0.267-0.539-0.447-0.574-0.758-0.031-0.311 0.31-1.113 0.288-1.227-0.192-0.742-0.551-1.112-1.554-0.79-0.532-1.208 0.824-1.583-0.59-2.316-1.149-0.585-1.546 0.093-1.99-1.575-0.858 1.275 0.18 3.043-1.217 4.357-1.195 1.1-3.905 1.266-5.338 0.728" stroke="#231f20" stroke-width=".25" fill="#ea272d"/>
      </g>
      <g id="g654" transform="translate(304.28 263.87)">
       <path id="path656" d="m0 0c-0.305 2.179-3.543 1.752-4.068-0.144-0.441-1.608 0.946-4.568-1.015-5.475-1.403-0.646-0.895 0.929-1.779 1.275-1.086 0.442-1.694-1.303-2.424 0.649-0.513 1.376-0.125 1.355-1.373 2.278-0.944 0.715-1.434 1.277-1.23 2.614 1.995 0.741 0.574 2.467 1.409 3.839 0.801 1.351 3.332 1.347 4.573 1.55 3.702 0.606 6.796-2.563 7.142-6.558-0.333-0.084-0.667-0.034-0.953 0.13" stroke="#231f20" stroke-width=".25" fill="#ea272d"/>
      </g>
      <g id="g658" transform="translate(310.17 269.86)">
       <path id="path660" d="m0 0c-1.284 1.774-2.717 1.89-4.187 3.251-0.872 0.817-4.013 2.912-4.255 0.415-0.934-0.058-1.238 1.063-2.08 1.147-1.306 0.125-0.077-0.837-0.877-1.575-0.583-0.56-1.91-0.011-2.641-0.467-0.871-0.57-0.762-1.264-0.525-2.301 1.972 0 2.988 1.986 5.017 0.64 1.348-0.876 3.988-3.761 4.52-5.312 0.269-0.777-0.024-1.898 0.806-2.348 0.903-0.482 1.731 0.276 1.97 1.033 0.322 0.945 0.12 1.791 0.563 2.754 0.382 0.853 0.678 1.559 1.402 2.19" stroke="#231f20" stroke-width=".25" fill="#ea272d"/>
      </g>
      <g id="g662" transform="translate(307.61 269.61)">
       <path id="path664" d="m0 0c1.152 2.232 2.692 5.839 5.923 4.515 0.74-0.3 0.8-0.866 1.361-1.358 0.598-0.517 1.068-0.553 1.709-0.863 1.463-0.717 1.337-1.386 1.241-3.179-2.781 1.851-10.473 1.577-10.223-3.511-0.799 0.767-0.932 3.634 0.014 4.501" stroke="#231f20" stroke-width=".25" fill="#ea272d"/>
      </g>
      <g id="g666" transform="translate(306.35 265.36)">
       <path id="path668" d="m0 0s1.653 7.609 0.631 10.4c0 0 0.444 1.816-0.907 5.184h-1.109l0.591 0.827-0.921 0.72-0.555 0.558h-0.329-0.996l-0.28-0.824-0.08-1.292 0.36-0.979 0.679-0.483-0.009-0.632 0.997-1.263 0.543-1.405 0.442-0.105 0.56-0.743s0.707-6.457-0.639-9.449c0 0-0.114-1.516 1.022-0.514" fill="#231f20"/>
      </g>
      <g id="g670" transform="translate(308.61 254.94)">
       <path id="path672" d="m0 0c0-0.854-0.245-1.08 0.561-0.968 0.15-0.11 0.3-0.404 0.377-0.591-0.419-0.364-0.532-0.47-0.758-0.967-0.18-0.41-0.234-1.097-0.357-1.544-0.152-0.514-0.157-0.951-0.264-1.391-0.169-0.616-0.479-0.906-0.683-1.53-0.273-0.861 0.586-2.527-0.84-2.325-0.849 0.121-1.732 2.271-1.762 3.088 0.192-0.05 0.502 0 0.717-0.089-0.872 0.679-1.122 2.043-1.387 3.037-0.167 0.569-0.597 1.189-0.291 1.811 0.149 0.311 1.348 0.287 0.674 1.11 0.276 0.667 1.112 0.774 1.763 0.657 0.919-0.203 1.126-0.344 2.073 0" fill="#231f20"/>
      </g>
      <g id="g674" transform="translate(304.82 256.35)">
       <path id="path676" d="m0 0c0.383-0.245 0.372-1.32 0.962-1 0.555 0.315 0.053 1.197-0.464 1.255 0 0.061 0 0.151-0.038 0.205-0.04-0.054-0.234-0.179-0.262-0.227" fill="#ea272d"/>
      </g>
      <g id="g678" transform="translate(363.07 275.02)">
       <path id="path680" d="m0 0h172.72" stroke="#fff" fill="none"/>
      </g>
     </g>
    </g>
    <g id="text682" transform="matrix(1.25 0 0 1.25 204.77 1093.6)" fill="#fff">
     <path id="path4815" d="m2.6367-11.918h9.0527l-0.97559 3.1641h-0.33398q0.16699-0.69434 0.16699-1.2393 0-0.6416-0.39551-0.9668-0.29883-0.24609-1.5381-0.24609h-0.94043l-2.3555 8.209q-0.44824 1.5469-0.44824 1.9072 0 0.33398 0.28125 0.55371 0.28125 0.21094 0.99316 0.21094h0.4043l-0.1046 0.3252h-5.1856l0.09668-0.3252h0.22852q0.68555 0 1.0547-0.21973 0.2549-0.14941 0.4571-0.53617 0.2109-0.3955 0.58-1.6611l2.4697-8.4639h-0.71191q-1.0283 0-1.6611 0.26367-0.62402 0.26367-1.0107 0.76465-0.38672 0.50098-0.63281 1.4238h-0.3252l0.83496-3.1641z"/>
     <path id="path4817" d="m15.29-12.498-2.47 8.5341q1.5996-2.4082 2.4961-3.1992 0.89648-0.79102 1.7139-0.79102 0.42188 0 0.70312 0.29004 0.28125 0.29004 0.28125 0.77344 0 0.58008-0.24609 1.4062l-1.0723 3.6826q-0.20215 0.66797-0.20215 0.73828 0 0.12305 0.07031 0.20215 0.0791 0.079102 0.17578 0.079102 0.11426 0 0.26367-0.11426 0.50098-0.38672 0.99316-1.0723l0.27246 0.16699q-0.298 0.4661-0.834 1.0286-0.528 0.55367-0.914 0.7734-0.37793 0.21094-0.67676 0.21094-0.3252 0-0.53613-0.21094-0.20215-0.20215-0.20215-0.52734 0-0.38672 0.30762-1.4414l1.0107-3.5156q0.19336-0.65918 0.19336-1.0371 0-0.17578-0.11426-0.28125-0.10547-0.10547-0.28125-0.10547-0.25488 0-0.58008 0.19336-0.59766 0.36914-1.3799 1.3711-0.21094 0.27246-1.4062 2.1973-0.36914 0.61523-0.60645 1.3447l-0.563 1.8017h-1.3184l2.8916-10.055 0.30762-1.0898q0-0.22852-0.19336-0.4043-0.18457-0.17578-0.45703-0.17578-0.1582 0-0.4834 0.05273l-0.18457 0.02637v-0.34277l3.041-0.50977z"/>
     <path id="path4819" d="m21.153-3.3135q-0.06152 0.43945-0.06152 0.72949 0 0.78223 0.55371 1.3359 0.55371 0.54492 1.3447 0.54492 0.63281 0 1.2129-0.25488 0.58887-0.26367 1.7402-1.1514l0.18457 0.25488q-2.083 2.0654-3.9727 2.0654-1.2832 0-1.9336-0.80859-0.65039-0.80859-0.65039-1.7842 0-1.3096 0.80859-2.6807t2.0303-2.127q1.2217-0.76465 2.5137-0.76465 0.93164 0 1.3799 0.37793 0.44824 0.37793 0.44824 0.89648 0 0.72949-0.58008 1.3975-0.76465 0.87012-2.25 1.4062-0.98438 0.36035-2.7686 0.5625zm0.06152-0.43066q1.3008-0.14941 2.1182-0.50977 1.0811-0.4834 1.6172-1.1514 0.54492-0.67676 0.54492-1.2832 0-0.36914-0.2373-0.59766-0.22852-0.22852-0.65918-0.22852-0.89648 0-1.9072 0.95801-1.002 0.94922-1.4766 2.8125z"/>
     <path id="path4821" d="m36.659-11.918 3.6826 9.3428 1.9951-6.9785q0.24609-0.86133 0.24609-1.3359 0-0.3252-0.22852-0.50977t-0.85254-0.18457q-0.10547 0-0.21973-0.0088l0.09668-0.3252h3.832l-0.10547 0.3252q-0.59766-0.0088-0.8877 0.12305-0.41309 0.18457-0.61523 0.47461-0.28125 0.41309-0.57129 1.4414l-2.8037 9.8262h-0.31641l-3.9639-10.055-2.1182 7.4268q-0.2373 0.84375-0.2373 1.292 0 0.33398 0.21094 0.50977 0.21973 0.16699 1.0283 0.22852l-0.088 0.3256h-3.744l0.123-0.3252q0.70312-0.017578 0.94043-0.12305 0.36035-0.1582 0.53613-0.41309 0.25488-0.38672 0.57129-1.4941l2.3643-8.2881q-0.34277-0.52734-0.73828-0.7207-0.38672-0.20215-1.2129-0.22852l0.09668-0.3252h2.9795z"/>
     <path id="path4823" d="m51.952-7.9541-1.7139 5.959-0.19336 0.7998q-0.02637 0.11426-0.02637 0.19336 0 0.14062 0.08789 0.24609 0.07031 0.079102 0.17578 0.079102 0.11426 0 0.29883-0.14062 0.34277-0.25488 0.91406-1.0547l0.29883 0.21094q-0.60644 0.91406-1.248 1.3975-0.6416 0.47461-1.1865 0.47461-0.37793 0-0.57129-0.19336-0.18457-0.18457-0.18457-0.54492 0-0.43066 0.19336-1.1338l0.18457-0.65918q-1.1514 1.5029-2.1182 2.1006-0.69434 0.43066-1.3623 0.43066-0.6416 0-1.1074-0.52734-0.46582-0.53613-0.46582-1.4678 0-1.3975 0.83496-2.9443 0.84375-1.5557 2.1357-2.4873 1.0107-0.73828 1.9072-0.73828 0.53613 0 0.8877 0.28125 0.36035 0.28125 0.54492 0.93164l0.31641-1.002 1.3975-0.21094zm-3.1289 0.45703q-0.5625 0-1.1953 0.52734-0.89648 0.74707-1.5996 2.2148-0.69434 1.4678-0.69434 2.6543 0 0.59766 0.29883 0.94922 0.29883 0.34277 0.68555 0.34277 0.95801 0 2.083-1.415 1.5029-1.8809 1.5029-3.8584 0-0.74707-0.29004-1.0811-0.29004-0.33398-0.79102-0.33398z"/>
     <path id="path4825" d="m57.182-10.134-0.68555 2.3906h1.3799l-0.14941 0.55371h-1.3711l-1.5117 5.1855q-0.24609 0.83496-0.24609 1.0811 0 0.14941 0.07031 0.22852 0.07031 0.079102 0.16699 0.079102 0.21973 0 0.58008-0.30762 0.21094-0.17578 0.94043-1.0811l0.29004 0.21973q-0.80859 1.1777-1.5293 1.6611-0.49219 0.33398-0.99316 0.33398-0.38672 0-0.63281-0.2373-0.24609-0.24609-0.24609-0.62402 0-0.47461 0.28125-1.4502l1.4678-5.0889h-1.3271l0.08789-0.34277q0.9668-0.26367 1.6084-0.78223 0.6416-0.52734 1.4326-1.8193h0.38672z"/>
     <path id="path4827" d="m61.535-11.443q0.36914 0 0.62402 0.25488t0.25488 0.62402q0 0.36035-0.26367 0.62402-0.25488 0.25488-0.61523 0.25488t-0.62402-0.25488q-0.25488-0.26367-0.25488-0.62402 0-0.36914 0.25488-0.62402t0.62402-0.25488zm0.11426 3.4893-1.7402 6.1611q-0.17578 0.62402-0.17578 0.74707 0 0.14062 0.0791 0.22852 0.08789 0.087891 0.20215 0.087891 0.13184 0 0.31641-0.14062 0.50098-0.39551 1.0107-1.125l0.30762 0.20215q-0.59766 0.91406-1.4062 1.5381-0.59766 0.46582-1.1426 0.46582-0.36035 0-0.58887-0.21094-0.229-0.22013-0.229-0.54532 0-0.3252 0.21973-1.0811l1.1426-3.9375q0.28125-0.9668 0.28125-1.2129 0-0.19336-0.14062-0.31641-0.13184-0.12305-0.36914-0.12305-0.19336 0-0.7998 0.09668v-0.34277l3.0322-0.49219z"/>
     <path id="path4829" d="m70.837-5.2031q0 1.3184-0.70312 2.6104-0.69434 1.292-1.9424 2.0479-1.248 0.75586-2.4258 0.75586-1.2041 0-1.9688-0.76465-0.75586-0.77344-0.75586-1.9951 0-1.292 0.73828-2.5928 0.74707-1.3008 1.9863-2.0566 1.248-0.75586 2.4082-0.75586t1.9072 0.76465q0.75586 0.76465 0.75586 1.9863zm-1.459-0.60645q0-0.81738-0.4043-1.248-0.39551-0.43945-1.0283-0.43945-1.292 0-2.3818 1.8545-1.0811 1.8457-1.0811 3.6738 0 0.83496 0.42188 1.292 0.42188 0.44824 1.0635 0.44824 1.2393 0 2.3203-1.8369 1.0898-1.8457 1.0898-3.7441z"/>
     <path id="path4831" d="m75.487-7.9541-1.1689 3.999q1.6436-2.4521 2.5137-3.2256 0.87891-0.77344 1.6875-0.77344 0.43945 0 0.7207 0.29004 0.29004 0.29004 0.29004 0.75586 0 0.52734-0.25488 1.4062l-1.0723 3.7002q-0.18457 0.6416-0.18457 0.78223 0 0.12305 0.07031 0.21094 0.07031 0.079102 0.14941 0.079102 0.10547 0 0.25488-0.11426 0.46582-0.36914 1.0195-1.125l0.27246 0.16699q-0.81738 1.1689-1.5469 1.6699-0.50977 0.34277-0.91406 0.34277-0.3252 0-0.51855-0.20215-0.19336-0.19336-0.19336-0.52734 0-0.42188 0.29883-1.4502l1.0195-3.5332q0.19336-0.65918 0.19336-1.0283 0-0.17578-0.11426-0.28125-0.11426-0.11426-0.28125-0.11426-0.24609 0-0.58887 0.21094-0.65039 0.39551-1.3535 1.3096-0.704 0.9053-1.486 2.3203-0.413 0.7471-0.685 1.6348l-0.44 1.4502h-1.3184l1.5996-5.502q0.28125-0.99316 0.28125-1.1953 0-0.19336-0.1582-0.33398-0.14941-0.14941-0.37793-0.14941-0.10547 0-0.36914 0.035156l-0.33398 0.052734-0.05273-0.31641 3.041-0.54492z"/>
     <path id="path4833" d="m88.96-7.9541-1.7139 5.959-0.19336 0.7998q-0.02637 0.11426-0.02637 0.19336 0 0.14062 0.08789 0.24609 0.07031 0.079102 0.17578 0.079102 0.11426 0 0.29883-0.14062 0.34277-0.25488 0.91406-1.0547l0.29883 0.21094q-0.60644 0.91406-1.248 1.3975-0.6416 0.47461-1.1865 0.47461-0.37793 0-0.57129-0.19336-0.18457-0.18457-0.18457-0.54492 0-0.43066 0.19336-1.1338l0.18457-0.65918q-1.1514 1.5029-2.1182 2.1006-0.69434 0.43066-1.3623 0.43066-0.6416 0-1.1074-0.52734-0.46582-0.53613-0.46582-1.4678 0-1.3975 0.83496-2.9443 0.84375-1.5557 2.1357-2.4873 1.0107-0.73828 1.9072-0.73828 0.53613 0 0.8877 0.28125 0.36035 0.28125 0.54492 0.93164l0.31641-1.002 1.3975-0.21094zm-3.1289 0.45703q-0.5625 0-1.1953 0.52734-0.89648 0.74707-1.5996 2.2148-0.69434 1.4678-0.69434 2.6543 0 0.59766 0.29883 0.94922 0.29883 0.34277 0.68555 0.34277 0.95801 0 2.083-1.415 1.5029-1.8809 1.5029-3.8584 0-0.74707-0.29004-1.0811-0.29004-0.33398-0.79102-0.33398z"/>
     <path id="path4835" d="m94.867-12.498-3.006 10.459q-0.21973 0.78223-0.21973 0.95801 0 0.13184 0.0791 0.21973 0.08789 0.087891 0.21094 0.087891 0.16699 0 0.36035-0.14941 0.45703-0.36035 0.95801-1.1162l0.26367 0.27246q-0.83496 1.1777-1.5381 1.6436-0.51855 0.33398-0.98438 0.33398-0.33398 0-0.5625-0.22852-0.21973-0.22852-0.21973-0.52734 0-0.31641 0.28125-1.3008l2.3818-8.2441q0.29004-1.0107 0.29004-1.1602 0-0.21094-0.16699-0.34277-0.16699-0.14062-0.51856-0.14062-0.20215 0-0.61523 0.06152v-0.3252l3.0059-0.50098z"/>
     <path id="path4837" d="m101.37-11.918h5.0361l-0.0967 0.3252q-0.77344 0.01758-1.1074 0.14941-0.3252 0.12305-0.5625 0.44824-0.22852 0.3252-0.4834 1.2041l-1.2217 4.2188q-0.3252 1.125-0.38672 1.4766-0.10547 0.5625-0.10547 1.0459 0 1.0635 0.79102 1.8018 0.79101 0.72949 2.1182 0.72949 0.87012 0 1.5557-0.3252 0.68554-0.33398 1.1689-0.92285 0.49219-0.59766 0.89649-1.6084 0.40429-1.0195 0.71191-2.0566l1.0547-3.6387q0.3955-1.3623 0.3955-1.7754 0-0.29004-0.27246-0.49219-0.26367-0.21094-1.081-0.25488l0.0967-0.3252h3.7881l-0.0967 0.3252q-0.66797 0-0.9668 0.13184-0.29004 0.12305-0.50977 0.45703-0.21972 0.3252-0.49218 1.2744l-1.292 4.4209q-0.62402 2.1533-1.1777 3.1816-0.55371 1.0195-1.6084 1.7139-1.0459 0.68555-2.6016 0.68555-1.793 0-2.8916-1.0107-1.0986-1.0195-1.0986-2.3291 0-0.51855 0.0967-1.1074 0.0703-0.38672 0.34278-1.3359l1.18-4.0516q0.24609-0.87891 0.24609-1.292 0-0.3252-0.25488-0.50098-0.24609-0.18457-1.2568-0.2373l0.0879-0.3252z"/>
     <path id="path4839" d="m115.99-7.9541-1.169 3.999q1.6436-2.4521 2.5137-3.2256 0.87891-0.77344 1.6875-0.77344 0.43946 0 0.72071 0.29004 0.29003 0.29004 0.29003 0.75586 0 0.52734-0.25488 1.4062l-1.0723 3.7002q-0.18457 0.6416-0.18457 0.78223 0 0.12305 0.0703 0.21094 0.0703 0.079102 0.14941 0.079102 0.10547 0 0.25489-0.11426 0.46582-0.36914 1.0195-1.125l0.27246 0.16699q-0.81739 1.1689-1.5469 1.6699-0.50976 0.34277-0.91406 0.34277-0.3252 0-0.51855-0.20215-0.19336-0.19336-0.19336-0.52734 0-0.42188 0.29882-1.4502l1.0195-3.5332q0.19335-0.65918 0.19335-1.0283 0-0.17578-0.11425-0.28125-0.11426-0.11426-0.28125-0.11426-0.2461 0-0.58887 0.21094-0.65039 0.39551-1.3535 1.3096-0.70312 0.90527-1.4854 2.3203-0.41308 0.74707-0.68554 1.6348l-0.44 1.4502h-1.3184l1.5996-5.502q0.28125-0.99316 0.28125-1.1953 0-0.19336-0.1582-0.33398-0.14941-0.14941-0.37793-0.14941-0.10547 0-0.36914 0.035156l-0.33399 0.052734-0.0527-0.31641 3.041-0.54492z"/>
     <path id="path4841" d="m125.04-11.443q0.36914 0 0.62402 0.25488 0.25489 0.25488 0.25489 0.62402 0 0.36035-0.26368 0.62402-0.25488 0.25488-0.61523 0.25488t-0.62402-0.25488q-0.25489-0.26367-0.25489-0.62402 0-0.36914 0.25489-0.62402 0.25488-0.25488 0.62402-0.25488zm0.11426 3.4893-1.7402 6.1611q-0.17578 0.62402-0.17578 0.74707 0 0.14062 0.0791 0.22852 0.0879 0.087891 0.20215 0.087891 0.13184 0 0.31641-0.14062 0.50098-0.39551 1.0107-1.125l0.30762 0.20215q-0.59766 0.91406-1.4062 1.5381-0.59766 0.46582-1.1426 0.46582-0.36035 0-0.58887-0.21094-0.22-0.22013-0.22-0.54532 0-0.3252 0.21972-1.0811l1.1426-3.9375q0.28125-0.9668 0.28125-1.2129 0-0.19336-0.14062-0.31641-0.13184-0.12305-0.36914-0.12305-0.19336 0-0.79981 0.09668v-0.34277l3.0322-0.49219z"/>
     <path id="path4843" d="m126.4-7.4092 2.54-0.54492q0.27246 0.65039 0.43945 1.3271 0.2373 0.99316 0.38672 2.3555 0.0703 0.68555 0.19336 2.9004 1.0986-1.2129 1.3096-1.5029 1.1602-1.5732 1.3359-1.8457 0.29004-0.46582 0.4043-0.81738 0.0967-0.26367 0.0967-0.50098 0-0.22852-0.41308-0.52734-0.4043-0.29883-0.4043-0.66797 0-0.28125 0.21972-0.50098 0.22852-0.21973 0.53614-0.21973 0.36914 0 0.65039 0.30762 0.28125 0.29883 0.28125 0.74707t-0.14063 0.86133q-0.22851 0.66797-0.85254 1.6348-0.62402 0.95801-2.0127 2.5752-0.17578 0.20215-1.9512 2.0391h-0.3252q-0.21094-5.5635-0.8789-6.9434-0.21973-0.44824-0.7295-0.44824-0.21972 0-0.62402 0.079102l-0.0615-0.30762z"/>
     <path id="path4845" d="m136.15-3.3135q-0.0615 0.43945-0.0615 0.72949 0 0.78223 0.55371 1.3359 0.55371 0.54492 1.3447 0.54492 0.63281 0 1.2129-0.25488 0.58887-0.26367 1.7402-1.1514l0.18458 0.25488q-2.083 2.0654-3.9727 2.0654-1.2832 0-1.9336-0.80859t-0.6504-1.7842q0-1.3096 0.8086-2.6807 0.80859-1.3711 2.0303-2.127 1.2217-0.76465 2.5137-0.76465 0.93164 0 1.3799 0.37793 0.44824 0.37793 0.44824 0.89648 0 0.72949-0.58008 1.3975-0.76465 0.87012-2.25 1.4062-0.98437 0.36035-2.7686 0.5625zm0.0615-0.43066q1.3008-0.14941 2.1182-0.50977 1.0811-0.4834 1.6172-1.1514 0.54492-0.67676 0.54492-1.2832 0-0.36914-0.2373-0.59766-0.22852-0.22852-0.65918-0.22852-0.89649 0-1.9072 0.95801-1.002 0.94922-1.4766 2.8125z"/>
     <path id="path4847" d="m142.94-7.4619 3.0322-0.49219-1.2656 4.2715q1.5381-2.6279 2.7949-3.6738 0.71192-0.59766 1.1602-0.59766 0.29004 0 0.45703 0.17578 0.16699 0.16699 0.16699 0.49219 0 0.58008-0.29883 1.1074-0.21093 0.39551-0.60644 0.39551-0.20215 0-0.35156-0.13184-0.14063-0.13184-0.17579-0.4043-0.0176-0.16699-0.0791-0.21973-0.0703-0.070312-0.16699-0.070312-0.14941 0-0.28125 0.070312-0.22851 0.12305-0.69434 0.68555-0.72949 0.86133-1.582 2.2324-0.36914 0.58008-0.63281 1.3096-0.36914 1.002-0.42187 1.2041l-0.27 1.1073h-1.3447l1.626-5.458q0.28125-0.94922 0.28125-1.3535 0-0.1582-0.13184-0.26367-0.17578-0.14062-0.46582-0.14062-0.18457 0-0.67676 0.079102l-0.0615-0.3252z"/>
     <path id="path4849" d="m155.53-7.9541-0.53613 2.6982h-0.3252q-0.0439-1.1777-0.50097-1.7139-0.45703-0.53613-1.1338-0.53613-0.54492 0-0.87012 0.29883-0.31641 0.29883-0.31641 0.7207 0 0.29004 0.12305 0.55371 0.13184 0.26367 0.5625 0.73828 1.1426 1.248 1.4766 1.8809 0.33399 0.63281 0.33399 1.1953 0 0.91406-0.76465 1.626-0.75586 0.70312-1.916 0.70312-0.63281 0-1.459-0.29883-0.29004-0.10547-0.44824-0.10547-0.39551 0-0.59766 0.4043h-0.32519l0.53613-2.8477h0.32519q0.0527 1.3359 0.55371 1.8896 0.50098 0.55371 1.3711 0.55371 0.66797 0 1.0547-0.36914 0.3955-0.37793 0.3955-0.92285 0-0.35156-0.14062-0.65039-0.2461-0.52734-1.0371-1.459-0.78223-0.93164-1.0107-1.3975-0.21973-0.46582-0.21973-0.93164 0-0.85254 0.61523-1.4414 0.62403-0.58887 1.5996-0.58887 0.28125 0 0.50977 0.043945 0.12305 0.026367 0.57129 0.20215 0.45703 0.16699 0.60644 0.16699 0.37793 0 0.63282-0.41309h0.33398z"/>
     <path id="path4851" d="m160.03-11.443q0.36914 0 0.62402 0.25488t0.25488 0.62402q0 0.36035-0.26367 0.62402-0.25488 0.25488-0.61523 0.25488t-0.62403-0.25488q-0.25488-0.26367-0.25488-0.62402 0-0.36914 0.25488-0.62402 0.25489-0.25488 0.62403-0.25488zm0.11426 3.4893-1.7402 6.1611q-0.17578 0.62402-0.17578 0.74707 0 0.14062 0.0791 0.22852 0.0879 0.087891 0.20215 0.087891 0.13184 0 0.31641-0.14062 0.50097-0.39551 1.0107-1.125l0.30762 0.20215q-0.59766 0.91406-1.4062 1.5381-0.59766 0.46582-1.1426 0.46582-0.36035 0-0.58887-0.21094-0.22-0.22013-0.22-0.54532 0-0.3252 0.21973-1.0811l1.1426-3.9375q0.28125-0.9668 0.28125-1.2129 0-0.19336-0.14063-0.31641-0.13183-0.12305-0.36914-0.12305-0.19336 0-0.7998 0.09668v-0.34277l3.0322-0.49219z"/>
     <path id="path4853" d="m165.69-10.134-0.68555 2.3906h1.3799l-0.14941 0.55371h-1.3711l-1.5117 5.1855q-0.2461 0.83496-0.2461 1.0811 0 0.14941 0.0703 0.22852 0.0703 0.079102 0.167 0.079102 0.21972 0 0.58007-0.30762 0.21094-0.17578 0.94043-1.0811l0.29004 0.21973q-0.80859 1.1777-1.5293 1.6611-0.49219 0.33398-0.99317 0.33398-0.38672 0-0.63281-0.2373-0.24609-0.24609-0.24609-0.62402 0-0.47461 0.28125-1.4502l1.4678-5.0889h-1.3272l0.0879-0.34277q0.9668-0.26367 1.6084-0.78223 0.6416-0.52734 1.4326-1.8193h0.38672z"/>
     <path id="path4855" d="m168.89-7.9541q0.29883 0.50977 0.41309 0.95801 0.11425 0.43945 0.22851 1.7402l0.38672 4.3242q0.52735-0.63281 1.5293-2.0039 0.4834-0.66797 1.1953-1.8193 0.43066-0.70312 0.52734-0.98438 0.0527-0.14062 0.0527-0.29004 0-0.09668-0.0615-0.1582-0.0615-0.061523-0.3252-0.14062-0.25488-0.087891-0.43066-0.30762-0.167-0.22852-0.167-0.51855 0-0.36035 0.21094-0.58008t0.52735-0.21973q0.38671 0 0.65917 0.3252 0.27247 0.31641 0.27247 0.87891 0 0.69434-0.47461 1.5908-0.47461 0.8877-1.8281 2.7334t-3.2783 4.0254q-1.3272 1.5029-1.9688 1.8896-0.6416 0.39551-1.0986 0.39551-0.27246 0-0.47461-0.21094-0.21094-0.20215-0.21094-0.47461 0-0.34277 0.29004-0.62402 0.28125-0.28125 0.61523-0.28125 0.17579 0 0.29004 0.079102 0.0703 0.043945 0.15821 0.24609 0.0791 0.21094 0.14941 0.28125 0.044 0.043945 0.10547 0.043945 0.0527 0 0.18457-0.087891 0.4834-0.29883 1.125-0.94922 0.84375-0.86133 1.248-1.4063l-0.49-5.5721q-0.13-1.3799-0.37-1.6787-0.24609-0.29883-0.82617-0.29883-0.18457 0-0.65918 0.052734l-0.0791-0.3252 2.5752-0.63281z"/>
     <path id="path4857" d="m8.3232 9.7909q0 1.3184-0.70312 2.6104-0.69434 1.292-1.9424 2.0479-1.248 0.75586-2.4258 0.75586-1.2041 0-1.9688-0.76465-0.75586-0.77344-0.75586-1.9951 0-1.292 0.73828-2.5928 0.7472-1.301 1.9865-2.0568 1.248-0.7559 2.4082-0.7559t1.9072 0.76465q0.75586 0.76465 0.75586 1.9863zm-1.4589-0.6065q0-0.81738-0.4043-1.248-0.39551-0.43945-1.0283-0.43945-1.292 0-2.3818 1.8545-1.0811 1.8455-1.0811 3.6735 0 0.83496 0.42188 1.292 0.42188 0.44824 1.0635 0.44824 1.2393 0 2.3203-1.8369 1.0898-1.8457 1.0898-3.7441z"/>
     <path id="path4859" d="m14.335 7.2508-0.1582 0.58008h-1.2832l-0.9668 3.8408q-0.6416 2.54-1.292 3.9287-0.92285 1.96-1.9863 2.707-0.80859 0.57129-1.6172 0.57129-0.52734 0-0.89648-0.31641-0.27246-0.21973-0.27246-0.57129 0-0.28125 0.22852-0.49219 0.21973-0.20215 0.54492-0.20215 0.2373 0 0.4043 0.14941 0.1582 0.14941 0.1582 0.34277t-0.18457 0.36035q-0.14062 0.12305-0.14062 0.18457 0 0.0791 0.061523 0.12305 0.079102 0.06152 0.24609 0.06152 0.37793 0 0.7998-0.2373 0.41309-0.2373 0.73828-0.71191 0.3252-0.46582 0.61523-1.3535 0.12305-0.36914 0.65918-2.4346l1.5293-5.9502h-1.5293l0.12305-0.58008q0.72949 0 1.0195-0.09668 0.29004-0.10547 0.52734-0.38672 0.24609-0.29004 0.63281-1.0723 0.51856-1.0547 0.99316-1.6348 0.65039-0.78223 1.3623-1.1689 0.7207-0.39551 1.3535-0.39551 0.66797 0 1.0723 0.34277 0.4043 0.33398 0.4043 0.72949 0 0.30762-0.20215 0.51855-0.20215 0.21094-0.51856 0.21094-0.27246 0-0.44824-0.1582-0.16699-0.1582-0.16699-0.37793 0-0.14062 0.11426-0.34277 0.11426-0.21094 0.11426-0.28125 0-0.12305-0.0791-0.18457-0.11426-0.087891-0.33398-0.087891-0.55371 0-0.99316 0.35156-0.58887 0.46582-1.0547 1.459-0.2373 0.51855-0.87012 2.5752h1.292z"/>
     <path id="path4861" d="m24.208 3.076 1.0986 9.5977 6.917-9.5977h2.9092v0.3252q-0.949 0.0613-1.116 0.1228-0.29 0.1142-0.536 0.457-0.238 0.3428-0.519 1.3184l-2.2061 7.5586q-0.19336 0.65918-0.19336 1.0371 0 0.34277 0.2373 0.51855 0.33398 0.25488 1.0547 0.25488h0.21094l-0.0791 0.3252h-5.0186l0.08789-0.3252h0.2373q0.66797 0 1.0195-0.19336 0.27246-0.14062 0.4834-0.52734 0.21973-0.39551 0.60644-1.7402l1.9688-6.9082-6.9521 9.6943h-0.35156l-1.1162-9.6943-2.127 7.374q-0.27246 0.94043-0.27246 1.2656 0 0.3252 0.2373 0.50098 0.2373 0.16699 1.1514 0.22852l-0.09668 0.3252h-3.9287l0.09668-0.3252h0.2373q0.87012 0 1.2568-0.43945 0.28125-0.31641 0.58887-1.3711l2.593-8.8845q-0.29-0.2988-0.554-0.4043-0.264-0.1054-0.976-0.167l0.08789-0.3252h2.9619z"/>
     <path id="path4863" d="m41.944 7.0399-1.7139 5.959-0.19336 0.7998q-0.02637 0.11426-0.02637 0.19336 0 0.14062 0.08789 0.24609 0.07031 0.0791 0.17578 0.0791 0.11426 0 0.29883-0.14062 0.34277-0.25488 0.91406-1.0547l0.29883 0.21094q-0.60644 0.91406-1.248 1.3975-0.6416 0.47461-1.1865 0.47461-0.37793 0-0.57129-0.19336-0.18457-0.18457-0.18457-0.54492 0-0.43066 0.19336-1.1338l0.18457-0.65918q-1.1514 1.5029-2.1182 2.1006-0.69434 0.43066-1.3623 0.43066-0.6416 0-1.1074-0.52734-0.46582-0.53613-0.46582-1.4678 0-1.3975 0.83496-2.9443 0.84375-1.5557 2.1357-2.4873 1.0107-0.73828 1.9072-0.73828 0.53613 0 0.8877 0.28125 0.36035 0.28125 0.54492 0.93164l0.316-1.0024 1.397-0.2109zm-3.1289 0.45703q-0.5625 0-1.1953 0.52734-0.89648 0.74707-1.5996 2.2148-0.69434 1.4678-0.69434 2.6543 0 0.59766 0.29883 0.94922 0.29883 0.34277 0.68555 0.34277 0.95801 0 2.083-1.415 1.5029-1.8809 1.5029-3.8584 0-0.74707-0.29004-1.0811-0.29004-0.33398-0.79102-0.33398z"/>
     <path id="path4865" d="m47.851 2.496-3.006 10.459q-0.21973 0.78223-0.21973 0.95801 0 0.13184 0.0791 0.21973 0.08789 0.08789 0.21094 0.08789 0.16699 0 0.36035-0.14941 0.45703-0.36035 0.95801-1.1162l0.26367 0.27246q-0.83496 1.1777-1.5381 1.6436-0.51856 0.33398-0.98438 0.33398-0.33398 0-0.5625-0.22852-0.21973-0.22852-0.21973-0.52734 0-0.31641 0.28125-1.3008l2.3818-8.2441q0.29004-1.0107 0.29004-1.1602 0-0.21094-0.16699-0.34277-0.16699-0.14062-0.51856-0.14062-0.20215 0-0.61523 0.061523v-0.3252l3.0059-0.50098z"/>
     <path id="path4867" d="m55.948 7.0399-1.7139 5.959-0.19336 0.7998q-0.02637 0.11426-0.02637 0.19336 0 0.14062 0.08789 0.24609 0.07031 0.0791 0.17578 0.0791 0.11426 0 0.29883-0.14062 0.34277-0.25488 0.91406-1.0547l0.29883 0.21094q-0.60644 0.91406-1.248 1.3975-0.6416 0.47461-1.1865 0.47461-0.37793 0-0.57129-0.19336-0.18457-0.18457-0.18457-0.54492 0-0.43066 0.19336-1.1338l0.18457-0.65918q-1.1514 1.5029-2.1182 2.1006-0.69434 0.43066-1.3623 0.43066-0.6416 0-1.1074-0.52734-0.46582-0.53613-0.46582-1.4678 0-1.3975 0.83496-2.9443 0.84375-1.5557 2.1357-2.4873 1.0107-0.73828 1.9072-0.73828 0.53613 0 0.8877 0.28125 0.36035 0.28125 0.54492 0.93164l0.31641-1.002 1.3975-0.21094zm-3.1289 0.45703q-0.5625 0-1.1953 0.52734-0.89648 0.74707-1.5996 2.2148-0.69434 1.4678-0.69434 2.6543 0 0.59766 0.29883 0.94922 0.29883 0.34277 0.68555 0.34277 0.95801 0 2.083-1.415 1.5029-1.8809 1.5029-3.8584 0-0.74707-0.29004-1.0811-0.29004-0.33398-0.79102-0.33398z"/>
     <path id="path4869" d="m59.376 7.0399q0.29883 0.50977 0.41309 0.95801 0.11426 0.43945 0.22852 1.7402l0.38672 4.3242q0.52734-0.63281 1.5293-2.0039 0.4834-0.66797 1.1953-1.8193 0.43066-0.70313 0.52734-0.98438 0.05273-0.14062 0.05273-0.29004 0-0.09668-0.06152-0.1582-0.06152-0.061523-0.3252-0.14062-0.25488-0.087891-0.43066-0.30762-0.16699-0.22852-0.16699-0.51855 0-0.36035 0.21094-0.58008t0.52734-0.21973q0.38672 0 0.65918 0.3252 0.27246 0.31641 0.27246 0.87891 0 0.69434-0.47461 1.5908-0.47461 0.8877-1.8281 2.7334t-3.2783 4.0254q-1.3271 1.5029-1.9688 1.8896-0.6416 0.39551-1.0986 0.39551-0.27246 0-0.47461-0.21094-0.21094-0.20215-0.21094-0.47461 0-0.34277 0.29004-0.62402 0.28125-0.28125 0.61523-0.28125 0.17578 0 0.29004 0.0791 0.07031 0.04395 0.1582 0.24609 0.0791 0.21094 0.14941 0.28125 0.04395 0.04395 0.10547 0.04395 0.05273 0 0.18457-0.08789 0.4834-0.29883 1.125-0.94922 0.84375-0.86133 1.248-1.4062l-0.493-5.5723q-0.123-1.3799-0.369-1.6787t-0.826-0.2988q-0.18457 0-0.65918 0.052734l-0.0791-0.3252 2.5752-0.63281z"/>
     <path id="path4871" d="m71.024 7.0399-0.53613 2.6982h-0.3252q-0.044-1.1777-0.501-1.7138-0.457-0.5362-1.134-0.5362-0.54492 0-0.87012 0.29883-0.31641 0.29883-0.31641 0.7207 0 0.29004 0.12305 0.55371 0.13184 0.26367 0.5625 0.73828 1.1426 1.248 1.4766 1.8809 0.33398 0.63281 0.33398 1.1953 0 0.91406-0.76465 1.626-0.75586 0.70312-1.916 0.70312-0.63281 0-1.459-0.29883-0.29004-0.10547-0.44824-0.10547-0.39551 0-0.59766 0.4043h-0.3252l0.53613-2.8477h0.3252q0.05273 1.3359 0.55371 1.8896 0.50098 0.55371 1.3711 0.55371 0.66797 0 1.0547-0.36914 0.39551-0.37793 0.39551-0.92285 0-0.35156-0.14062-0.65039-0.24609-0.52734-1.0371-1.459-0.78223-0.93164-1.0107-1.3975-0.21973-0.46582-0.21973-0.93164 0-0.85254 0.61523-1.4414 0.62402-0.58887 1.5996-0.58887 0.28125 0 0.50976 0.043945 0.12305 0.026367 0.57129 0.20215 0.45703 0.16699 0.60644 0.16699 0.37793 0 0.63281-0.41309h0.33398z"/>
     <path id="path4873" d="m75.521 3.5506q0.36914 0 0.62402 0.25488t0.25488 0.62402q0 0.36035-0.26367 0.62402-0.25488 0.25488-0.61523 0.25488t-0.62402-0.25488q-0.25488-0.26367-0.25488-0.62402 0-0.36914 0.25488-0.62402t0.62402-0.25488zm0.11426 3.4893-1.7402 6.1611q-0.17578 0.62402-0.17578 0.74707 0 0.14062 0.0791 0.22852 0.08789 0.08789 0.20215 0.08789 0.13184 0 0.31641-0.14062 0.50098-0.39551 1.0107-1.125l0.30762 0.20215q-0.59766 0.91406-1.4062 1.5381-0.59766 0.46582-1.1426 0.46582-0.36035 0-0.58887-0.21094-0.22852-0.21973-0.22852-0.54492 0-0.3252 0.21973-1.0811l1.1426-3.9375q0.28125-0.9668 0.28125-1.2129 0-0.19336-0.14062-0.31641-0.13184-0.12305-0.36914-0.12305-0.19336 0-0.7998 0.09668v-0.34277l3.0322-0.49219z"/>
     <path id="path4875" d="m84.946 7.0399-1.7139 5.959-0.19336 0.7998q-0.02637 0.11426-0.02637 0.19336 0 0.14062 0.08789 0.24609 0.07031 0.0791 0.17578 0.0791 0.11426 0 0.29883-0.14062 0.34277-0.25488 0.91406-1.0547l0.29883 0.21094q-0.60644 0.91406-1.248 1.3975-0.6416 0.47461-1.1865 0.47461-0.37793 0-0.57129-0.19336-0.18457-0.18457-0.18457-0.54492 0-0.43066 0.19336-1.1338l0.18457-0.65918q-1.1514 1.5029-2.1182 2.1006-0.69434 0.43066-1.3623 0.43066-0.6416 0-1.1074-0.52734-0.46582-0.53613-0.46582-1.4678 0-1.3975 0.83496-2.9443 0.84375-1.5557 2.1357-2.4873 1.0107-0.73828 1.9072-0.73828 0.53613 0 0.8877 0.28125 0.36035 0.28125 0.54492 0.93164l0.31641-1.002 1.3975-0.21094zm-3.1289 0.45703q-0.5625 0-1.1953 0.52734-0.89648 0.74707-1.5996 2.2148-0.69434 1.4678-0.69434 2.6543 0 0.59766 0.29883 0.94922 0.29883 0.34277 0.68555 0.34277 0.95801 0 2.083-1.415 1.5029-1.8809 1.5029-3.8584 0-0.74707-0.29004-1.0811-0.29004-0.33398-0.79102-0.33398z"/>
    </g>
   </g>
  </g>
 </g>
</svg>
