<?xml version="1.0" encoding="utf-8"?>
<!-- Generator: Adobe Illustrator 12.0.0, SVG Export Plug-In . SVG Version: 6.00 Build 51448)  -->
<!DOCTYPE svg PUBLIC "-//W3C//DTD SVG 1.1//EN" "http://www.w3.org/Graphics/SVG/1.1/DTD/svg11.dtd" [
	<!ENTITY ns_svg "http://www.w3.org/2000/svg">
	<!ENTITY ns_xlink "http://www.w3.org/1999/xlink">
]>
<svg  version="1.1" id="Layer_1" xmlns="&ns_svg;" xmlns:xlink="&ns_xlink;" width="300" height="380" viewBox="0 0 300 380"
	 overflow="visible" enable-background="new 0 0 300 380" xml:space="preserve">
<rect fill="#E2E2E2" width="300" height="380"/>
<g>
	<path fill="#FFFFFF" d="M238.854,366.462H61.123c-32.333,0-54.295-19.726-54.295-52.669c0-45.958,10.778-116.521,70.36-116.521
		c6.304,0,32.943,28.268,72.801,28.268c39.856,0,66.497-28.268,72.8-28.268c59.583,0,70.361,70.563,70.361,116.521
		C293.15,346.736,271.188,366.462,238.854,366.462z M149.989,210.286c-43.111,0-78.088-34.977-78.088-78.088
		c0-43.111,34.977-78.088,78.088-78.088s78.087,34.977,78.087,78.088C228.076,175.309,193.1,210.286,149.989,210.286z"/>
</g>
</svg>
