<?xml version="1.0" encoding="utf-8"?>
<!-- Generator: Adobe Illustrator 26.0.2, SVG Export Plug-In . SVG Version: 6.00 Build 0)  -->
<svg version="1.1"
	 id="Layer_1" xmlns:cc="http://creativecommons.org/ns#" xmlns:dc="http://purl.org/dc/elements/1.1/" xmlns:rdf="http://www.w3.org/1999/02/22-rdf-syntax-ns#" xmlns:svg="http://www.w3.org/2000/svg"
	 xmlns="http://www.w3.org/2000/svg" xmlns:xlink="http://www.w3.org/1999/xlink" x="0px" y="0px" viewBox="0 0 600 337.6"
	 style="enable-background:new 0 0 600 337.6;" xml:space="preserve">
<style type="text/css">
	.st0{fill:#F0FBFC;}
	.st1{fill:#649CA0;}
</style>
<rect id="rect2" x="-0.5" y="-0.5" class="st0" width="600" height="337.6"/>
<g id="g8">
	<g id="g6">
		<path id="path4" class="st1" d="M363.7,109.4l-18.4,110.2c-0.2,1.4-1.1,2.5-2.3,3.2c-0.6,0.4-1.4,0.6-2.2,0.6
			c-0.6,0-1.1-0.1-1.7-0.4l-32.5-13.3l-17.4,21.2c-0.9,1.1-2.2,1.6-3.5,1.6c-0.5,0-1.1-0.1-1.6-0.3c-1.8-0.6-3-2.4-3-4.3v-25l62-76
			l-76.7,66.4l-28.3-11.6c-1.7-0.6-2.7-2.1-2.9-3.9c-0.1-1.7,0.8-3.4,2.3-4.2l119.4-68.9c0.7-0.4,1.5-0.6,2.3-0.6
			c0.9,0,1.9,0.3,2.6,0.8C363.3,105.9,364,107.6,363.7,109.4z"/>
	</g>
</g>
<g>
	<path class="st1" d="M238.2,280c-0.3,0.6-0.9,1.1-1.5,1.5s-1.6,0.6-2.6,0.6h-1.9v4.5h-3.1V274h5c1,0,1.9,0.2,2.6,0.5
		c0.7,0.3,1.2,0.8,1.6,1.4c0.3,0.6,0.5,1.3,0.5,2.1C238.7,278.8,238.6,279.4,238.2,280z M235.2,279.2c0.3-0.3,0.4-0.7,0.4-1.2
		s-0.1-0.9-0.4-1.2c-0.3-0.3-0.7-0.4-1.3-0.4h-1.7v3.2h1.7C234.4,279.6,234.9,279.5,235.2,279.2z"/>
	<path class="st1" d="M243.4,276.4v2.6h4.1v2.4h-4.1v2.8h4.7v2.5h-7.7V274h7.7v2.5H243.4z"/>
	<path class="st1" d="M256.5,286.6l-2.6-4.8h-0.7v4.8h-3.1V274h5.2c1,0,1.8,0.2,2.5,0.5c0.7,0.3,1.2,0.8,1.6,1.4
		c0.3,0.6,0.5,1.3,0.5,2c0,0.8-0.2,1.6-0.7,2.2c-0.5,0.7-1.2,1.1-2.1,1.4l2.9,5H256.5z M253.1,279.6h1.9c0.6,0,1-0.1,1.3-0.4
		c0.3-0.3,0.4-0.7,0.4-1.2c0-0.5-0.1-0.9-0.4-1.1c-0.3-0.3-0.7-0.4-1.3-0.4h-1.9V279.6z"/>
	<path class="st1" d="M269.1,286.6l-4.2-5.6v5.6h-3.1V274h3.1v5.5l4.2-5.5h3.6l-4.9,6.2l5.1,6.4H269.1z"/>
	<path class="st1" d="M285.3,274v12.6h-3.1v-5.2h-4.8v5.2h-3.1V274h3.1v5h4.8v-5H285.3z"/>
	<path class="st1" d="M290.6,274v12.6h-3.1V274H290.6z"/>
	<path class="st1" d="M301,274.8c1,0.5,1.8,1.3,2.3,2.2c0.5,1,0.8,2.1,0.8,3.3c0,1.2-0.3,2.3-0.8,3.3c-0.5,1-1.3,1.7-2.3,2.2
		s-2.2,0.8-3.5,0.8h-4.7V274h4.7C298.9,274,300,274.2,301,274.8z M300.1,283c0.6-0.6,1-1.5,1-2.7c0-1.2-0.3-2.1-1-2.7
		c-0.6-0.6-1.6-1-2.7-1h-1.5v7.3h1.5C298.5,283.9,299.4,283.6,300.1,283z"/>
	<path class="st1" d="M320.2,274v12.6h-3.1V279l-2.8,7.6h-2.5L309,279v7.6h-3.1V274h3.6l3.5,8.7l3.5-8.7H320.2z"/>
	<path class="st1" d="M330.3,284.4h-4.7l-0.8,2.2h-3.2l4.6-12.6h3.6l4.6,12.6h-3.3L330.3,284.4z M329.5,282l-1.6-4.6l-1.5,4.6H329.5
		z"/>
	<path class="st1" d="M344.8,274v2.5h-3.3v10.2h-3.1v-10.2H335V274H344.8z"/>
	<path class="st1" d="M354.2,284.4h-4.7l-0.8,2.2h-3.2l4.6-12.6h3.6l4.6,12.6H355L354.2,284.4z M353.4,282l-1.6-4.6l-1.5,4.6H353.4z
		"/>
	<path class="st1" d="M370.9,286.6h-3.1l-5.1-7.8v7.8h-3.1V274h3.1l5.1,7.8V274h3.1V286.6z"/>
</g>
</svg>
