<?xml version="1.0" encoding="utf-8"?>
<!-- Generator: Adobe Illustrator 12.0.0, SVG Export Plug-In . SVG Version: 6.00 Build 51448)  -->
<!DOCTYPE svg PUBLIC "-//W3C//DTD SVG 1.1//EN" "http://www.w3.org/Graphics/SVG/1.1/DTD/svg11.dtd" [
	<!ENTITY ns_svg "http://www.w3.org/2000/svg">
	<!ENTITY ns_xlink "http://www.w3.org/1999/xlink">
]>
<svg  version="1.1" id="Layer_1" xmlns="&ns_svg;" xmlns:xlink="&ns_xlink;" width="600" height="337.605"
	 viewBox="0 0 600 337.605" overflow="visible" enable-background="new 0 0 600 337.605" xml:space="preserve">
<rect x="-0.501" y="-0.5" fill="#EF4136" width="600.002" height="337.605"/>
<g>
	<path fill="#FFFFFF" d="M363.001,146.058l-21.16,69.731c-1.931,6.547-8.696,11.623-15.317,11.623h-71.05
		c-7.843,0-16.236-6.23-19.086-14.238c-1.223-3.461-1.223-6.852-0.146-9.771c0.146-1.545,0.459-3.08,0.538-4.926
		c0.067-1.236-0.617-2.232-0.471-3.16c0.314-1.846,1.93-3.152,3.165-5.234c2.3-3.848,4.926-10.082,5.767-14.082
		c0.382-1.465-0.381-3.158,0-4.467c0.382-1.457,1.852-2.541,2.614-3.92c2.088-3.546,4.78-10.396,5.162-14.009
		c0.157-1.616-0.617-3.388-0.157-4.617c0.538-1.773,2.232-2.542,3.388-4.079c1.851-2.542,4.926-9.852,5.386-13.936
		c0.157-1.308-0.617-2.614-0.381-4c0.303-1.465,2.155-3.002,3.389-4.774c3.231-4.77,3.848-15.317,13.622-12.545l-0.078,0.23
		c1.312-0.304,2.614-0.69,3.927-0.69h58.572c3.611,0,6.844,1.616,8.774,4.309c1.996,2.771,2.456,6.391,1.38,10.009l-21.084,69.73
		c-3.623,11.855-5.621,14.469-15.396,14.469h-66.886c-1,0-2.233,0.232-2.929,1.156c-0.606,0.92-0.684,1.615-0.067,3.311
		c1.537,4.461,6.844,5.387,11.074,5.387h71.05c2.839,0,6.147-1.617,7.003-4.389l23.091-75.964c0.461-1.464,0.461-3.001,0.382-4.387
		c1.772,0.689,3.389,1.768,4.545,3.311C363.539,138.899,364.078,142.517,363.001,146.058z M275.031,158.451h46.79
		c1.314,0,2.772-1.077,3.231-2.463l1.615-4.926c0.472-1.385-0.303-2.463-1.692-2.463h-46.791c-1.312,0-2.771,1.078-3.232,2.463
		l-1.615,4.926C272.877,157.373,273.641,158.451,275.031,158.451z M281.416,138.746h46.801c1.302,0,2.761-1.077,3.23-2.463
		l1.615-4.926c0.462-1.385-0.313-2.462-1.692-2.462h-46.803c-1.302,0-2.771,1.078-3.231,2.462l-1.616,4.926
		C279.261,137.669,280.036,138.746,281.416,138.746z"/>
</g>
</svg>
