<?xml version="1.0" encoding="utf-8"?>
<!-- Generator: Adobe Illustrator 12.0.0, SVG Export Plug-In . SVG Version: 6.00 Build 51448)  -->
<!DOCTYPE svg PUBLIC "-//W3C//DTD SVG 1.1//EN" "http://www.w3.org/Graphics/SVG/1.1/DTD/svg11.dtd" [
	<!ENTITY ns_svg "http://www.w3.org/2000/svg">
	<!ENTITY ns_xlink "http://www.w3.org/1999/xlink">
]>
<svg  version="1.1" id="Layer_1" xmlns="&ns_svg;" xmlns:xlink="&ns_xlink;" width="600" height="337.604"
	 viewBox="0 0 600 337.604" overflow="visible" enable-background="new 0 0 600 337.604" xml:space="preserve">
<rect x="-0.498" y="-0.5" fill="#FBB040" width="599.996" height="337.604"/>
<g>
	<path fill="#FFFFFF" d="M360.242,158.676c-17.717-15.572-36.814-24.237-60.743-24.237c-23.93,0-43.025,8.665-60.743,24.237
		c-0.463,0.384-1.073,0.692-1.688,0.692c-1.766,0-12.886-11.048-12.886-12.887c0-0.693,0.308-1.304,0.767-1.768
		c19.404-19.249,47.402-29.909,74.552-29.909s55.146,10.66,74.551,29.909c0.461,0.464,0.768,1.073,0.768,1.768
		c0,1.839-11.12,12.886-12.887,12.886C361.316,159.368,360.705,159.059,360.242,158.676z M339.384,179.538
		c-12.658-9.816-23.318-15.648-39.885-15.648c-23.161,0-40.8,16.257-41.646,16.257c-1.766,0-12.808-11.042-12.808-12.881
		c0-0.613,0.308-1.229,0.766-1.687c13.73-13.731,34.438-21.323,53.688-21.323s39.957,7.592,53.688,21.323
		c0.457,0.457,0.766,1.073,0.766,1.687c0,1.84-11.042,12.881-12.809,12.881C340.535,180.148,339.843,179.845,339.384,179.538z
		 M299.499,193.343c-11.35,0-19.557,7.67-20.708,7.67c-1.839,0-12.965-11.047-12.965-12.887c0-0.689,0.308-1.303,0.771-1.762
		c8.208-8.135,21.553-12.658,32.901-12.658c11.348,0,24.693,4.523,32.9,12.658c0.464,0.459,0.771,1.072,0.771,1.762
		c0,1.84-11.126,12.887-12.965,12.887C319.134,201.013,310.776,193.343,299.499,193.343z M286.769,208.99
		c0-3.762,9.817-5.83,12.73-5.83c2.912,0,12.73,2.068,12.73,5.83c0,2.07-10.734,12.811-12.73,12.811S286.769,211.06,286.769,208.99z
		"/>
</g>
</svg>
