<?xml version="1.0" encoding="utf-8"?>
<!-- Generator: Adobe Illustrator 12.0.0, SVG Export Plug-In . SVG Version: 6.00 Build 51448)  -->
<!DOCTYPE svg PUBLIC "-//W3C//DTD SVG 1.1//EN" "http://www.w3.org/Graphics/SVG/1.1/DTD/svg11.dtd" [
	<!ENTITY ns_svg "http://www.w3.org/2000/svg">
	<!ENTITY ns_xlink "http://www.w3.org/1999/xlink">
]>
<svg  version="1.1" id="Layer_1" xmlns="&ns_svg;" xmlns:xlink="&ns_xlink;" width="300" height="380" viewBox="0 0 300 380"
	 overflow="visible" enable-background="new 0 0 300 380" xml:space="preserve">
<rect fill="#E2E2E2" width="300" height="380"/>
<g>
	<path fill="#FFFFFF" d="M250.461,134.245c-7.34,35.666-30.275,58.831-62.156,74.657c-15.482,7.797-32.801,12.386-50.231,12.386
		c-11.009,0-22.362-1.835-32.798-5.392c-5.505-1.834-16.515-9.061-21.102-9.061c-5.733,0-12.615,23.396-22.591,23.396
		c-7.225,0-9.404-3.557-12.5-8.83c-1.033-1.95-1.835-2.639-1.835-5.047c0-11.928,22.707-21.217,22.707-27.869
		c0-1.031-2.981-7.109-3.44-9.404c-0.689-3.898-1.033-7.912-1.033-11.926c0-36.469,29.014-62.501,61.583-73.281
		c23.511-7.798,73.511,1.262,89.452-13.876c6.307-5.848,9.403-11.239,19.036-11.239c12.958,0,17.202,33.602,17.202,43.349
		C252.754,119.451,251.951,126.906,250.461,134.245z M186.698,127.479c-40.597,0-66.744,16.973-93.235,46.217
		c-1.376,1.49-2.179,3.096-2.179,5.16c0,4.014,3.326,7.339,7.339,7.339c2.064,0,3.67-0.803,5.16-2.179
		c5.621-5.045,10.666-10.551,16.171-15.711c20.757-18.692,38.532-26.147,66.744-26.147c4.014,0,7.339-3.326,7.339-7.34
		C194.037,130.804,190.712,127.479,186.698,127.479z"/>
</g>
<g>
	<path fill="#FFFFFF" d="M92.134,33.664c3.806,0,5.434,2.249,5.434,5.919v2.908c0,3.841-1.799,5.848-5.642,5.848h-2.389v9.554
		h-2.698V33.664H92.134z M91.925,45.918c2.008,0,2.978-0.936,2.978-3.255v-3.219c0-2.215-0.796-3.322-2.769-3.322h-2.597v9.796
		H91.925z"/>
	<path fill="#FFFFFF" d="M102.35,52.183c0,2.179,0.865,3.494,2.838,3.494c1.939,0,2.804-1.315,2.804-3.494V33.664h2.527v18.378
		c0,3.669-1.697,6.127-5.434,6.127c-3.705,0-5.4-2.458-5.4-6.127V33.664h2.665V52.183z"/>
	<path fill="#FFFFFF" d="M118.625,33.664c3.772,0,5.26,1.801,5.26,5.366v1.141c0,2.562-0.726,4.154-2.838,4.812
		c2.354,0.656,3.254,2.527,3.254,5.19v2.044c0,3.633-1.766,5.676-5.538,5.676h-5.572V33.664H118.625z M117.967,43.944
		c2.146,0,3.253-0.693,3.253-3.218v-1.421c0-2.145-0.727-3.184-2.665-3.184h-2.666v7.822L117.967,43.944L117.967,43.944z
		 M118.763,55.435c1.973,0,2.873-1.037,2.873-3.289v-2.145c0-2.699-1.074-3.599-3.392-3.599h-2.354v9.032L118.763,55.435
		L118.763,55.435z"/>
	<path fill="#FFFFFF" d="M126.767,57.893V33.664h2.698v21.771h6.923v2.458H126.767z"/>
	<path fill="#FFFFFF" d="M141.136,33.664v24.229h-2.698V33.664H141.136z"/>
	<path fill="#FFFFFF" d="M154.602,39.515v2.179h-2.561v-2.317c0-2.181-0.865-3.497-2.838-3.497c-1.938,0-2.839,1.316-2.839,3.497
		v12.807c0,2.179,0.9,3.494,2.839,3.494c1.973,0,2.838-1.315,2.838-3.494v-3.15h2.561v3.01c0,3.669-1.729,6.093-5.469,6.093
		c-3.703,0-5.434-2.424-5.434-6.093V39.515c0-3.67,1.73-6.093,5.434-6.093C152.871,33.422,154.602,35.845,154.602,39.515z"/>
	<path fill="#FFFFFF" d="M159.801,53.011l-0.934,4.882h-2.492l4.639-24.229h3.91l4.639,24.229h-2.701l-0.936-4.882H159.801z
		 M160.148,50.691h5.396l-2.731-13.981L160.148,50.691z"/>
	<path fill="#FFFFFF" d="M173.859,57.893V36.122h-4.463v-2.458h11.594v2.458h-4.465v21.771H173.859z"/>
	<path fill="#FFFFFF" d="M185.529,33.664v24.229h-2.701V33.664H185.529z"/>
	<path fill="#FFFFFF" d="M188.094,39.515c0-3.703,1.836-6.093,5.539-6.093c3.738,0,5.572,2.39,5.572,6.093v12.527
		c0,3.669-1.834,6.093-5.572,6.093c-3.703,0-5.539-2.424-5.539-6.093V39.515z M190.76,52.183c0,2.215,0.936,3.494,2.873,3.494
		c1.975,0,2.873-1.279,2.873-3.494V39.376c0-2.181-0.898-3.497-2.873-3.497c-1.938,0-2.873,1.316-2.873,3.497V52.183z"/>
	<path fill="#FFFFFF" d="M204.162,57.893h-2.424V33.664h3.428l5.607,17.513V33.664h2.389v24.229h-2.805l-6.195-19.59V57.893
		L204.162,57.893z"/>
</g>
<g>
	<path fill="#FFFFFF" d="M89.89,255.596c10.867,0,15.154,5.19,15.154,15.461v3.285c0,7.385-2.095,11.969-8.177,13.863
		c6.78,1.891,9.373,7.279,9.373,14.953v5.888c0,10.468-5.085,16.354-15.953,16.354H74.229v-69.805H89.89L89.89,255.596z
		 M87.991,285.215c6.185,0,9.376-1.998,9.376-9.271v-4.092c0-6.179-2.095-9.175-7.678-9.175h-7.682v22.538H87.991L87.991,285.215z
		 M90.287,318.316c5.684,0,8.276-2.983,8.276-9.475v-6.178c0-7.778-3.093-10.368-9.771-10.368h-6.785v26.021H90.287L90.287,318.316z
		"/>
	<path fill="#FFFFFF" d="M112.744,272.451c0-10.667,5.288-17.553,15.956-17.553c10.771,0,16.058,6.886,16.058,17.553v36.093
		c0,10.571-5.286,17.552-16.058,17.552c-10.668,0-15.956-6.979-15.956-17.552V272.451z M120.422,308.947
		c0,6.386,2.695,10.072,8.278,10.072c5.684,0,8.277-3.688,8.277-10.072v-36.895c0-6.285-2.594-10.078-8.277-10.078
		c-5.583,0-8.278,3.793-8.278,10.078V308.947L120.422,308.947z"/>
	<path fill="#FFFFFF" d="M151.557,272.451c0-10.667,5.286-17.553,15.955-17.553c10.771,0,16.057,6.886,16.057,17.553v36.093
		c0,10.571-5.284,17.552-16.057,17.552c-10.669,0-15.955-6.979-15.955-17.552V272.451z M159.234,308.947
		c0,6.386,2.695,10.072,8.277,10.072c5.684,0,8.278-3.688,8.278-10.072v-36.895c0-6.285-2.595-10.078-8.278-10.078
		c-5.582,0-8.277,3.793-8.277,10.078V308.947z"/>
	<path fill="#FFFFFF" d="M202.833,295.09l-4.089,6.879V325.4h-7.778v-69.805h7.778v33.705l18.549-33.705h7.877l-17.646,31.812
		l18.248,37.991h-7.979L202.833,295.09z"/>
</g>
</svg>
