<?xml version="1.0" encoding="utf-8"?>
<!-- Generator: Adobe Illustrator 12.0.0, SVG Export Plug-In . SVG Version: 6.00 Build 51448)  -->
<!DOCTYPE svg PUBLIC "-//W3C//DTD SVG 1.1//EN" "http://www.w3.org/Graphics/SVG/1.1/DTD/svg11.dtd" [
	<!ENTITY ns_svg "http://www.w3.org/2000/svg">
	<!ENTITY ns_xlink "http://www.w3.org/1999/xlink">
]>
<svg  version="1.1" id="Layer_1" xmlns="&ns_svg;" xmlns:xlink="&ns_xlink;" width="600" height="337.604"
	 viewBox="0 0 600 337.604" overflow="visible" enable-background="new 0 0 600 337.604" xml:space="preserve">
<rect x="-0.498" y="-0.5" fill="#8DC63F" width="599.996" height="337.604"/>
<g>
	<g>
		<path fill="#FFFFFF" d="M363.715,109.405l-18.366,110.19c-0.215,1.363-1.075,2.512-2.295,3.229
			c-0.646,0.359-1.436,0.574-2.225,0.574c-0.574,0-1.146-0.145-1.721-0.357l-32.5-13.271l-17.361,21.164
			c-0.861,1.074-2.151,1.648-3.515,1.648c-0.501,0-1.077-0.072-1.579-0.287c-1.793-0.646-3.013-2.369-3.013-4.307v-25.035
			l61.984-75.974l-76.69,66.361l-28.336-11.623c-1.651-0.645-2.727-2.15-2.871-3.945c-0.071-1.721,0.791-3.373,2.297-4.232
			l119.375-68.87c0.718-0.431,1.508-0.646,2.296-0.646c0.933,0,1.864,0.287,2.581,0.789
			C363.283,105.888,364.002,107.609,363.715,109.405z"/>
	</g>
</g>
</svg>
