<?xml version="1.0" encoding="utf-8"?>
<!-- Generator: Adobe Illustrator 12.0.0, SVG Export Plug-In . SVG Version: 6.00 Build 51448)  -->
<!DOCTYPE svg PUBLIC "-//W3C//DTD SVG 1.1//EN" "http://www.w3.org/Graphics/SVG/1.1/DTD/svg11.dtd" [
	<!ENTITY ns_svg "http://www.w3.org/2000/svg">
	<!ENTITY ns_xlink "http://www.w3.org/1999/xlink">
]>
<svg  version="1.1" id="Layer_1" xmlns="&ns_svg;" xmlns:xlink="&ns_xlink;" width="600" height="337.604"
	 viewBox="0 0 600 337.604" overflow="visible" enable-background="new 0 0 600 337.604" xml:space="preserve">
<rect x="-0.498" y="-0.5" fill="#00AEEF" width="599.996" height="337.604"/>
<g>
	<g>
		<path fill="#FFFFFF" d="M255.468,177.22h-9.336c-6.968,0-13.521-3.34-13.521-11.075c0-5.642-0.213-24.598,8.646-24.598
			c1.462,0,8.706,5.923,18.11,5.923c3.21,0,6.269-0.56,9.265-1.602c-0.204,1.528-0.345,3.063-0.345,4.598
			c0,6.338,2.021,12.61,5.648,17.837C266.681,168.511,260.128,171.646,255.468,177.22z M259.367,141.547
			c-9.823,0-17.836-8.016-17.836-17.839c0-9.822,8.015-17.838,17.836-17.838c9.823,0,17.838,8.016,17.838,17.838
			C277.205,133.532,269.19,141.547,259.367,141.547z M329.955,230.734h-60.907c-11.144,0-18.598-6.76-18.598-18.047
			c0-15.75,3.697-39.924,24.104-39.924c2.376,0,11.01,9.684,24.949,9.684c13.938,0,22.57-9.684,24.947-9.684
			c20.409,0,24.104,24.174,24.104,39.924C348.555,223.972,341.1,230.734,329.955,230.734z M299.502,177.22
			c-14.771,0-26.756-11.984-26.756-26.753c0-14.771,11.984-26.759,26.756-26.759c14.769,0,26.756,11.986,26.756,26.758
			C326.258,165.236,314.273,177.22,299.502,177.22z M339.638,141.547c-9.825,0-17.838-8.016-17.838-17.839
			c0-9.822,8.013-17.838,17.838-17.838c9.823,0,17.837,8.016,17.837,17.838C357.472,133.532,349.46,141.547,339.638,141.547z
			 M352.873,177.22h-9.338c-4.661-5.574-11.213-8.708-18.466-8.917c3.627-5.226,5.647-11.499,5.647-17.836
			c0-1.536-0.143-3.069-0.347-4.598c2.997,1.042,6.054,1.602,9.265,1.602c9.405,0,16.649-5.922,18.111-5.922
			c8.855,0,8.644,18.955,8.644,24.599C366.392,173.88,359.841,177.22,352.873,177.22z"/>
	</g>
</g>
</svg>
