<?xml version="1.0" encoding="UTF-8" standalone="no"?>
<svg
   xmlns:dc="http://purl.org/dc/elements/1.1/"
   xmlns:cc="http://creativecommons.org/ns#"
   xmlns:rdf="http://www.w3.org/1999/02/22-rdf-syntax-ns#"
   xmlns:svg="http://www.w3.org/2000/svg"
   xmlns="http://www.w3.org/2000/svg"
   xmlns:sodipodi="http://sodipodi.sourceforge.net/DTD/sodipodi-0.dtd"
   xmlns:inkscape="http://www.inkscape.org/namespaces/inkscape"
   version="1.1"
   id="Layer_1"
   x="0px"
   y="0px"
   width="800"
   height="460"
   viewBox="0 0 800 460"
   xml:space="preserve"
   sodipodi:docname="placeholder_news.svg"
   inkscape:version="1.0.1 (3bc2e813f5, 2020-09-07)"><metadata
   id="metadata13"><rdf:RDF><cc:Work
       rdf:about=""><dc:format>image/svg+xml</dc:format><dc:type
         rdf:resource="http://purl.org/dc/dcmitype/StillImage" /><dc:title></dc:title></cc:Work></rdf:RDF></metadata><defs
   id="defs11" /><sodipodi:namedview
   pagecolor="#ffffff"
   bordercolor="#666666"
   borderopacity="1"
   objecttolerance="10"
   gridtolerance="10"
   guidetolerance="10"
   inkscape:pageopacity="0"
   inkscape:pageshadow="2"
   inkscape:window-width="1680"
   inkscape:window-height="987"
   id="namedview9"
   showgrid="false"
   inkscape:zoom="0.79891304"
   inkscape:cx="300"
   inkscape:cy="230"
   inkscape:window-x="-8"
   inkscape:window-y="-8"
   inkscape:window-maximized="1"
   inkscape:current-layer="Layer_1" />
<rect
   fill="#e2e2e2"
   width="804.02722"
   height="460"
   id="rect2"
   x="0"
   y="0"
   style="stroke-width:1.1576;fill:#ffa500;fill-opacity:1" />

<g
   id="icon"
   transform="matrix(4,0,0,4,144,-26.936776)"><path
     d="m 89.314,94.014 8.2,10 H 33.143 A 9.643,9.643 0 0 1 23.5,94.376 V 23.981 H 89.314 V 99.8"
     fill="#eeefee"
     id="path5" /><path
     d="M 89.314,60.866 H 104.5 v 35.559 a 7.593,7.593 0 0 1 -7.593,7.593 7.593,7.593 0 0 1 -7.593,-7.593 z"
     fill="#dbd8dd"
     id="path7" /><path
     d="M 44.88,39.074 H 43.6 l -4.957,-7.467 v 7.467 h -1.192 v -9.461 h 1.278 l 4.957,7.467 v -7.467 h 1.194 z"
     fill="#2cbfae"
     id="path9" /><path
     d="M 54.051,39.074 H 47 v -9.461 h 6.835 v 1.123 h -5.586 v 2.891 h 5.221 v 1.123 h -5.221 v 3.2 h 5.8 z"
     fill="#2cbfae"
     id="path11" /><path
     d="m 67.1,29.613 -2.62,9.462 h -1.2 l -2.272,-8.222 -2.278,8.221 h -1.2 l -2.614,-9.462 h 1.317 l 1.891,7.706 2.13,-7.706 h 1.5 l 2.13,7.706 1.891,-7.706 z"
     fill="#2cbfae"
     id="path13" /><path
     d="m 71.858,39.236 a 4.335,4.335 0 0 1 -2.991,-0.9 3.133,3.133 0 0 1 -1.042,-2.3 h 1.207 a 1.961,1.961 0 0 0 0.881,1.565 3.416,3.416 0 0 0 1.894,0.507 2.983,2.983 0 0 0 1.694,-0.432 1.347,1.347 0 0 0 0.642,-1.175 1.2,1.2 0 0 0 -0.665,-1.136 9.558,9.558 0 0 0 -2.288,-0.7 5.283,5.283 0 0 1 -2.33,-0.958 2.054,2.054 0 0 1 -0.707,-1.633 2.308,2.308 0 0 1 0.92,-1.885 3.8,3.8 0 0 1 2.443,-0.736 4.169,4.169 0 0 1 2.582,0.742 2.628,2.628 0 0 1 1.039,2.1 h -1.22 Q 73.73,30.578 71.568,30.578 a 2.844,2.844 0 0 0 -1.62,0.394 1.212,1.212 0 0 0 -0.574,1.046 0.989,0.989 0 0 0 0.461,0.891 5.853,5.853 0 0 0 1.723,0.574 16.258,16.258 0 0 1 2,0.549 3.208,3.208 0 0 1 1.271,0.842 2.166,2.166 0 0 1 0.529,1.533 2.526,2.526 0 0 1 -0.971,2.027 3.834,3.834 0 0 1 -2.529,0.802 z"
     fill="#2cbfae"
     id="path15" /><g
     fill="#dbd8dd"
     id="g39"><path
       d="M 27.598,46.884 H 46.884 V 59.5 H 27.598 Z"
       id="path17" /><path
       d="m 51.143,46.884 h 34.072 v 1.812 H 51.143 Z"
       id="path19" /><path
       d="m 51.143,52.286 h 34.072 v 1.812 H 51.143 Z"
       id="path21" /><path
       d="M 51.143,57.688 H 85.215 V 59.5 H 51.143 Z"
       id="path23" /><path
       d="m 27.844,64.424 h 32.661 v 1.729 H 27.844 Z"
       id="path25" /><path
       d="m 27.844,70.167 h 32.661 v 1.729 H 27.844 Z"
       id="path27" /><path
       d="m 27.844,75.909 h 32.661 v 1.729 H 27.844 Z"
       id="path29" /><path
       d="m 27.844,81.652 h 32.661 v 1.729 H 27.844 Z"
       id="path31" /><path
       d="m 27.844,89.917 h 57.371 v 1.729 H 27.844 Z"
       id="path33" /><path
       d="m 27.844,95.66 h 57.371 v 1.729 H 27.844 Z"
       id="path35" /><path
       d="M 63.84,64.424 H 85.215 V 83.381 H 63.84 Z"
       id="path37" /></g></g></svg>
